<?xml version="1.0" standalone="no"?>
<!DOCTYPE svg PUBLIC "-//W3C//DTD SVG 1.1//EN" "http://www.w3.org/Graphics/SVG/1.1/DTD/svg11.dtd" >
<svg xmlns="http://www.w3.org/2000/svg">
<metadata>
This is a custom SVG webfont generated by Font Squirrel.
Copyright   : Copyright c 2011 Juergen Huber Martin Wenzel
Designer    : Juergen Huber Martin Wenzel
Foundry     : Juergen Huber Martin Wenzel
</metadata>
<defs>
<font id="BundesSansWebBold" horiz-adv-x="500" >
<font-face units-per-em="1000" ascent="775" descent="-225" />
<missing-glyph horiz-adv-x="208" />
<glyph unicode="[Pfeil&#x20;W]" horiz-adv-x="807" d="M488.02 602.002l-240.985 -234.986v-1.99902h514.969v-98.9941h-514.969v-2l240.985 -235.985l-70.9961 -69.9961l-356.978 356.979l356.978 356.978z" />
<glyph unicode="[Pfeil&#x20;N]" horiz-adv-x="804" d="M689 244l-235 241h-2v-515h-99v515h-2l-236 -241l-70 71l357 357l357 -357z" />
<glyph unicode="[Pfeil&#x20;O]" horiz-adv-x="807" d="M319 28l241 235v2h-515v99h515v2l-241 236l71 70l357 -357l-357 -357z" />
<glyph unicode="[Pfeil&#x20;S]" horiz-adv-x="804" d="M115.042 386.015l234.985 -240.985h2v514.969h98.9941v-514.969h2l235.985 240.985l69.9961 -70.9951l-356.979 -356.979l-356.979 356.979z" />
<glyph unicode="[Pfeil&#x20;NW]" horiz-adv-x="655" d="M595 482l-336 5l-1 -2l363 -364l-70 -71l-364 365l-1 -2l4 -336h-100v505h505v-100z" />
<glyph unicode="[Pfeil&#x20;NO]" horiz-adv-x="655" d="M60.0361 482l335.979 5l1 -2l-362.978 -364l69.9951 -71l363.979 365l1 -2l-4 -336h99.9941v505h-504.97v-100z" />
<glyph unicode="[Pfeil&#x20;SO]" horiz-adv-x="655" d="M60.0361 177.029l335.979 -5l1 2l-362.978 363.979l69.9951 70.9951l363.979 -364.978l1 2l-4 335.979h99.9941v-504.97h-504.97v99.9941z" />
<glyph unicode="[Pfeil&#x20;SW]" horiz-adv-x="655" d="M595 177.029l-336 -5l-1 2l363 363.979l-70 70.9951l-364 -364.978l-1 2l4 335.979h-100v-504.97h505v99.9941z" />
<glyph unicode="fi" horiz-adv-x="608" arabic-form="medial" d="M330 387h-109v-387h-126v387h-66v86l66 12v42q0 97 46.5 145.5t133.5 48.5q35 0 55 -7t27 -11l-20 -100l-18 7t-30 5q-34 0 -51 -18.5t-17 -65.5v-44h121zM544 0h-126v487h126v-487zM554 642q0 -33 -20.5 -52.5t-52.5 -19.5q-33 0 -53.5 19.5t-20.5 52.5q0 34 20.5 53.5 t53.5 19.5q32 0 52.5 -19.5t20.5 -53.5z" />
<glyph unicode="fl" horiz-adv-x="643" arabic-form="isolated" d="M330 387h-109v-387h-126v387h-66v86l66 12v42q0 97 46.5 145.5t133.5 48.5q35 0 55 -7t27 -11l-20 -100l-18 7t-30 5q-34 0 -51 -18.5t-17 -65.5v-44h121zM542 157q0 -39 10 -52.5t33 -13.5q13 0 22.5 2.5t14.5 4.5l8 -88q-8 -5 -29 -12t-55 -7q-30 0 -54.5 7.5t-41 25 t-25.5 46t-9 69.5v566l126 11v-559z" />
<glyph unicode="&#x6a9;" horiz-adv-x="1012" arabic-form="initial" d="M398 542q-7 5 -17.5 13.5t-26 16t-35 13t-44.5 5.5q-48 0 -70.5 -18t-22.5 -44q0 -32 17 -52.5t59 -45.5l75 -46q35 -22 60.5 -43.5t42 -45.5t24.5 -51.5t8 -60.5q0 -36 -13 -71t-41.5 -62.5t-73 -44.5t-107.5 -17q-42 0 -74 8t-55 18.5t-38.5 22l-24.5 18.5l44 112 q9 -9 22.5 -20t32 -21t41.5 -17t50 -7q54 0 79 19t25 45q0 34 -16.5 56.5t-56.5 48.5l-75 50q-36 24 -61.5 45.5t-42 45.5t-24.5 51t-8 62q0 37 15 69t43.5 56t69 38t92.5 14q36 0 64 -6t48.5 -15t34.5 -18t22 -15zM904 542q-7 5 -17.5 13.5t-26 16t-35 13t-44.5 5.5 q-48 0 -70.5 -18t-22.5 -44q0 -32 17 -52.5t59 -45.5l75 -46q35 -22 60.5 -43.5t42 -45.5t24.5 -51.5t8 -60.5q0 -36 -13 -71t-41.5 -62.5t-73 -44.5t-107.5 -17q-42 0 -74 8t-55 18.5t-38.5 22l-24.5 18.5l44 112q9 -9 22.5 -20t32 -21t41.5 -17t50 -7q54 0 79 19t25 45 q0 34 -16.5 56.5t-56.5 48.5l-75 50q-36 24 -61.5 45.5t-42 45.5t-24.5 51t-8 62q0 37 15 69t43.5 56t69 38t92.5 14q36 0 64 -6t48.5 -15t34.5 -18t22 -15z" />
<glyph unicode=" "  horiz-adv-x="208" />
<glyph unicode="&#x09;" horiz-adv-x="208" />
<glyph unicode="&#xa0;" horiz-adv-x="208" />
<glyph unicode="!" horiz-adv-x="267" d="M192 227h-117l-17 463h151zM210 62q0 -35 -21 -54.5t-55 -19.5q-35 0 -55.5 19.5t-20.5 54.5t20.5 55t55.5 20q34 0 55 -20t21 -55z" />
<glyph unicode="&#x22;" horiz-adv-x="363" d="M146 443h-91v247h109zM299 443h-91v247h109z" />
<glyph unicode="#" horiz-adv-x="609" d="M561 421l-88 -13l-25 -158h85l-10 -66l-87 -14l-29 -170h-96l26 170h-117l-28 -170h-96l26 170h-84l10 66l87 13l25 158h-84l10 66l86 13l28 164h96l-26 -163h118l27 163h97l-27 -163h86zM258 407l-25 -157h117l26 157h-118z" />
<glyph unicode="$" horiz-adv-x="486" d="M207 -11q-36 1 -63.5 9t-48 17.5t-34 20l-21.5 16.5l43 109q8 -9 21.5 -19.5t31 -20t39 -16t47.5 -6.5q48 0 72 17t24 41q0 31 -16 51.5t-55 46.5l-66 44q-34 22 -58.5 42t-40.5 42.5t-24 49t-8 59.5q0 62 41.5 106.5t115.5 58.5v100h99v-98q50 -7 77 -23t40 -26 l-40 -101q-6 5 -16.5 12.5t-25.5 15t-34.5 12.5t-43.5 5q-47 0 -66.5 -17.5t-19.5 -40.5q0 -30 16.5 -48t57.5 -42l66 -41q33 -20 57.5 -40t40.5 -42.5t24 -49t8 -58.5q0 -29 -8 -56.5t-25.5 -51t-44 -41.5t-63.5 -28v-109h-99v100z" />
<glyph unicode="%" horiz-adv-x="783" d="M345 493q0 -44 -13 -76t-34.5 -53t-49 -31t-56.5 -10t-56.5 10t-49 31t-34.5 53t-13 76q0 43 13 75t34.5 53t49 31t56.5 10t56.5 -10t49 -31t34.5 -53t13 -75zM250 493q0 48 -16 70t-42 22t-41.5 -22t-15.5 -70t15.5 -70.5t41.5 -22.5t42 22.5t16 70.5zM218 0h-114 l459 650h115zM743 157q0 -44 -13 -75.5t-34.5 -52.5t-49 -31t-56.5 -10t-56.5 10t-49.5 31t-35 52.5t-13 75.5q0 43 13 75t35 53t49.5 31t56.5 10t56.5 -10t49 -31t34.5 -53t13 -75zM647 157q0 48 -15.5 70.5t-41.5 22.5t-42 -22.5t-16 -70.5t16 -70.5t42 -22.5t41.5 22.5 t15.5 70.5z" />
<glyph unicode="&#x26;" horiz-adv-x="638" d="M570 381q-7 -69 -22.5 -128.5t-42.5 -108.5l134 -142v-2h-160l-49 52q-38 -31 -88.5 -47.5t-114.5 -16.5q-84 0 -133.5 43.5t-49.5 133.5q0 33 9.5 60.5t25.5 50t37 41t45 34.5q-26 37 -41.5 78t-15.5 93q0 42 15 75.5t42 56.5t63.5 35.5t79.5 12.5q77 0 119 -40.5 t42 -112.5q0 -38 -13 -68t-34 -54.5t-47.5 -44.5t-53.5 -38l31 -32l78 -84q15 36 24 79.5t14 92.5zM256 99q58 0 101 32l-101 110l-33 35q-21 -20 -34 -43.5t-13 -52.5q0 -38 22 -59.5t58 -21.5zM225 522q0 -34 9 -60.5t26 -50.5q40 26 68 54.5t28 69.5q0 31 -15.5 50.5 t-44.5 19.5q-32 0 -51.5 -20.5t-19.5 -62.5z" />
<glyph unicode="'" horiz-adv-x="210" d="M146 443h-91v247h109z" />
<glyph unicode="(" horiz-adv-x="284" d="M40 305q0 94 15 167t37 127t46.5 91t44.5 60h94q-22 -25 -46 -62t-43.5 -90t-32 -125t-12.5 -168t12.5 -168t32 -125.5t43.5 -90t46 -61.5h-98q-20 23 -44 60t-45 91t-35.5 127t-14.5 167z" />
<glyph unicode=")" horiz-adv-x="284" d="M244 305q0 -94 -15 -167t-37 -127t-46.5 -91t-44.5 -60h-94q22 25 46 62t43.5 90t32 125t12.5 168t-12.5 168t-32 125.5t-43.5 90t-46 61.5h98q20 -23 44 -60t45 -91t35.5 -127t14.5 -167z" />
<glyph unicode="*" horiz-adv-x="483" d="M292 476v-2l103 -119l-72 -52l-81 135h-2l-80 -135l-72 52l103 119v2l-152 34l28 85l143 -61l1 1l-14 155h89l-14 -156l1 -1l143 62l28 -85z" />
<glyph unicode="+" d="M456 264h-156v-175h-101v175h-156v98h156v173h101v-173h156v-98z" />
<glyph unicode="," horiz-adv-x="241" d="M200 31q0 -45 -13.5 -76.5t-35 -52.5t-48 -32.5t-51.5 -16.5l-20 48q35 10 59.5 32t27.5 67h-5q-32 0 -52 20.5t-20 53.5t21.5 51t48.5 18q38 0 63 -29.5t25 -82.5z" />
<glyph unicode="-" horiz-adv-x="393" d="M336 257h-279v100h279v-100z" />
<glyph unicode="." horiz-adv-x="235" d="M193 64q0 -35 -20.5 -55.5t-55.5 -20.5q-34 0 -54.5 20.5t-20.5 55.5t20.5 56t54.5 21q35 0 55.5 -21t20.5 -56z" />
<glyph unicode="/" horiz-adv-x="462" d="M133 -140h-107l305 890h106z" />
<glyph unicode="0" d="M466 325q0 -87 -16 -150.5t-44.5 -105t-69 -61.5t-88.5 -20q-49 0 -88.5 20.5t-67.5 62t-43 105t-15 149.5q0 87 16 150.5t44.5 105t68.5 61.5t88 20q49 0 89 -20.5t68 -62t43 -105t15 -149.5zM337 325q0 63 -6 107t-17.5 71t-27.5 39t-36 12t-36 -12t-27.5 -39 t-17.5 -71t-6 -107q0 -66 6 -110t17.5 -70.5t27.5 -37.5t36 -11t36 11t27.5 37.5t17.5 70.5t6 110z" />
<glyph unicode="1" d="M332 100h131v-100h-389v100h132v427l-126 -44l-26 97l188 70h90v-550z" />
<glyph unicode="2" d="M436 470q0 -46 -13.5 -88t-41.5 -85.5t-69.5 -91t-98.5 -103.5v-2h235v-100h-388l-9 77l131 146t77.5 98.5t37.5 71t10 63.5q0 48 -23.5 74.5t-70.5 26.5q-25 0 -45.5 -6.5t-37 -15.5t-28.5 -19.5t-19 -18.5l-44 85q10 10 26.5 24t40.5 27t55.5 21.5t72.5 8.5 q93 0 147.5 -50t54.5 -143z" />
<glyph unicode="3" d="M425 493q0 -32 -8.5 -57t-24 -43.5t-36 -32.5t-44.5 -24v-2q25 -7 48.5 -19t41 -30.5t28 -45.5t10.5 -63q0 -42 -14.5 -76.5t-42.5 -59.5t-68 -38.5t-91 -13.5q-41 0 -72.5 10t-54 23t-36.5 26.5t-20 20.5l51 94l17.5 -19.5t26 -22t35.5 -17.5t46 -7q48 0 72.5 21 t24.5 59q0 49 -36.5 74t-103.5 25h-40l-8 95h25q83 0 118.5 29.5t35.5 78.5q0 34 -21 56t-63 22q-23 0 -42 -5.5t-34 -13.5t-26 -16.5t-17 -15.5l-46 84q9 9 25 21.5t40 24t55 19.5t70 8q83 0 131 -45t48 -124z" />
<glyph unicode="4" d="M463 150h-65v-150h-123v150h-256l-8 90l283 410h104v-389h65v-111zM275 462h-2l-128 -201h130v201z" />
<glyph unicode="5" d="M418 543h-202l-11 -134q67 -9 112.5 -27.5t74 -45.5t41 -62.5t12.5 -78.5q0 -48 -16 -86t-45 -65t-70 -41.5t-91 -14.5q-40 0 -70 7.5t-51.5 18.5t-36 23t-23.5 21l46 100q7 -9 19.5 -19.5t29 -20t36.5 -16t43 -6.5q48 0 74 22t26 63q0 32 -12.5 56t-40.5 40.5t-73 26 t-110 12.5l27 334h311v-107z" />
<glyph unicode="6" d="M466 210q0 -103 -51.5 -162.5t-148.5 -59.5q-51 0 -93 19t-72 59.5t-46 102.5t-16 149q0 92 24.5 157.5t64 107t91 60.5t105.5 19q51 0 78.5 -8.5t40.5 -14.5l-21 -104q-11 5 -32 11.5t-59 6.5q-66 0 -111.5 -45t-51.5 -136q23 14 52.5 23.5t65.5 9.5q83 0 131.5 -50 t48.5 -145zM255 308q-26 0 -48 -6t-39 -16q3 -101 32.5 -146.5t70.5 -45.5q35 0 54.5 27t19.5 82q0 56 -22.5 80.5t-67.5 24.5z" />
<glyph unicode="7" d="M468 564l-259 -564h-138l258 544v2h-282v104h412z" />
<glyph unicode="8" d="M443 490q0 -29 -8 -51t-20.5 -39.5t-28 -30t-31.5 -21.5v-3q48 -30 74.5 -71t26.5 -106q0 -37 -14.5 -70t-41.5 -57.5t-66.5 -38.5t-88.5 -14q-94 0 -147.5 47t-53.5 129q0 33 9.5 58t24.5 44t33 32.5t36 23.5v2q-42 28 -65.5 66t-23.5 95q0 39 15 71.5t42 56t63.5 36.5 t78.5 13q41 0 75 -11.5t59 -33.5t38.5 -54t13.5 -73zM221 285q-2 0 -2 1q-23 -16 -40.5 -42t-17.5 -64q0 -41 23 -65t62 -24t61.5 22t22.5 61q0 38 -27.5 63t-81.5 48zM180 489q0 -39 27.5 -62.5t74.5 -44.5q20 16 34.5 40t14.5 62q0 34 -21 55.5t-55 21.5q-33 0 -54 -20 t-21 -52z" />
<glyph unicode="9" d="M460 339q0 -93 -22 -159t-60 -109t-90.5 -63t-113.5 -20q-49 0 -79 8t-42 16l23 106q9 -6 30 -13.5t60 -7.5q71 0 114 42.5t50 130.5q-22 -14 -50 -23t-63 -9q-85 0 -135 53.5t-50 151.5q0 52 15.5 92.5t43.5 68.5t66.5 43t84.5 15q51 0 91.5 -18.5t68.5 -57.5t43 -100.5 t15 -146.5zM243 336q27 0 48.5 6t39.5 16q-2 108 -29.5 153t-69.5 45q-33 0 -55.5 -25.5t-22.5 -82.5q0 -112 89 -112z" />
<glyph unicode=":" horiz-adv-x="266" d="M209 422q0 -35 -20.5 -55.5t-55.5 -20.5q-34 0 -54.5 20.5t-20.5 55.5t20.5 56t54.5 21q35 0 55.5 -21t20.5 -56zM209 64q0 -35 -20.5 -55.5t-55.5 -20.5q-34 0 -54.5 20.5t-20.5 55.5t20.5 56t54.5 21q35 0 55.5 -21t20.5 -56z" />
<glyph unicode=";" horiz-adv-x="270" d="M215 31q0 -45 -13.5 -76.5t-35 -52.5t-48 -32.5t-51.5 -16.5l-20 48q35 10 59.5 32t27.5 67h-5q-32 0 -52 20.5t-20 53.5t21.5 51t48.5 18q38 0 63 -29.5t25 -82.5zM210 422q0 -35 -20.5 -55.5t-55.5 -20.5q-34 0 -54.5 20.5t-20.5 55.5t20.5 56t54.5 21q35 0 55.5 -21 t20.5 -56z" />
<glyph unicode="&#x3c;" d="M439 407l-268 -131v-2l268 -131v-106l-406 205v67l406 204v-106z" />
<glyph unicode="=" d="M456 180h-413v93h413v-93zM456 352h-413v93h413v-93z" />
<glyph unicode="&#x3e;" d="M60 144l268 131v2l-268 131v106l406 -205v-67l-406 -204v106z" />
<glyph unicode="?" horiz-adv-x="417" d="M279 62q0 -35 -21 -54.5t-55 -19.5q-35 0 -55.5 19.5t-20.5 54.5t20.5 55t55.5 20q34 0 55 -20t21 -55zM370 537q0 -49 -19 -79.5t-42 -55.5t-42 -50t-19 -63q0 -23 4.5 -38t9.5 -24h-115q-7 13 -15 33.5t-8 49.5q0 37 16.5 63t36.5 48.5t36.5 45t16.5 51.5q0 71 -65 71 q-19 0 -34.5 -4t-27.5 -10t-20.5 -12t-12.5 -10l-35 95q9 7 23.5 16.5t34.5 18t46.5 14t61.5 5.5q43 0 75 -12.5t53 -34.5t31 -52.5t10 -65.5z" />
<glyph unicode="@" horiz-adv-x="843" d="M804 330q0 -78 -19.5 -136.5t-51.5 -97t-72 -58t-82 -19.5q-35 0 -58 13t-34 44h-1q-5 -8 -14 -18t-23.5 -18.5t-34 -14.5t-45.5 -6q-66 0 -101.5 41.5t-35.5 132.5q0 63 20 111.5t52 81.5t72.5 50t82.5 17t63 -11.5t34 -21.5l24 23h49l-28 -175q-9 -57 -13 -87.5 t-4 -46.5q0 -20 5.5 -26.5t14.5 -6.5q15 0 33 12t33.5 38.5t25.5 69t10 103.5q0 109 -60.5 168.5t-163.5 59.5q-70 0 -130 -24t-104 -70t-69 -113t-25 -152q0 -76 17.5 -128t49 -83.5t75.5 -45t98 -13.5q77 0 125 16.5t72 29.5l14 -77q-11 -7 -28.5 -16t-44 -17.5t-63 -14.5 t-84.5 -6q-73 0 -134.5 18t-106 59.5t-69.5 109.5t-25 168q0 106 34 189t93.5 140t140 86.5t174.5 29.5q74 0 132 -21.5t98 -61.5t61 -97t21 -128zM397 106q29 0 49.5 11t32.5 22q0 21 4 49l9 63l16 103q-8 5 -18.5 9t-28.5 4q-52 0 -85.5 -44t-33.5 -127q0 -90 55 -90z" />
<glyph unicode="A" horiz-adv-x="621" d="M471 0l-60 186h-213l-60 -186h-134l254 690h105l253 -690h-145zM306 518h-2l-76 -236h154z" />
<glyph unicode="B" horiz-adv-x="583" d="M516 508q0 -37 -11 -63t-29 -43.5t-40 -28t-44 -17.5v-2q24 -5 49.5 -17t46.5 -32t34 -47.5t13 -63.5q0 -43 -16.5 -78.5t-51 -61t-88 -40t-127.5 -14.5h-172v690h163q76 0 128 -12.5t84 -36.5t46.5 -57.5t14.5 -75.5zM381 498q0 40 -31.5 63t-106.5 23h-29v-185h28 q72 0 105.5 26t33.5 73zM397 203q0 45 -35.5 68.5t-103.5 23.5h-44v-187h38q77 0 111 24t34 71z" />
<glyph unicode="C" horiz-adv-x="604" d="M49 347q0 95 29 162.5t76.5 110t108 62.5t123.5 20q44 0 76.5 -8t55 -19t36.5 -22l22 -17l-47 -101q-8 7 -20 16t-29 17.5t-39 14.5t-49 6q-42 0 -79 -13.5t-64 -42.5t-43 -74.5t-16 -109.5q0 -66 13.5 -113t38 -77t60 -44t79.5 -14q31 0 55.5 5.5t43 14t31.5 17.5t21 16 l36 -95q-8 -8 -23 -20t-39.5 -23t-59.5 -19.5t-84 -8.5q-68 0 -125.5 19.5t-99 62t-65 111t-23.5 166.5z" />
<glyph unicode="D" horiz-adv-x="677" d="M80 0v690h165q98 0 170 -19t119 -59.5t70 -104t23 -152.5q0 -93 -27 -160.5t-78 -110.5t-123.5 -63.5t-162.5 -20.5h-156zM214 579v-468h22q61 0 108 13t79 42.5t48 76t16 112.5q0 62 -15.5 105t-45.5 69.5t-75.5 38t-105.5 11.5h-31z" />
<glyph unicode="E" horiz-adv-x="542" d="M473 580h-259v-177h240v-110h-240v-183h292l-8 -110h-418v690h401z" />
<glyph unicode="F" horiz-adv-x="514" d="M80 0v690h401l-8 -110h-259v-199h243v-110h-243v-271h-134z" />
<glyph unicode="G" horiz-adv-x="651" d="M588 55q-8 -8 -24.5 -19t-42.5 -22t-63 -18.5t-86 -7.5q-69 0 -128.5 19t-103 61.5t-68 111.5t-24.5 168q0 91 29.5 158t78.5 110.5t111.5 64.5t127.5 21q46 0 81 -8.5t59 -19.5t39 -22.5l23 -17.5l-47 -101q-7 6 -19 15.5t-30 18.5t-42.5 15.5t-55.5 6.5 q-44 0 -82.5 -14t-68 -43t-46.5 -75t-17 -109q0 -131 53.5 -189t148.5 -58q38 0 72 8v151h-120l1 108h244v-313z" />
<glyph unicode="H" horiz-adv-x="703" d="M623 0h-134v293h-275v-293h-134v690h134v-287h275v287h134v-690z" />
<glyph unicode="I" horiz-adv-x="392" d="M129 593h-82v97h298v-97h-82v-496h83v-97h-300v97h83v496z" />
<glyph unicode="J" horiz-adv-x="368" d="M292 186q0 -53 -13 -90.5t-37 -61t-58 -34.5t-76 -11q-41 0 -63 7.5t-30 12.5l9 105q6 -3 19.5 -8.5t34.5 -5.5q43 0 61 20t18 75v495h135v-504z" />
<glyph unicode="K" horiz-adv-x="625" d="M371 354l250 -354h-162l-199 293h-46v-293h-134v690h134v-287h50l194 287h149z" />
<glyph unicode="L" horiz-adv-x="504" d="M214 690v-580h274l-8 -110h-400v690h134z" />
<glyph unicode="M" horiz-adv-x="848" d="M768 0h-129v413h-2l-166 -413h-94l-166 413h-2v-413h-129v690h147l201 -503h2l203 503h135v-690z" />
<glyph unicode="N" horiz-adv-x="695" d="M615 0h-115l-284 431h-2v-431h-134v690h115l284 -428h2v428h134v-690z" />
<glyph unicode="O" horiz-adv-x="724" d="M676 345q0 -88 -23 -155t-65 -112t-99.5 -67.5t-126.5 -22.5t-127 22.5t-99.5 67.5t-64.5 112t-23 155t23.5 155t65 112t99.5 67.5t127 22.5t126.5 -22.5t99 -67.5t64.5 -112t23 -155zM536 345q0 124 -46.5 184t-126.5 60q-82 0 -128 -59.5t-46 -184.5q0 -123 46 -183.5 t128 -60.5q81 0 127 60.5t46 183.5z" />
<glyph unicode="P" horiz-adv-x="572" d="M541 462q0 -56 -19.5 -100.5t-57 -75.5t-91.5 -48t-124 -17h-35v-221h-134v690h174q148 0 217.5 -59.5t69.5 -168.5zM400 459q0 58 -35.5 89.5t-110.5 31.5h-40v-249h35q78 0 114.5 33t36.5 95z" />
<glyph unicode="Q" horiz-adv-x="725" d="M676 345q0 -88 -23 -155t-65 -112q-20 -21 -42 -37l119 -146l-98 -74l-132 174q-35 -7 -73 -7q-69 0 -127 22.5t-99.5 67.5t-64.5 112t-23 155t23.5 155t65 112t99.5 67.5t127 22.5t126.5 -22.5t99 -67.5t64.5 -112t23 -155zM536 345q0 124 -46.5 184t-126.5 60 q-82 0 -128 -59.5t-46 -184.5q0 -123 46 -183.5t128 -60.5q81 0 127 60.5t46 183.5z" />
<glyph unicode="R" horiz-adv-x="601" d="M428 0l-147 252q-10 -1 -20.5 -1h-21.5h-25v-251h-134v690h164q146 0 215 -55t69 -160q0 -64 -29.5 -113t-89.5 -78l177 -284h-158zM388 474q0 54 -35 80t-109 26h-30v-223h25q76 0 112.5 30.5t36.5 86.5z" />
<glyph unicode="S" horiz-adv-x="506" d="M398 542q-7 5 -17.5 13.5t-26 16t-35 13t-44.5 5.5q-48 0 -70.5 -18t-22.5 -44q0 -32 17 -52.5t59 -45.5l75 -46q35 -22 60.5 -43.5t42 -45.5t24.5 -51.5t8 -60.5q0 -36 -13 -71t-41.5 -62.5t-73 -44.5t-107.5 -17q-42 0 -74 8t-55 18.5t-38.5 22l-24.5 18.5l44 112 q9 -9 22.5 -20t32 -21t41.5 -17t50 -7q54 0 79 19t25 45q0 34 -16.5 56.5t-56.5 48.5l-75 50q-36 24 -61.5 45.5t-42 45.5t-24.5 51t-8 62q0 37 15 69t43.5 56t69 38t92.5 14q36 0 64 -6t48.5 -15t34.5 -18t22 -15z" />
<glyph unicode="T" horiz-adv-x="579" d="M556 580h-200v-580h-134v580h-202v110h544z" />
<glyph unicode="U" horiz-adv-x="681" d="M608 289q0 -301 -272 -301q-137 0 -200 72.5t-63 228.5v401h134v-405q0 -97 32.5 -140.5t101.5 -43.5q72 0 105 43t33 141v405h129v-401z" />
<glyph unicode="V" horiz-adv-x="607" d="M356 0h-105l-246 690h148l155 -499h2l156 499h136z" />
<glyph unicode="W" horiz-adv-x="893" d="M692 0h-111l-134 467h-2l-133 -467h-111l-187 690h146l104 -477h2l123 477h127l121 -477h2l105 477h136z" />
<glyph unicode="X" horiz-adv-x="591" d="M368 355l212 -355h-154l-132 233h-2l-134 -233h-146l211 347l-203 343h154l124 -221h2l127 221h145z" />
<glyph unicode="Y" horiz-adv-x="577" d="M356 263v-263h-134v262l-221 428h151l140 -297h2l138 297h143z" />
<glyph unicode="Z" horiz-adv-x="571" d="M517 617l-307 -505v-2h330l-8 -110h-498v77l313 503v2h-293v108h463v-73z" />
<glyph unicode="[" horiz-adv-x="274" d="M243 669h-77v-729h77v-80h-177v890h177v-81z" />
<glyph unicode="\" horiz-adv-x="462" d="M329.008 -140h106.994l-304.981 890h-105.994z" />
<glyph unicode="]" horiz-adv-x="274" d="M31 -59h77v729h-77v80h177v-890h-177v81z" />
<glyph unicode="^" horiz-adv-x="459" d="M320 335l-94 210h-2l-94 -210h-106l172 355h66l172 -355h-114z" />
<glyph unicode="_" horiz-adv-x="426" d="M427 -172h-426v98h426v-98z" />
<glyph unicode="`" horiz-adv-x="207" d="M98 556l-127 136v2h143l94 -138h-110z" />
<glyph unicode="a" horiz-adv-x="463" d="M37 134q0 38 17.5 66t47.5 46t70.5 27t87.5 9h20v17q0 95 -82 95q-23 0 -41 -5t-32.5 -12.5t-25 -15.5t-16.5 -14l-39 80q9 9 24 21.5t37 23.5t51.5 19t67.5 8q86 0 132 -49t46 -155v-164q0 -42 2.5 -75t5.5 -56h-116q-1 11 -2 25.5t-1 28.5h-2q-6 -11 -15.5 -23 t-23 -21.5t-32.5 -15.5t-45 -6q-60 0 -98 40t-38 106zM209 86q27 0 43.5 9.5t27.5 20.5v90l-25 -1q-49 -3 -74 -16.5t-25 -42.5q0 -26 15 -43t38 -17z" />
<glyph unicode="b" horiz-adv-x="535" d="M494 264q0 -75 -20 -127.5t-54.5 -85.5t-81 -47.5t-100.5 -14.5q-70 0 -110.5 15.5t-65.5 30.5v670l126 10v-265h2q19 18 51 33.5t80 15.5q80 0 126.5 -60.5t46.5 -174.5zM365 252q0 72 -26 105.5t-71 33.5q-28 0 -47 -8t-33 -18v-264q9 -5 20.5 -8.5t28.5 -3.5 q30 0 54 8.5t40.5 27.5t25 50t8.5 77z" />
<glyph unicode="c" horiz-adv-x="452" d="M387 361q-9 8 -30.5 19.5t-55.5 11.5q-28 0 -52 -8t-42 -25.5t-28 -44.5t-10 -66q0 -42 9 -71t24.5 -47t37 -26t47.5 -8q40 0 63.5 11t37.5 22l36 -89q-8 -7 -19.5 -16t-30 -17t-44.5 -13.5t-62 -5.5q-50 0 -92 14t-72 44.5t-47 80t-17 121.5q0 65 21.5 112.5t57 78 t80 45.5t91.5 15q29 0 51 -4.5t38.5 -11t27 -13.5l16.5 -11z" />
<glyph unicode="d" horiz-adv-x="540" d="M41 242q0 64 18.5 112t49.5 80t71.5 48.5t84.5 16.5q30 0 50.5 -6.5t34.5 -14.5v227l126 11v-716h-115v55h-2q-4 -7 -13 -18t-24.5 -22t-38.5 -19t-56 -8q-41 0 -75.5 16t-59 47.5t-38 79.5t-13.5 111zM264 96q32 0 52.5 10.5t33.5 22.5v250q-11 8 -27 13t-39 5 q-51 0 -82.5 -36.5t-31.5 -112.5q0 -41 7 -70t19.5 -47t30 -26.5t37.5 -8.5z" />
<glyph unicode="e" horiz-adv-x="479" d="M432 304q0 -33 -2.5 -55.5t-5.5 -39.5h-261q5 -62 38.5 -88.5t93.5 -26.5q24 0 43 4.5t33.5 11t24.5 13t15 10.5l29 -88l-17 -14.5t-31.5 -19t-51 -16.5t-73.5 -7q-50 0 -91.5 14.5t-71.5 45.5t-46.5 80.5t-16.5 118.5q0 65 17.5 112.5t48 78.5t71 46t85.5 15 q79 0 124 -49t45 -146zM251 401q-38 0 -62.5 -27t-26.5 -81h157q1 7 1 12.5v10.5q0 39 -18 62t-51 23z" />
<glyph unicode="f" horiz-adv-x="354" d="M330 387h-109v-387h-126v387h-66v86l66 12v42q0 97 46.5 145.5t133.5 48.5q35 0 55 -7t27 -11l-20 -100l-18 7t-30 5q-34 0 -51 -18.5t-17 -65.5v-44h121z" />
<glyph unicode="g" horiz-adv-x="505" d="M472 409h-59q20 -35 20 -77t-15 -73t-41.5 -52t-62 -31t-76.5 -10q-25 0 -47 3q-9 -5 -15.5 -14t-6.5 -21q0 -28 35 -28h105q79 0 123.5 -32t44.5 -101q0 -37 -17 -70.5t-51 -59t-85 -40.5t-118 -15q-97 0 -143 34t-46 94q0 24 8 42t19.5 31t25 22t24.5 15v2 q-29 23 -29 66q0 20 7.5 36t17 28t19.5 20t16 11v1q-37 20 -59 55t-22 87q0 43 15.5 74.5t41.5 52t61.5 30.5t76.5 10q40 0 75 -12h170zM192 4q-11 0 -21 0.5t-19 1.5q-11 -8 -19.5 -22t-8.5 -37q0 -36 24.5 -51.5t70.5 -15.5q72 0 108.5 22t36.5 55q0 25 -15 36t-53 11 h-104zM321 332q0 42 -24.5 60.5t-56.5 18.5q-33 0 -58.5 -18.5t-25.5 -60.5q0 -41 25 -59.5t57 -18.5q33 0 58 18t25 60z" />
<glyph unicode="h" horiz-adv-x="543" d="M357 0v288q0 54 -18.5 78.5t-59.5 24.5q-31 0 -53 -10.5t-36 -23.5v-357h-126v705l126 11v-276h2q7 8 18 18t27 19t38 15.5t51 6.5q77 0 117 -49.5t40 -140.5v-309h-126z" />
<glyph unicode="i" horiz-adv-x="254" d="M190 0h-126v487h126v-487zM200 642q0 -33 -20.5 -52.5t-52.5 -19.5q-33 0 -53.5 19.5t-20.5 52.5q0 34 20.5 53.5t53.5 19.5q32 0 52.5 -19.5t20.5 -53.5z" />
<glyph unicode="j" horiz-adv-x="254" d="M201 642q0 -33 -21 -52.5t-53 -19.5t-53 19.5t-21 52.5q0 34 21 53.5t53 19.5t53 -19.5t21 -53.5zM190 20q0 -118 -57.5 -174.5t-174.5 -57.5l-8 105q30 2 51.5 9t35.5 22.5t20.5 40t6.5 62.5v460h126v-467z" />
<glyph unicode="k" horiz-adv-x="503" d="M328 263l165 -263h-152l-116 196h-35v-196h-126v705l126 11v-418h33l118 189h140z" />
<glyph unicode="l" horiz-adv-x="289" d="M188 157q0 -39 10 -52.5t33 -13.5q13 0 22.5 2.5t14.5 4.5l8 -88q-8 -5 -29 -12t-55 -7q-30 0 -54.5 7.5t-41 25t-25.5 46t-9 69.5v566l126 11v-559z" />
<glyph unicode="m" horiz-adv-x="811" d="M180 433h2q7 9 18 20.5t27.5 21.5t39 17t51.5 7q85 0 125 -66q9 10 22 22t30.5 21.5t40 16t51.5 6.5q85 0 124.5 -48.5t39.5 -141.5v-309h-126v288q0 55 -18.5 79t-60.5 24q-28 0 -47 -10t-32 -22q2 -11 3 -23.5t1 -26.5v-309h-126v288q0 55 -16.5 79t-54.5 24 q-29 0 -49.5 -10.5t-34.5 -23.5v-357h-126v487h116v-54z" />
<glyph unicode="n" horiz-adv-x="543" d="M357 0v288q0 54 -18.5 78.5t-59.5 24.5q-31 0 -53 -10.5t-36 -23.5v-357h-126v487h116v-54h2q7 9 18.5 20.5t28.5 21.5t40.5 17t53.5 7q78 0 119 -49.5t41 -140.5v-309h-126z" />
<glyph unicode="o" horiz-adv-x="527" d="M487 244q0 -65 -19 -113t-50.5 -79.5t-72.5 -47.5t-85 -16q-46 0 -86 15t-70 46.5t-47 80t-17 114.5q0 64 19 112t50.5 80t72.5 47.5t85 15.5q46 0 86.5 -15t70 -46t46.5 -79.5t17 -114.5zM358 244q0 40 -7.5 68.5t-20.5 45.5t-30 25t-36 8q-39 0 -67 -34t-28 -113 q0 -81 28 -114.5t67 -33.5q19 0 36.5 8t30 26t20 46t7.5 68z" />
<glyph unicode="p" horiz-adv-x="540" d="M499 255q0 -66 -16 -116t-45.5 -83t-71 -50t-92.5 -17q-29 0 -49.5 5.5t-34.5 13.5v-208h-126v687h116v-54h2q6 9 17 20t28 21.5t39.5 17.5t51.5 7q40 0 73.5 -15t57.5 -45t37 -76t13 -108zM271 391q-28 0 -48 -8.5t-33 -19.5v-257q11 -7 26 -11.5t35 -4.5q57 0 88 37 t31 122q0 77 -27 109.5t-72 32.5z" />
<glyph unicode="q" horiz-adv-x="537" d="M41 241q0 69 20 118t52.5 80t73.5 45.5t82 14.5q25 0 44 -3.5t32.5 -9.5t23 -12.5l17.5 -12.5l26 26h61v-687h-126v233h-2q-6 -6 -15 -13.5t-22.5 -14.5t-33 -12t-46.5 -5q-39 0 -73 15t-59.5 45.5t-40 78.5t-14.5 114zM170 243q0 -80 27 -113.5t71 -33.5q29 0 48 9 t31 17v262q-10 5 -23.5 10t-35.5 5q-25 0 -46.5 -8.5t-37.5 -27t-25 -48.5t-9 -72z" />
<glyph unicode="r" horiz-adv-x="358" d="M334 382q-3 2 -12.5 4t-24.5 2q-42 0 -68 -15t-39 -35v-338h-126v487h116v-68h2q17 33 44.5 55t76.5 22q14 0 24.5 -1.5t15.5 -2.5z" />
<glyph unicode="s" horiz-adv-x="406" d="M323 363q-5 4 -14.5 10t-22 12t-29 10t-35.5 4q-32 0 -48.5 -10t-16.5 -24q0 -19 14.5 -30.5t48.5 -28.5l29 -14q28 -14 50.5 -28.5t38.5 -33t25 -41t9 -52.5q0 -68 -46.5 -108.5t-137.5 -40.5q-33 0 -58 5.5t-44 13t-32 16.5t-22 17l39 102q7 -7 18 -16t25.5 -16.5 t32 -13t37.5 -5.5q32 0 51.5 9.5t19.5 26.5q0 11 -4 19t-12.5 15t-22 14l-32.5 17l-29 15q-51 25 -80.5 59.5t-29.5 92.5q0 32 13 58t36.5 44t55 28t69.5 10q30 0 53 -5t39.5 -12t27.5 -14.5t17 -12.5z" />
<glyph unicode="t" horiz-adv-x="364" d="M327 387h-112v-197q0 -54 15 -74t50 -20q17 0 31 3.5t20 5.5l9 -93q-8 -4 -29.5 -13t-63.5 -9q-41 0 -70.5 10t-49 32.5t-29 58t-9.5 87.5v209h-66v86l66 12l14 136h112v-134h123z" />
<glyph unicode="u" horiz-adv-x="538" d="M474 0h-115v55h-2q-7 -9 -18 -20.5t-27.5 -22t-39.5 -17.5t-54 -7q-78 0 -118 49t-40 141v309h126v-287q0 -56 17.5 -80t58.5 -24q31 0 51.5 10t34.5 23v358h126v-487z" />
<glyph unicode="v" horiz-adv-x="468" d="M286 0h-104l-176 487h136l98 -324h2l95 324h125z" />
<glyph unicode="w" horiz-adv-x="728" d="M552 0h-104l-78 227h-2l-88 -227h-104l-169 487h136l94 -325h2l83 203l-42 122h124l100 -325h2l91 325h124z" />
<glyph unicode="x" horiz-adv-x="464" d="M296 254l156 -254h-146l-78 146h-2l-79 -146h-135l155 245l-146 242h143l70 -136h2l74 136h133z" />
<glyph unicode="y" horiz-adv-x="469" d="M298 6q-20 -59 -40 -99.5t-45 -65.5t-56 -36t-74 -11q-21 0 -33.5 3.5t-15.5 5.5v106q3 -2 14 -4.5t27 -2.5q48 0 71 22.5t35 62.5l5 18l-181 482h137l101 -325h2l91 325h125z" />
<glyph unicode="z" horiz-adv-x="443" d="M395 413l-194 -311v-2h210l-11 -100h-365v74l202 311v2h-189v100h347v-74z" />
<glyph unicode="{" horiz-adv-x="306" d="M274 675q-18 0 -31.5 -4.5t-22.5 -15t-13.5 -29.5t-4.5 -49v-167q0 -27 -7.5 -46t-20 -31.5t-28.5 -19t-33 -7.5v-2q35 -2 62 -26t27 -78v-169q0 -30 4.5 -49t13.5 -29.5t22.5 -14.5t31.5 -4v-80q-33 0 -64 6.5t-55 24t-38.5 49.5t-14.5 83v177q0 40 -21.5 55t-59.5 16 v80q38 0 59.5 16t21.5 55v177q0 51 14.5 82.5t38.5 49.5t55 24.5t64 6.5v-81z" />
<glyph unicode="|" horiz-adv-x="232" d="M66 -140v890h100v-890h-100z" />
<glyph unicode="}" horiz-adv-x="306" d="M32 -65q18 0 31.5 4.5t22.5 15t13.5 29.5t4.5 49v167q0 27 7.5 46t20 31.5t28.5 19t33 7.5v2q-35 2 -62 26t-27 78v169q0 30 -4.5 49t-13.5 29.5t-22.5 14.5t-31.5 4v80q33 0 64 -6.5t55 -24t38.5 -49.5t14.5 -83v-177q0 -40 21.5 -55t59.5 -16v-80q-38 0 -59.5 -16 t-21.5 -55v-177q0 -51 -14.5 -82.5t-38.5 -49.5t-55 -24.5t-64 -6.5v81z" />
<glyph unicode="~" d="M460 390q0 -36 -6 -67t-19.5 -53.5t-35.5 -35t-55 -12.5q-27 0 -51.5 11t-46.5 23.5l-42 23.5t-39 11q-27 0 -35.5 -18t-10.5 -43h-75q0 36 6 66.5t19.5 53t35.5 35.5t55 13q27 0 51 -10.5t46 -23.5t42.5 -23.5t39.5 -10.5q27 0 35.5 18t10.5 42h75v0z" />
<glyph unicode="&#xa1;" horiz-adv-x="259" d="M71.0117 263.014h116.993l16.999 -462.972h-150.991zM53.0127 428.004q0 34.998 20.999 54.4961q20.998 19.499 54.9961 19.499q34.998 0 55.4971 -19.499q20.499 -19.498 20.499 -54.4961t-20.499 -54.9971q-20.499 -19.998 -55.4971 -19.998q-33.998 0 -54.9961 19.998 q-20.999 19.999 -20.999 54.9971z" />
<glyph unicode="&#xa2;" horiz-adv-x="470" d="M392 361q-9 8 -30.5 19.5t-55.5 11.5q-28 0 -52 -8t-42 -25.5t-28 -44.5t-10 -66q0 -42 9 -71t24.5 -47t37 -26t47.5 -8q40 0 63.5 11t37.5 22l36 -89q-8 -7 -19.5 -16t-30 -17t-44.5 -14l-10 -2v-101h-98v101q-24 3 -46 11q-42 14 -72 44.5t-47 80t-17 121.5 q0 65 21.5 112.5t57 78t79.5 45.5q12 4 24 7v107h98v-100q11 -2 21 -4q22 -4 38.5 -10.5t26.5 -13.5l17 -11z" />
<glyph unicode="&#xa3;" horiz-adv-x="474" d="M371 255h-112v-11q0 -27 -6 -48.5t-15.5 -38.5t-21 -30.5l-21.5 -24.5v-2h237v-100h-375l-10 80q16 12 32.5 27t30.5 34.5t23 44t9 56.5q0 3 -0.5 6t-0.5 7h-77v91h57q-10 27 -19 56.5t-9 71.5q0 48 16 83t42.5 58.5t61.5 34.5t73 11q28 0 49.5 -4t37 -9.5t26 -12 t17.5 -11.5l-34 -94q-10 7 -30 16t-54 9q-38 0 -61.5 -21t-23.5 -69q0 -37 8.5 -64.5l17.5 -54.5h132v-91z" />
<glyph unicode="&#xa4;" horiz-adv-x="593" d="M471 396q14 -24 22.5 -52.5t8.5 -59.5q0 -62 -31 -112l78 -76l-59 -61l-76 76q-25 -17 -54.5 -26t-63.5 -9t-64 9t-55 26l-74 -76l-59 61l77 75q-31 50 -31 113q0 62 31 112l-77 76l59 61l75 -77q25 17 54.5 26t63.5 9q33 0 63 -9t55 -26l76 77l59 -61zM402 284 q0 47 -29 77.5t-77 30.5t-76.5 -30.5t-28.5 -77.5t28.5 -77.5t76.5 -30.5t77 30.5t29 77.5z" />
<glyph unicode="&#xa5;" horiz-adv-x="586" d="M391 343h116v-70h-146v-60h146v-70h-146v-143h-134v143h-147v70h147v60h-147v70h117l-159 307h152l107 -234h2l105 234h144z" />
<glyph unicode="&#xa6;" horiz-adv-x="236" d="M68 -139v384h100v-384h-100zM68 366v384h100v-384h-100z" />
<glyph unicode="&#xa7;" horiz-adv-x="511" d="M43 316q0 45 25 76t63 51q-11 19 -16 39.5t-5 44.5q0 27 11 51.5t32 43t51.5 29.5t69.5 11q56 0 85.5 -14t47.5 -27l-36 -90q-11 9 -33 21t-54 12q-29 0 -43.5 -11t-14.5 -27q0 -26 18 -40.5t52 -37.5l73 -50q50 -34 75.5 -70.5t25.5 -86.5q0 -45 -24.5 -75.5 t-64.5 -51.5q25 -38 25 -88q0 -27 -11.5 -52t-33 -44t-53.5 -30.5t-73 -11.5q-59 0 -94.5 17t-56.5 35l39 97q14 -15 40 -31.5t63 -16.5q32 0 46.5 9.5t14.5 26.5q0 23 -17.5 41t-54.5 44l-73 49q-48 34 -73.5 70.5t-25.5 86.5zM188 382q-15 -9 -24.5 -20.5t-9.5 -27.5 q0 -14 5 -25.5t14.5 -22t24 -22t34.5 -24.5l68 -47l23 -17q15 8 25 19.5t10 27.5q0 14 -4.5 25.5t-13.5 22t-23.5 21.5l-34.5 25l-69 47z" />
<glyph unicode="&#xa8;" horiz-adv-x="400" d="M171 625q0 -28 -17.5 -46.5t-46.5 -18.5t-47 18.5t-18 46.5q0 29 18 47.5t47 18.5t46.5 -18.5t17.5 -47.5zM358 625q0 -28 -18 -46.5t-47 -18.5t-47 18.5t-18 46.5q0 29 18 47.5t47 18.5t47 -18.5t18 -47.5z" />
<glyph unicode="&#xa9;" horiz-adv-x="773" d="M726 345q0 -80 -24.5 -146t-69 -113t-107 -72.5t-139.5 -25.5t-139.5 25.5t-106.5 72.5t-68.5 113t-24.5 146t24.5 145.5t68.5 112.5t106.5 73t139.5 26t139.5 -26t107 -73t69 -112.5t24.5 -145.5zM643 345q0 63 -18 115t-52 88.5t-81.5 56.5t-105.5 20q-59 0 -106 -20 t-80.5 -56.5t-51.5 -88.5t-18 -115q0 -64 18 -115.5t51.5 -88t80.5 -56.5t106 -20q58 0 105.5 20t81.5 56.5t52 88t18 115.5zM209 347q0 54 17.5 93t45.5 64t64 36.5t72 11.5q26 0 46 -5t34 -12t23 -14.5t13 -11.5l-32 -71q-11 9 -29.5 19.5t-48.5 10.5q-45 0 -74 -29 t-29 -90q0 -63 27.5 -92t72.5 -29q32 0 53.5 11.5t29.5 19.5l27 -70q-5 -5 -14.5 -12.5t-24.5 -14.5t-36.5 -12.5t-51.5 -5.5q-41 0 -75 11t-58.5 35.5t-38 63t-13.5 93.5z" />
<glyph unicode="&#xaa;" horiz-adv-x="366" d="M59 465q0 25 11 43.5t30.5 30.5t45.5 17.5t56 5.5h12v8q0 28 -12 41.5t-40 13.5q-29 0 -45.5 -11t-24.5 -19l-29 59q6 6 16 14t25 15.5t34.5 13t43.5 5.5q56 0 87 -32t31 -100v-104q0 -27 1.5 -48.5t3.5 -36.5h-81q-3 13 -3 35h-2q-6 -14 -23.5 -28.5t-49.5 -14.5 q-39 0 -63 25t-24 67zM56 329h250v-76h-250v76zM172 442q17 0 27 7t15 12v48l-14 -1q-29 -2 -43.5 -9.5t-14.5 -25.5q0 -31 30 -31z" />
<glyph unicode="&#xab;" horiz-adv-x="463" d="M166 88l-134 199l134 200h90l-106 -200l106 -199h-90zM339 88l-128 199l128 200h88l-99 -200l99 -199h-88z" />
<glyph unicode="&#xac;" d="M450 144h-100v120h-310v98h410v-218z" />
<glyph unicode="&#xad;" horiz-adv-x="393" d="M336 257h-279v100h279v-100z" />
<glyph unicode="&#xae;" horiz-adv-x="522" d="M477 480q0 -52 -16 -93.5t-45 -70t-68.5 -43.5t-86.5 -15t-86.5 15t-68.5 43.5t-45 70t-16 93.5t16 93.5t45 70t68.5 43.5t86.5 15t86.5 -15t68.5 -43.5t45 -70t16 -93.5zM420 480q0 84 -45 127t-114 43t-114 -44.5t-45 -125.5q0 -84 45 -127t114 -43t114 43t45 127z M293 374l-40 75h-8h-4v-75h-55v224h58q97 0 97 -74q0 -22 -10.5 -37.5t-27.5 -24.5l58 -88h-68zM283 521q0 16 -9 24t-23 8h-10v-64h8q16 0 25 9t9 23z" />
<glyph unicode="&#xaf;" horiz-adv-x="294" d="M268 575h-242v84h242v-84z" />
<glyph unicode="&#xb0;" horiz-adv-x="413" d="M378 489q0 -38 -12.5 -69.5t-35.5 -54t-54.5 -35.5t-68.5 -13q-38 0 -69.5 13t-54 35.5t-35.5 54t-13 69.5q0 37 13 69t35.5 55t54 36t69.5 13q37 0 68.5 -13t54.5 -36t35.5 -55t12.5 -69zM286 489q0 36 -22 59t-57 23t-57 -23t-22 -59t22 -59t57 -23t57 23t22 59z" />
<glyph unicode="&#xb1;" d="M456 363h-155v-159h-103v159h-155v99h155v159h103v-159h155v-99zM456 69h-413v98h413v-98z" />
<glyph unicode="&#xb2;" horiz-adv-x="331" d="M278 669q0 -31 -7.5 -56t-22.5 -49t-37.5 -47.5l-51.5 -51.5v-2h120v-73h-235l-6 48l75.5 84t43.5 56t20 40t5 35q0 58 -55 58q-26 0 -44 -12t-27 -20l-27 63l16 13t25.5 15t35.5 12t45 5q63 0 95 -32t32 -86z" />
<glyph unicode="&#xb3;" horiz-adv-x="315" d="M266 690q0 -40 -21 -63t-49 -34v-2q15 -4 29 -11.5t25 -19.5t18 -29t7 -39q0 -49 -33.5 -79t-101.5 -30q-26 0 -45.5 5.5t-33 13t-22 15.5l-12.5 12l33 70q7 -10 24 -23.5t46 -13.5q28 0 40.5 10.5t12.5 27.5q0 51 -80 51h-20l-6 65h12q49 0 69 13t20 38q0 18 -11.5 30.5 t-35.5 12.5q-27 0 -43 -10t-24 -18l-29 61q5 5 15.5 12.5t25.5 14.5t35 12t44 5q58 0 84.5 -27t26.5 -70z" />
<glyph unicode="&#xb4;" horiz-adv-x="207" d="M237 692l-128 -136h-110l94 138h144v-2z" />
<glyph unicode="&#xb5;" horiz-adv-x="587" d="M227 -12q-25 0 -42 4q2 -52 9.5 -98.5t21.5 -93.5h-121q-11 48 -16.5 117.5t-5.5 146.5v423h126v-291q0 -54 19 -77t58 -23q32 0 52.5 11t30.5 20v360h126v-350q0 -30 9 -40.5t26 -10.5q11 0 17 1.5t11 3.5l5 -89q-5 -2 -24 -7.5t-50 -5.5q-42 0 -69 13t-40 45 q-8 -9 -19 -19.5t-28.5 -19.5t-41 -14.5t-54.5 -5.5z" />
<glyph unicode="&#xb6;" horiz-adv-x="594" d="M353 0h-101v288h-13q-94 0 -149 53t-55 156q0 99 59.5 146t168.5 47h90v-690zM246 -72q49 1 81 6.5t51 21.5t26.5 43.5t7.5 72.5v618h101v-619q0 -62 -14.5 -105t-46 -70t-81.5 -39t-120 -12z" />
<glyph unicode="&#xb7;" horiz-adv-x="243" d="M197 306q0 -35 -20.5 -55.5t-55.5 -20.5q-34 0 -54.5 20.5t-20.5 55.5t20.5 56t54.5 21q35 0 55.5 -21t20.5 -56z" />
<glyph unicode="&#xb8;" horiz-adv-x="251" d="M228 -124q0 -42 -30.5 -64.5t-86.5 -22.5q-26 0 -43 5t-27 10v56q7 -5 20.5 -8t30.5 -3q43 0 43 29q0 17 -16.5 27t-58.5 10l-3 3l47 91h71l-31 -60q43 -2 63.5 -22.5t20.5 -50.5z" />
<glyph unicode="&#xb9;" horiz-adv-x="329" d="M217 461h77v-71h-247v71h76v231l-72 -23l-17 68l115 43h68v-319z" />
<glyph unicode="&#xba;" horiz-adv-x="413" d="M354 537q0 -43 -12 -74t-32 -51.5t-46.5 -30t-56.5 -9.5t-57 9.5t-47.5 30t-32 51.5t-11.5 74t12 74t32.5 51t47.5 30t57 10t56.5 -10t46.5 -30t31.5 -51t11.5 -74zM264 537q0 49 -15.5 69t-41.5 20t-41.5 -21t-15.5 -68q0 -49 15.5 -69t41.5 -20t41.5 21t15.5 68z M56 329h301v-76h-301v76z" />
<glyph unicode="&#xbb;" horiz-adv-x="462" d="M297 488l134 -199l-134 -200h-90l106 200l-106 199h90zM124 488l128 -199l-128 -200h-88l99 200l-99 199h88z" />
<glyph unicode="&#xbc;" horiz-adv-x="865" d="M289 0h-110l463 650h110zM223 331h77v-71h-247v71h76v231l-72 -23l-17 68l115 43h68v-319zM821 83h-32v-83h-88v83h-148l-6 62l167 245h75v-231h32v-76zM701 276h-2l-65 -117h67v117z" />
<glyph unicode="&#xbd;" horiz-adv-x="865" d="M268 0h-110l463 650h110zM223 331h77v-71h-247v71h76v231l-72 -23l-17 68l115 43h68v-319zM819 279q0 -31 -7.5 -56t-22.5 -49t-37.5 -47.5l-51.5 -51.5v-2h120v-73h-235l-6 48l75.5 84t43.5 56t20 40t5 35q0 58 -55 58q-26 0 -44 -12t-27 -20l-27 63l16 13t25.5 15 t35.5 12t45 5q63 0 95 -32t32 -86z" />
<glyph unicode="&#xbe;" horiz-adv-x="870" d="M270 0h-110l463 650h110zM825 83h-32v-83h-88v83h-148l-6 62l167 245h75v-231h32v-76zM705 276h-2l-65 -117h67v117zM278 560q0 -40 -21 -63t-49 -34v-2q15 -4 29 -11.5t25 -19.5t18 -29t7 -39q0 -49 -33.5 -79t-101.5 -30q-26 0 -45.5 5.5t-33 13t-22 15.5l-12.5 12 l33 70q7 -10 24 -23.5t46 -13.5q28 0 40.5 10.5t12.5 27.5q0 51 -80 51h-20l-6 65h12q49 0 69 13t20 38q0 18 -11.5 30.5t-35.5 12.5q-27 0 -43 -10t-24 -18l-29 61q5 5 15.5 12.5t25.5 14.5t35 12t44 5q58 0 84.5 -27t26.5 -70z" />
<glyph unicode="&#xbf;" horiz-adv-x="407" d="M133.017 428.004q0 34.998 20.999 54.4961q20.999 19.499 54.9971 19.499q34.9971 0 55.4961 -19.499q20.499 -19.498 20.499 -54.4961t-20.499 -54.9971q-20.499 -19.998 -55.4961 -19.998q-33.998 0 -54.9971 19.998q-20.999 19.999 -20.999 54.9971zM42.0225 -46.9668 q0 48.9961 18.999 79.4951q18.999 30.498 41.9971 55.4961q22.999 24.999 41.998 49.9971t18.999 62.9961q0 22.999 -4.5 37.998t-9.5 23.998h114.993q7 -12.999 14.999 -33.498q8 -20.498 8 -49.4971q0 -36.9971 -16.499 -62.9961q-16.499 -25.998 -36.498 -48.4971 q-19.999 -22.498 -36.498 -44.9971q-16.499 -22.498 -16.499 -51.4971q0 -70.9951 64.9961 -70.9951q18.999 0 34.498 4q15.499 3.99902 27.498 9.99902q12 6 20.499 11.999q8.5 6 12.499 10l34.998 -94.9951q-8.99902 -6.99902 -23.498 -16.498 q-14.499 -9.5 -34.498 -17.999q-19.999 -8.5 -46.4971 -13.999q-26.499 -5.5 -61.4961 -5.5q-42.998 0 -74.9961 12.499t-52.9961 34.498q-20.999 21.999 -30.999 52.4971q-9.99902 30.498 -9.99902 65.4961z" />
<glyph unicode="&#xc0;" horiz-adv-x="621" d="M471 0l-60 186h-213l-60 -186h-134l254 690h105l253 -690h-145zM306 518h-2l-76 -236h154zM258 741l-124 120v2h144l92 -122h-112z" />
<glyph unicode="&#xc1;" horiz-adv-x="621" d="M471 0l-60 186h-213l-60 -186h-134l254 690h105l253 -690h-145zM306 518h-2l-76 -236h154zM477 861l-125 -120h-111l90 122h146v-2z" />
<glyph unicode="&#xc2;" horiz-adv-x="621" d="M471 0l-60 186h-213l-60 -186h-134l254 690h105l253 -690h-145zM306 518h-2l-76 -236h154zM360 742l-54 61h-2l-53 -61h-92l78 121h136l78 -121h-91z" />
<glyph unicode="&#xc3;" horiz-adv-x="621" d="M471 0l-60 186h-213l-60 -186h-134l254 690h105l253 -690h-145zM306 518h-2l-76 -236h154zM454 850q-2 -57 -21.5 -84t-62.5 -27q-21 0 -38 6t-32 13l-28.5 13t-27.5 6q-15 0 -21 -9t-7 -26h-60q1 112 84 112q21 0 38 -6t32 -13l28.5 -13t27.5 -6q26 0 28 34h60v0z" />
<glyph unicode="&#xc4;" horiz-adv-x="621" d="M471 0l-60 186h-213l-60 -186h-134l254 690h105l253 -690h-145zM306 518h-2l-76 -236h154zM267 799q0 -28 -18 -45t-47 -17t-47 17t-18 45q0 29 18 46t47 17t47 -17t18 -46zM473 799q0 -28 -18 -45t-47 -17t-47 17t-18 45q0 29 18 46t47 17t47 -17t18 -46z" />
<glyph unicode="&#xc5;" horiz-adv-x="621" d="M471 0l-60 186h-213l-60 -186h-134l254 690h105l253 -690h-145zM306 518h-2l-76 -236h154zM400 812q0 -38 -27 -61.5t-68 -23.5t-68 23.5t-27 61.5q0 39 27 62t68 23t68 -23t27 -62zM340 812q0 16 -10.5 23t-24.5 7t-24.5 -7t-10.5 -23q0 -15 10.5 -22t24.5 -7t24.5 7 t10.5 22z" />
<glyph unicode="&#xc6;" horiz-adv-x="778" d="M710 580h-301l61 -177h221v-110h-183l63 -183h172l-8 -110h-264l-60 186h-213l-60 -186h-134l254 690h460zM306 518h-2l-76 -236h154z" />
<glyph unicode="&#xc7;" horiz-adv-x="604" d="M445 -124q0 -42 -30.5 -64.5t-86.5 -22.5q-26 0 -43 5t-27 10v56q7 -5 20.5 -8t30.5 -3q43 0 43 29q0 17 -16.5 27t-58.5 10l-3 3l37 73q-39 5 -75 16q-57 20 -98.5 62.5t-65 111t-23.5 166.5q0 95 29 162.5t76.5 110t108 62.5t123.5 20q44 0 76.5 -8t55 -19t36.5 -22 l22 -17l-47 -101q-8 7 -20 16t-29 17.5t-39 14.5t-49 6q-42 0 -79 -13.5t-64 -42.5t-43 -74.5t-16 -109.5q0 -66 13.5 -113t38 -77t60 -44t79.5 -14q31 0 55.5 5.5t43 14t31.5 17.5t21 16l36 -95q-8 -8 -23 -20t-39.5 -23t-59.5 -19q-28 -7 -65 -9l-20 -39q43 -2 63.5 -22.5 t20.5 -50.5z" />
<glyph unicode="&#xc8;" horiz-adv-x="542" d="M473 580h-259v-177h240v-110h-240v-183h292l-8 -110h-418v690h401zM234 741l-124 120v2h144l92 -122h-112z" />
<glyph unicode="&#xc9;" horiz-adv-x="542" d="M473 580h-259v-177h240v-110h-240v-183h292l-8 -110h-418v690h401zM452 861l-125 -120h-111l90 122h146v-2z" />
<glyph unicode="&#xca;" horiz-adv-x="542" d="M473 580h-259v-177h240v-110h-240v-183h292l-8 -110h-418v690h401zM336 742l-54 61h-2l-53 -61h-92l78 121h136l78 -121h-91z" />
<glyph unicode="&#xcb;" horiz-adv-x="542" d="M473 580h-259v-177h240v-110h-240v-183h292l-8 -110h-418v690h401zM243 799q0 -28 -18 -45t-47 -17t-47 17t-18 45q0 29 18 46t47 17t47 -17t18 -46zM449 799q0 -28 -18 -45t-47 -17t-47 17t-18 45q0 29 18 46t47 17t47 -17t18 -46z" />
<glyph unicode="&#xcc;" horiz-adv-x="392" d="M129 593h-82v97h298v-97h-82v-496h83v-97h-300v97h83v496zM149 741l-124 120v2h144l92 -122h-112z" />
<glyph unicode="&#xcd;" horiz-adv-x="392" d="M129 593h-82v97h298v-97h-82v-496h83v-97h-300v97h83v496zM367 861l-125 -120h-111l90 122h146v-2z" />
<glyph unicode="&#xce;" horiz-adv-x="392" d="M129 593h-82v97h298v-97h-82v-496h83v-97h-300v97h83v496zM251 742l-54 61h-2l-53 -61h-92l78 121h136l78 -121h-91z" />
<glyph unicode="&#xcf;" horiz-adv-x="392" d="M129 593h-82v97h298v-97h-82v-496h83v-97h-300v97h83v496zM159 799q0 -28 -18 -45t-47 -17t-47 17t-18 45q0 29 18 46t47 17t47 -17t18 -46zM365 799q0 -28 -18 -45t-47 -17t-47 17t-18 45q0 29 18 46t47 17t47 -17t18 -46z" />
<glyph unicode="&#xd0;" horiz-adv-x="693" d="M96 0v296h-70v104h70v290h165q98 0 170 -19t119 -59.5t70 -104t23 -152.5q0 -93 -27 -160.5t-78 -110.5t-123.5 -63.5t-162.5 -20.5h-156zM230 579v-179h136v-104h-136v-185h22q61 0 108 13t79 42.5t48 76t16 112.5q0 62 -15.5 105t-45.5 69.5t-75.5 38t-105.5 11.5h-31z " />
<glyph unicode="&#xd1;" horiz-adv-x="695" d="M615 0h-115l-284 431h-2v-431h-134v690h115l284 -428h2v428h134v-690zM492 850q-2 -57 -21.5 -84t-62.5 -27q-21 0 -38 6t-32 13l-28.5 13t-27.5 6q-15 0 -21 -9t-7 -26h-60q1 112 84 112q21 0 38 -6t32 -13l28.5 -13t27.5 -6q26 0 28 34h60v0z" />
<glyph unicode="&#xd2;" horiz-adv-x="724" d="M676 345q0 -88 -23 -155t-65 -112t-99.5 -67.5t-126.5 -22.5t-127 22.5t-99.5 67.5t-64.5 112t-23 155t23.5 155t65 112t99.5 67.5t127 22.5t126.5 -22.5t99 -67.5t64.5 -112t23 -155zM536 345q0 124 -46.5 184t-126.5 60q-82 0 -128 -59.5t-46 -184.5q0 -123 46 -183.5 t128 -60.5q81 0 127 60.5t46 183.5zM315 741l-124 120v2h144l92 -122h-112z" />
<glyph unicode="&#xd3;" horiz-adv-x="724" d="M676 345q0 -88 -23 -155t-65 -112t-99.5 -67.5t-126.5 -22.5t-127 22.5t-99.5 67.5t-64.5 112t-23 155t23.5 155t65 112t99.5 67.5t127 22.5t126.5 -22.5t99 -67.5t64.5 -112t23 -155zM536 345q0 124 -46.5 184t-126.5 60q-82 0 -128 -59.5t-46 -184.5q0 -123 46 -183.5 t128 -60.5q81 0 127 60.5t46 183.5zM534 861l-125 -120h-111l90 122h146v-2z" />
<glyph unicode="&#xd4;" horiz-adv-x="724" d="M676 345q0 -88 -23 -155t-65 -112t-99.5 -67.5t-126.5 -22.5t-127 22.5t-99.5 67.5t-64.5 112t-23 155t23.5 155t65 112t99.5 67.5t127 22.5t126.5 -22.5t99 -67.5t64.5 -112t23 -155zM536 345q0 124 -46.5 184t-126.5 60q-82 0 -128 -59.5t-46 -184.5q0 -123 46 -183.5 t128 -60.5q81 0 127 60.5t46 183.5zM417 742l-54 61h-2l-53 -61h-92l78 121h136l78 -121h-91z" />
<glyph unicode="&#xd5;" horiz-adv-x="724" d="M676 345q0 -88 -23 -155t-65 -112t-99.5 -67.5t-126.5 -22.5t-127 22.5t-99.5 67.5t-64.5 112t-23 155t23.5 155t65 112t99.5 67.5t127 22.5t126.5 -22.5t99 -67.5t64.5 -112t23 -155zM536 345q0 124 -46.5 184t-126.5 60q-82 0 -128 -59.5t-46 -184.5q0 -123 46 -183.5 t128 -60.5q81 0 127 60.5t46 183.5zM511 850q-2 -57 -21.5 -84t-62.5 -27q-21 0 -38 6t-32 13l-28.5 13t-27.5 6q-15 0 -21 -9t-7 -26h-60q1 112 84 112q21 0 38 -6t32 -13l28.5 -13t27.5 -6q26 0 28 34h60v0z" />
<glyph unicode="&#xd6;" horiz-adv-x="724" d="M676 345q0 -88 -23 -155t-65 -112t-99.5 -67.5t-126.5 -22.5t-127 22.5t-99.5 67.5t-64.5 112t-23 155t23.5 155t65 112t99.5 67.5t127 22.5t126.5 -22.5t99 -67.5t64.5 -112t23 -155zM536 345q0 124 -46.5 184t-126.5 60q-82 0 -128 -59.5t-46 -184.5q0 -123 46 -183.5 t128 -60.5q81 0 127 60.5t46 183.5zM324 799q0 -28 -18 -45t-47 -17t-47 17t-18 45q0 29 18 46t47 17t47 -17t18 -46zM530 799q0 -28 -18 -45t-47 -17t-47 17t-18 45q0 29 18 46t47 17t47 -17t18 -46z" />
<glyph unicode="&#xd7;" d="M319 312l124 -123l-70 -70l-123 124l-123 -124l-70 70l122 123l-122 124l70 68l123 -124l123 124l70 -68z" />
<glyph unicode="&#xd8;" horiz-adv-x="724" d="M589 611q42 -45 64.5 -111.5t22.5 -154.5t-23 -155t-65 -112t-99.5 -67.5t-126.5 -22.5q-100 0 -173 46l-48 -70h-86l80 115q-42 45 -64.5 111.5t-22.5 154.5t23.5 155t65 112t99.5 67.5t127 22.5q49 0 92.5 -11.5t79.5 -34.5l48 70h86zM536 345q0 47 -7 84t-20 66 l-250 -360q41 -34 104 -34q81 0 127 60.5t46 183.5zM189 345q0 -92 26 -150l250 360q-41 34 -102 34q-82 0 -128 -59.5t-46 -184.5z" />
<glyph unicode="&#xd9;" horiz-adv-x="681" d="M608 289q0 -301 -272 -301q-137 0 -200 72.5t-63 228.5v401h134v-405q0 -97 32.5 -140.5t101.5 -43.5q72 0 105 43t33 141v405h129v-401zM293 741l-124 120v2h144l92 -122h-112z" />
<glyph unicode="&#xda;" horiz-adv-x="681" d="M608 289q0 -301 -272 -301q-137 0 -200 72.5t-63 228.5v401h134v-405q0 -97 32.5 -140.5t101.5 -43.5q72 0 105 43t33 141v405h129v-401zM511 861l-125 -120h-111l90 122h146v-2z" />
<glyph unicode="&#xdb;" horiz-adv-x="681" d="M608 289q0 -301 -272 -301q-137 0 -200 72.5t-63 228.5v401h134v-405q0 -97 32.5 -140.5t101.5 -43.5q72 0 105 43t33 141v405h129v-401zM395 742l-54 61h-2l-53 -61h-92l78 121h136l78 -121h-91z" />
<glyph unicode="&#xdc;" horiz-adv-x="681" d="M608 289q0 -301 -272 -301q-137 0 -200 72.5t-63 228.5v401h134v-405q0 -97 32.5 -140.5t101.5 -43.5q72 0 105 43t33 141v405h129v-401zM302 799q0 -28 -18 -45t-47 -17t-47 17t-18 45q0 29 18 46t47 17t47 -17t18 -46zM508 799q0 -28 -18 -45t-47 -17t-47 17t-18 45 q0 29 18 46t47 17t47 -17t18 -46z" />
<glyph unicode="&#xdd;" horiz-adv-x="577" d="M356 263v-263h-134v262l-221 428h151l140 -297h2l138 297h143zM465 861l-125 -120h-111l90 122h146v-2z" />
<glyph unicode="&#xde;" horiz-adv-x="576" d="M541 369q0 -56 -19.5 -100.5t-57 -76t-91.5 -48.5t-124 -17h-35v-127h-134v690h134v-94h40q148 0 217.5 -59t69.5 -168zM400 365q0 58 -35.5 89.5t-110.5 31.5h-40v-248h35q78 0 114.5 32.5t36.5 94.5z" />
<glyph unicode="&#xdf;" horiz-adv-x="580" d="M554 141q0 -31 -11.5 -59t-34 -49t-54.5 -33t-74 -12q-53 0 -85 15t-46 26l32 102q12 -11 35 -25.5t58 -14.5q32 0 46.5 12t14.5 27q0 19 -12 35t-52 39q-22 13 -41 26.5t-33.5 30t-22.5 37.5t-8 49q0 36 16 61.5t34.5 47.5l34.5 42.5t16 46.5q0 32 -21 52.5t-57 20.5 q-42 0 -70.5 -26.5t-28.5 -83.5v-508h-126v496q0 60 20 103t52 70t73.5 40t84.5 13q42 0 76 -12t58.5 -34.5t37.5 -53.5t13 -68q0 -41 -14 -68t-30.5 -47.5l-30.5 -37t-14 -35.5q0 -21 11 -34t43 -33q58 -35 84 -71t26 -87z" />
<glyph unicode="&#xe0;" horiz-adv-x="463" d="M37 134q0 38 17.5 66t47.5 46t70.5 27t87.5 9h20v17q0 95 -82 95q-23 0 -41 -5t-32.5 -12.5t-25 -15.5t-16.5 -14l-39 80q9 9 24 21.5t37 23.5t51.5 19t67.5 8q86 0 132 -49t46 -155v-164q0 -42 2.5 -75t5.5 -56h-116q-1 11 -2 25.5t-1 28.5h-2q-6 -11 -15.5 -23 t-23 -21.5t-32.5 -15.5t-45 -6q-60 0 -98 40t-38 106zM209 86q27 0 43.5 9.5t27.5 20.5v90l-25 -1q-49 -3 -74 -16.5t-25 -42.5q0 -26 15 -43t38 -17zM176 556l-127 136v2h143l94 -138h-110z" />
<glyph unicode="&#xe1;" horiz-adv-x="463" d="M37 134q0 38 17.5 66t47.5 46t70.5 27t87.5 9h20v17q0 95 -82 95q-23 0 -41 -5t-32.5 -12.5t-25 -15.5t-16.5 -14l-39 80q9 9 24 21.5t37 23.5t51.5 19t67.5 8q86 0 132 -49t46 -155v-164q0 -42 2.5 -75t5.5 -56h-116q-1 11 -2 25.5t-1 28.5h-2q-6 -11 -15.5 -23 t-23 -21.5t-32.5 -15.5t-45 -6q-60 0 -98 40t-38 106zM209 86q27 0 43.5 9.5t27.5 20.5v90l-25 -1q-49 -3 -74 -16.5t-25 -42.5q0 -26 15 -43t38 -17zM400 692l-128 -136h-110l94 138h144v-2z" />
<glyph unicode="&#xe2;" horiz-adv-x="463" d="M37 134q0 38 17.5 66t47.5 46t70.5 27t87.5 9h20v17q0 95 -82 95q-23 0 -41 -5t-32.5 -12.5t-25 -15.5t-16.5 -14l-39 80q9 9 24 21.5t37 23.5t51.5 19t67.5 8q86 0 132 -49t46 -155v-164q0 -42 2.5 -75t5.5 -56h-116q-1 11 -2 25.5t-1 28.5h-2q-6 -11 -15.5 -23 t-23 -21.5t-32.5 -15.5t-45 -6q-60 0 -98 40t-38 106zM209 86q27 0 43.5 9.5t27.5 20.5v90l-25 -1q-49 -3 -74 -16.5t-25 -42.5q0 -26 15 -43t38 -17zM284 555l-59 75h-2l-60 -75h-89l81 142h137l81 -142h-89z" />
<glyph unicode="&#xe3;" horiz-adv-x="463" d="M37 134q0 38 17.5 66t47.5 46t70.5 27t87.5 9h20v17q0 95 -82 95q-23 0 -41 -5t-32.5 -12.5t-25 -15.5t-16.5 -14l-39 80q9 9 24 21.5t37 23.5t51.5 19t67.5 8q86 0 132 -49t46 -155v-164q0 -42 2.5 -75t5.5 -56h-116q-1 11 -2 25.5t-1 28.5h-2q-6 -11 -15.5 -23 t-23 -21.5t-32.5 -15.5t-45 -6q-60 0 -98 40t-38 106zM209 86q27 0 43.5 9.5t27.5 20.5v90l-25 -1q-49 -3 -74 -16.5t-25 -42.5q0 -26 15 -43t38 -17zM373 683q0 -57 -19 -90.5t-65 -33.5q-21 0 -38.5 7.5t-32 16l-28 16t-26.5 7.5q-16 0 -21.5 -11t-7.5 -30h-60 q0 57 18.5 90t65.5 33q21 0 38 -7t32 -16t28.5 -16t26.5 -7q15 0 21.5 10.5t7.5 30.5h60v0z" />
<glyph unicode="&#xe4;" horiz-adv-x="463" d="M37 134q0 38 17.5 66t47.5 46t70.5 27t87.5 9h20v17q0 95 -82 95q-23 0 -41 -5t-32.5 -12.5t-25 -15.5t-16.5 -14l-39 80q9 9 24 21.5t37 23.5t51.5 19t67.5 8q86 0 132 -49t46 -155v-164q0 -42 2.5 -75t5.5 -56h-116q-1 11 -2 25.5t-1 28.5h-2q-6 -11 -15.5 -23 t-23 -21.5t-32.5 -15.5t-45 -6q-60 0 -98 40t-38 106zM209 86q27 0 43.5 9.5t27.5 20.5v90l-25 -1q-49 -3 -74 -16.5t-25 -42.5q0 -26 15 -43t38 -17zM195 625q0 -28 -17.5 -46.5t-46.5 -18.5t-47 18.5t-18 46.5q0 29 18 47.5t47 18.5t46.5 -18.5t17.5 -47.5zM382 625 q0 -28 -18 -46.5t-47 -18.5t-47 18.5t-18 46.5q0 29 18 47.5t47 18.5t47 -18.5t18 -47.5z" />
<glyph unicode="&#xe5;" horiz-adv-x="463" d="M37 134q0 38 17.5 66t47.5 46t70.5 27t87.5 9h20v17q0 95 -82 95q-23 0 -41 -5t-32.5 -12.5t-25 -15.5t-16.5 -14l-39 80q9 9 24 21.5t37 23.5t51.5 19t67.5 8q86 0 132 -49t46 -155v-164q0 -42 2.5 -75t5.5 -56h-116q-1 11 -2 25.5t-1 28.5h-2q-6 -11 -15.5 -23 t-23 -21.5t-32.5 -15.5t-45 -6q-60 0 -98 40t-38 106zM209 86q27 0 43.5 9.5t27.5 20.5v90l-25 -1q-49 -3 -74 -16.5t-25 -42.5q0 -26 15 -43t38 -17zM318 639q0 -41 -26 -65.5t-68 -24.5t-68 24.5t-26 65.5q0 42 26 66t68 24t68 -24t26 -66zM257 639q0 17 -9.5 26t-23.5 9 t-24 -9t-10 -26t10 -26t24 -9t23.5 9t9.5 26z" />
<glyph unicode="&#xe6;" horiz-adv-x="717" d="M671 303q0 -34 -2.5 -56.5t-5.5 -39.5h-261q6 -60 39 -86.5t93 -26.5q24 0 43 4.5t33.5 11t24.5 13t15 10.5l29 -88l-17 -14.5t-31.5 -19t-51 -16.5t-73.5 -7q-54 0 -98.5 17t-75.5 55q-8 -12 -21 -24.5t-31.5 -23t-43 -17.5t-55.5 -7q-69 0 -106.5 40.5t-37.5 105.5 q0 38 17.5 66.5t47.5 47t70.5 28t87.5 9.5h20v14q0 95 -82 95q-23 0 -41 -5t-32.5 -12.5t-25 -15.5t-16.5 -14l-39 80q9 9 24 21.5t37 23.5t51.5 19t67.5 8q51 0 82.5 -19t48.5 -50h2q57 69 148 69q77 0 121.5 -49t44.5 -147zM490 401q-38 0 -62.5 -27t-26.5 -83h157 q1 6 1 12v11q0 42 -18 64.5t-51 22.5zM212 86q32 0 53 14t32 26q-11 34 -16 82l-26 -1q-99 -5 -99 -60q0 -26 15 -43.5t41 -17.5z" />
<glyph unicode="&#xe7;" horiz-adv-x="452" d="M353 -124q0 -42 -30.5 -64.5t-86.5 -22.5q-26 0 -43 5t-27 10v56q7 -5 20.5 -8t30.5 -3q43 0 43 29q0 17 -16.5 27t-58.5 10l-3 3l38 74q-23 3 -44 10q-42 14 -72 44.5t-47 80t-17 121.5q0 65 21.5 112.5t57 78t80 45.5t91.5 15q29 0 51 -4.5t38.5 -11t26.5 -13.5l17 -11 l-36 -98q-9 8 -30.5 19.5t-55.5 11.5q-28 0 -52 -8t-42 -25.5t-28 -44.5t-10 -66q0 -42 9 -71t24.5 -47t37 -26t47.5 -8q40 0 63.5 11t37.5 22l36 -89q-8 -7 -19.5 -16t-30 -17t-44.5 -13q-18 -4 -41 -5l-20 -40q43 -2 63.5 -22.5t20.5 -50.5z" />
<glyph unicode="&#xe8;" horiz-adv-x="479" d="M432 304q0 -33 -2.5 -55.5t-5.5 -39.5h-261q5 -62 38.5 -88.5t93.5 -26.5q24 0 43 4.5t33.5 11t24.5 13t15 10.5l29 -88l-17 -14.5t-31.5 -19t-51 -16.5t-73.5 -7q-50 0 -91.5 14.5t-71.5 45.5t-46.5 80.5t-16.5 118.5q0 65 17.5 112.5t48 78.5t71 46t85.5 15 q79 0 124 -49t45 -146zM251 401q-38 0 -62.5 -27t-26.5 -81h157q1 7 1 12.5v10.5q0 39 -18 62t-51 23zM202 556l-127 136v2h143l94 -138h-110z" />
<glyph unicode="&#xe9;" horiz-adv-x="479" d="M432 304q0 -33 -2.5 -55.5t-5.5 -39.5h-261q5 -62 38.5 -88.5t93.5 -26.5q24 0 43 4.5t33.5 11t24.5 13t15 10.5l29 -88l-17 -14.5t-31.5 -19t-51 -16.5t-73.5 -7q-50 0 -91.5 14.5t-71.5 45.5t-46.5 80.5t-16.5 118.5q0 65 17.5 112.5t48 78.5t71 46t85.5 15 q79 0 124 -49t45 -146zM251 401q-38 0 -62.5 -27t-26.5 -81h157q1 7 1 12.5v10.5q0 39 -18 62t-51 23zM426 692l-128 -136h-110l94 138h144v-2z" />
<glyph unicode="&#xea;" horiz-adv-x="479" d="M432 304q0 -33 -2.5 -55.5t-5.5 -39.5h-261q5 -62 38.5 -88.5t93.5 -26.5q24 0 43 4.5t33.5 11t24.5 13t15 10.5l29 -88l-17 -14.5t-31.5 -19t-51 -16.5t-73.5 -7q-50 0 -91.5 14.5t-71.5 45.5t-46.5 80.5t-16.5 118.5q0 65 17.5 112.5t48 78.5t71 46t85.5 15 q79 0 124 -49t45 -146zM251 401q-38 0 -62.5 -27t-26.5 -81h157q1 7 1 12.5v10.5q0 39 -18 62t-51 23zM310 555l-59 75h-2l-60 -75h-89l81 142h137l81 -142h-89z" />
<glyph unicode="&#xeb;" horiz-adv-x="479" d="M432 304q0 -33 -2.5 -55.5t-5.5 -39.5h-261q5 -62 38.5 -88.5t93.5 -26.5q24 0 43 4.5t33.5 11t24.5 13t15 10.5l29 -88l-17 -14.5t-31.5 -19t-51 -16.5t-73.5 -7q-50 0 -91.5 14.5t-71.5 45.5t-46.5 80.5t-16.5 118.5q0 65 17.5 112.5t48 78.5t71 46t85.5 15 q79 0 124 -49t45 -146zM251 401q-38 0 -62.5 -27t-26.5 -81h157q1 7 1 12.5v10.5q0 39 -18 62t-51 23zM221 625q0 -28 -17.5 -46.5t-46.5 -18.5t-47 18.5t-18 46.5q0 29 18 47.5t47 18.5t46.5 -18.5t17.5 -47.5zM408 625q0 -28 -18 -46.5t-47 -18.5t-47 18.5t-18 46.5 q0 29 18 47.5t47 18.5t47 -18.5t18 -47.5z" />
<glyph unicode="&#xec;" horiz-adv-x="254" d="M82 556l-127 136v2h143l94 -138h-110zM190 0h-126v487h126v-487z" />
<glyph unicode="&#xed;" horiz-adv-x="254" d="M304 692l-128 -136h-110l94 138h144v-2zM190 0h-126v487h126v-487z" />
<glyph unicode="&#xee;" horiz-adv-x="254" d="M190 0h-126v487h126v-487zM190 555l-59 75h-2l-60 -75h-89l81 142h137l81 -142h-89z" />
<glyph unicode="&#xef;" horiz-adv-x="254" d="M101 625q0 -28 -17.5 -46.5t-46.5 -18.5t-47 18.5t-18 46.5q0 29 18 47.5t47 18.5t46.5 -18.5t17.5 -47.5zM288 625q0 -28 -18 -46.5t-47 -18.5t-47 18.5t-18 46.5q0 29 18 47.5t47 18.5t47 -18.5t18 -47.5zM190 0h-126v487h126v-487z" />
<glyph unicode="&#xf0;" horiz-adv-x="526" d="M480 266q0 -69 -17.5 -121t-48.5 -87t-74 -52.5t-93 -17.5q-93 0 -149.5 63.5t-56.5 186.5q0 62 16 109.5t42.5 79t61.5 47.5t73 16q31 0 49 -9t24 -14h3q-15 31 -35 54.5t-43 42.5l-107 -60l-25 49l79 44q-20 11 -40.5 17.5t-40.5 11.5l31 96q43 -7 85 -21.5t80 -38.5 l108 60l25 -49l-85 -48q61 -54 99.5 -141.5t38.5 -217.5zM352 266q0 29 -2.5 55.5t-7.5 50.5q-11 7 -27 13t-36 6q-49 0 -79 -33t-30 -109q0 -75 23 -114t63 -39q45 0 70.5 40t25.5 130z" />
<glyph unicode="&#xf1;" horiz-adv-x="543" d="M357 0v288q0 54 -18.5 78.5t-59.5 24.5q-31 0 -53 -10.5t-36 -23.5v-357h-126v487h116v-54h2q7 9 18.5 20.5t28.5 21.5t40.5 17t53.5 7q78 0 119 -49.5t41 -140.5v-309h-126zM433 683q0 -57 -19 -90.5t-65 -33.5q-21 0 -38.5 7.5t-32 16l-28 16t-26.5 7.5 q-16 0 -21.5 -11t-7.5 -30h-60q0 57 18.5 90t65.5 33q21 0 38 -7t32 -16t28.5 -16t26.5 -7q15 0 21.5 10.5t7.5 30.5h60v0z" />
<glyph unicode="&#xf2;" horiz-adv-x="527" d="M487 244q0 -65 -19 -113t-50.5 -79.5t-72.5 -47.5t-85 -16q-46 0 -86 15t-70 46.5t-47 80t-17 114.5q0 64 19 112t50.5 80t72.5 47.5t85 15.5q46 0 86.5 -15t70 -46t46.5 -79.5t17 -114.5zM358 244q0 40 -7.5 68.5t-20.5 45.5t-30 25t-36 8q-39 0 -67 -34t-28 -113 q0 -81 28 -114.5t67 -33.5q19 0 36.5 8t30 26t20 46t7.5 68zM215 556l-127 136v2h143l94 -138h-110z" />
<glyph unicode="&#xf3;" horiz-adv-x="527" d="M487 244q0 -65 -19 -113t-50.5 -79.5t-72.5 -47.5t-85 -16q-46 0 -86 15t-70 46.5t-47 80t-17 114.5q0 64 19 112t50.5 80t72.5 47.5t85 15.5q46 0 86.5 -15t70 -46t46.5 -79.5t17 -114.5zM358 244q0 40 -7.5 68.5t-20.5 45.5t-30 25t-36 8q-39 0 -67 -34t-28 -113 q0 -81 28 -114.5t67 -33.5q19 0 36.5 8t30 26t20 46t7.5 68zM439 692l-128 -136h-110l94 138h144v-2z" />
<glyph unicode="&#xf4;" horiz-adv-x="527" d="M487 244q0 -65 -19 -113t-50.5 -79.5t-72.5 -47.5t-85 -16q-46 0 -86 15t-70 46.5t-47 80t-17 114.5q0 64 19 112t50.5 80t72.5 47.5t85 15.5q46 0 86.5 -15t70 -46t46.5 -79.5t17 -114.5zM358 244q0 40 -7.5 68.5t-20.5 45.5t-30 25t-36 8q-39 0 -67 -34t-28 -113 q0 -81 28 -114.5t67 -33.5q19 0 36.5 8t30 26t20 46t7.5 68zM323 555l-59 75h-2l-60 -75h-89l81 142h137l81 -142h-89z" />
<glyph unicode="&#xf5;" horiz-adv-x="527" d="M487 244q0 -65 -19 -113t-50.5 -79.5t-72.5 -47.5t-85 -16q-46 0 -86 15t-70 46.5t-47 80t-17 114.5q0 64 19 112t50.5 80t72.5 47.5t85 15.5q46 0 86.5 -15t70 -46t46.5 -79.5t17 -114.5zM358 244q0 40 -7.5 68.5t-20.5 45.5t-30 25t-36 8q-39 0 -67 -34t-28 -113 q0 -81 28 -114.5t67 -33.5q19 0 36.5 8t30 26t20 46t7.5 68zM412 683q0 -57 -19 -90.5t-65 -33.5q-21 0 -38.5 7.5t-32 16l-28 16t-26.5 7.5q-16 0 -21.5 -11t-7.5 -30h-60q0 57 18.5 90t65.5 33q21 0 38 -7t32 -16t28.5 -16t26.5 -7q15 0 21.5 10.5t7.5 30.5h60v0z" />
<glyph unicode="&#xf6;" horiz-adv-x="527" d="M487 244q0 -65 -19 -113t-50.5 -79.5t-72.5 -47.5t-85 -16q-46 0 -86 15t-70 46.5t-47 80t-17 114.5q0 64 19 112t50.5 80t72.5 47.5t85 15.5q46 0 86.5 -15t70 -46t46.5 -79.5t17 -114.5zM358 244q0 40 -7.5 68.5t-20.5 45.5t-30 25t-36 8q-39 0 -67 -34t-28 -113 q0 -81 28 -114.5t67 -33.5q19 0 36.5 8t30 26t20 46t7.5 68zM234 625q0 -28 -17.5 -46.5t-46.5 -18.5t-47 18.5t-18 46.5q0 29 18 47.5t47 18.5t46.5 -18.5t17.5 -47.5zM421 625q0 -28 -18 -46.5t-47 -18.5t-47 18.5t-18 46.5q0 29 18 47.5t47 18.5t47 -18.5t18 -47.5z" />
<glyph unicode="&#xf7;" d="M309 130q0 -25 -15.5 -39.5t-41.5 -14.5q-27 0 -42.5 14.5t-15.5 39.5q0 26 15.5 40.5t42.5 14.5q26 0 41.5 -14.5t15.5 -40.5zM309 494q0 -25 -15.5 -40t-41.5 -15q-27 0 -42.5 15t-15.5 40t15.5 39.5t42.5 14.5q26 0 41.5 -14.5t15.5 -39.5zM456 264h-413v98h413v-98z " />
<glyph unicode="&#xf8;" horiz-adv-x="527" d="M487 244q0 -65 -19 -113t-50.5 -79.5t-72.5 -47.5t-85 -16q-64 0 -112 27l-34 -51h-74l60 90q-29 32 -44.5 78.5t-15.5 111.5q0 64 19 112t50.5 80t72.5 47.5t85 15.5q62 0 112 -27l34 51h74l-60 -89q29 -32 44.5 -79t15.5 -111zM365 244q0 47 -11 80l-144 -216 q11 -9 25 -13t29 -4q42 0 71.5 35.5t29.5 117.5zM162 244q0 -48 11 -81l144 216q-23 17 -53 17q-42 0 -72 -35.5t-30 -116.5z" />
<glyph unicode="&#xf9;" horiz-adv-x="538" d="M474 0h-115v55h-2q-7 -9 -18 -20.5t-27.5 -22t-39.5 -17.5t-54 -7q-78 0 -118 49t-40 141v309h126v-287q0 -56 17.5 -80t58.5 -24q31 0 51.5 10t34.5 23v358h126v-487zM219 556l-127 136v2h143l94 -138h-110z" />
<glyph unicode="&#xfa;" horiz-adv-x="538" d="M474 0h-115v55h-2q-7 -9 -18 -20.5t-27.5 -22t-39.5 -17.5t-54 -7q-78 0 -118 49t-40 141v309h126v-287q0 -56 17.5 -80t58.5 -24q31 0 51.5 10t34.5 23v358h126v-487zM443 692l-128 -136h-110l94 138h144v-2z" />
<glyph unicode="&#xfb;" horiz-adv-x="538" d="M474 0h-115v55h-2q-7 -9 -18 -20.5t-27.5 -22t-39.5 -17.5t-54 -7q-78 0 -118 49t-40 141v309h126v-287q0 -56 17.5 -80t58.5 -24q31 0 51.5 10t34.5 23v358h126v-487zM327 555l-59 75h-2l-60 -75h-89l81 142h137l81 -142h-89z" />
<glyph unicode="&#xfc;" horiz-adv-x="538" d="M474 0h-115v55h-2q-7 -9 -18 -20.5t-27.5 -22t-39.5 -17.5t-54 -7q-78 0 -118 49t-40 141v309h126v-287q0 -56 17.5 -80t58.5 -24q31 0 51.5 10t34.5 23v358h126v-487zM238 625q0 -28 -17.5 -46.5t-46.5 -18.5t-47 18.5t-18 46.5q0 29 18 47.5t47 18.5t46.5 -18.5 t17.5 -47.5zM425 625q0 -28 -18 -46.5t-47 -18.5t-47 18.5t-18 46.5q0 29 18 47.5t47 18.5t47 -18.5t18 -47.5z" />
<glyph unicode="&#xfd;" horiz-adv-x="469" d="M298 6q-20 -59 -40 -99.5t-45 -65.5t-56 -36t-74 -11q-21 0 -33.5 3.5t-15.5 5.5v106q3 -2 14 -4.5t27 -2.5q48 0 71 22.5t35 62.5l5 18l-181 482h137l101 -325h2l91 325h125zM420 692l-128 -136h-110l94 138h144v-2z" />
<glyph unicode="&#xfe;" horiz-adv-x="539" d="M498 255q0 -66 -16 -116t-45.5 -83t-71 -50t-92.5 -17q-29 0 -49.5 5.5t-34.5 13.5v-208h-126v905l126 10v-266h2q8 7 19.5 16t27 16.5t36.5 12.5t48 5q37 0 69.5 -14.5t56 -44.5t37 -76t13.5 -109zM270 391q-27 0 -47 -8.5t-34 -19.5v-257q11 -7 26 -11.5t35 -4.5 q57 0 88 37t31 122q0 77 -27 109.5t-72 32.5z" />
<glyph unicode="&#xff;" horiz-adv-x="469" d="M298 6q-20 -59 -40 -99.5t-45 -65.5t-56 -36t-74 -11q-21 0 -33.5 3.5t-15.5 5.5v106q3 -2 14 -4.5t27 -2.5q48 0 71 22.5t35 62.5l5 18l-181 482h137l101 -325h2l91 325h125zM215 625q0 -28 -17.5 -46.5t-46.5 -18.5t-47 18.5t-18 46.5q0 29 18 47.5t47 18.5t46.5 -18.5 t17.5 -47.5zM402 625q0 -28 -18 -46.5t-47 -18.5t-47 18.5t-18 46.5q0 29 18 47.5t47 18.5t47 -18.5t18 -47.5z" />
<glyph unicode="&#x100;" horiz-adv-x="621" d="M471 0l-60 186h-213l-60 -186h-134l254 690h105l253 -690h-145zM306 518h-2l-76 -236h154zM421 748h-232v84h232v-84z" />
<glyph unicode="&#x101;" horiz-adv-x="463" d="M37 134q0 38 17.5 66t47.5 46t70.5 27t87.5 9h20v17q0 95 -82 95q-23 0 -41 -5t-32.5 -12.5t-25 -15.5t-16.5 -14l-39 80q9 9 24 21.5t37 23.5t51.5 19t67.5 8q86 0 132 -49t46 -155v-164q0 -42 2.5 -75t5.5 -56h-116q-1 11 -2 25.5t-1 28.5h-2q-6 -11 -15.5 -23 t-23 -21.5t-32.5 -15.5t-45 -6q-60 0 -98 40t-38 106zM209 86q27 0 43.5 9.5t27.5 20.5v90l-25 -1q-49 -3 -74 -16.5t-25 -42.5q0 -26 15 -43t38 -17zM345 575h-242v84h242v-84z" />
<glyph unicode="&#x102;" horiz-adv-x="621" d="M471 0l-60 186h-213l-60 -186h-134l254 690h105l253 -690h-145zM306 518h-2l-76 -236h154zM434 859q-1 -25 -8.5 -47t-23 -38t-39.5 -25.5t-58 -9.5t-58 9.5t-39.5 25.5t-23.5 38t-9 47h78q1 -20 14 -33t38 -13q26 0 38.5 13t13.5 33h77v0z" />
<glyph unicode="&#x103;" horiz-adv-x="463" d="M37 134q0 38 17.5 66t47.5 46t70.5 27t87.5 9h20v17q0 95 -82 95q-23 0 -41 -5t-32.5 -12.5t-25 -15.5t-16.5 -14l-39 80q9 9 24 21.5t37 23.5t51.5 19t67.5 8q86 0 132 -49t46 -155v-164q0 -42 2.5 -75t5.5 -56h-116q-1 11 -2 25.5t-1 28.5h-2q-6 -11 -15.5 -23 t-23 -21.5t-32.5 -15.5t-45 -6q-60 0 -98 40t-38 106zM209 86q27 0 43.5 9.5t27.5 20.5v90l-25 -1q-49 -3 -74 -16.5t-25 -42.5q0 -26 15 -43t38 -17zM353 688q-1 -27 -8.5 -51.5t-23 -42.5t-39.5 -28.5t-58 -10.5t-58 10.5t-39.5 28.5t-23.5 42.5t-9 51.5h77q2 -53 53 -53 q52 0 54 53h75v0z" />
<glyph unicode="&#x104;" horiz-adv-x="621" d="M591 -188q-10 -6 -32.5 -15t-58.5 -9q-51 0 -76.5 23.5t-25.5 67.5q0 31 12.5 56t29.5 45q14 16 28 28l-57 178h-213l-60 -186h-134l254 690h105l253 -690h-69l-4 -4q-8 -8 -16 -18.5t-13.5 -24t-5.5 -29.5q0 -35 34 -35q14 0 24 3t14 5zM306 518h-2l-76 -236h154z" />
<glyph unicode="&#x105;" horiz-adv-x="463" d="M421 -188q-10 -6 -32.5 -15t-58.5 -9q-51 0 -76.5 23.5t-25.5 67.5q0 31 12.5 56t29.5 45q12 13 23 23q0 10 -1 22q-1 15 -1 29h-2q-6 -11 -15.5 -23t-23 -21.5t-32.5 -15.5t-45 -6q-60 0 -98 40t-38 106q0 38 17.5 66t47.5 46t70.5 27t87.5 9h20v17q0 95 -82 95 q-23 0 -41 -5t-32.5 -12.5t-25 -15.5t-16.5 -14l-39 80q9 9 24 21.5t37 23.5t51.5 19t67.5 8q86 0 132 -49t46 -155v-164q0 -42 2.5 -75t5.5 -56h-33l-4 -4q-8 -8 -16 -18.5t-13.5 -24t-5.5 -29.5q0 -35 34 -35q14 0 24 3t14 5zM209 86q27 0 43.5 9.5t27.5 20.5v90l-25 -1 q-49 -3 -74 -16.5t-25 -42.5q0 -26 15 -43t38 -17z" />
<glyph unicode="&#x106;" horiz-adv-x="604" d="M49 347q0 95 29 162.5t76.5 110t108 62.5t123.5 20q44 0 76.5 -8t55 -19t36.5 -22l22 -17l-47 -101q-8 7 -20 16t-29 17.5t-39 14.5t-49 6q-42 0 -79 -13.5t-64 -42.5t-43 -74.5t-16 -109.5q0 -66 13.5 -113t38 -77t60 -44t79.5 -14q31 0 55.5 5.5t43 14t31.5 17.5t21 16 l36 -95q-8 -8 -23 -20t-39.5 -23t-59.5 -19.5t-84 -8.5q-68 0 -125.5 19.5t-99 62t-65 111t-23.5 166.5zM527 861l-125 -120h-111l90 122h146v-2z" />
<glyph unicode="&#x107;" horiz-adv-x="452" d="M387 361q-9 8 -30.5 19.5t-55.5 11.5q-28 0 -52 -8t-42 -25.5t-28 -44.5t-10 -66q0 -42 9 -71t24.5 -47t37 -26t47.5 -8q40 0 63.5 11t37.5 22l36 -89q-8 -7 -19.5 -16t-30 -17t-44.5 -13.5t-62 -5.5q-50 0 -92 14t-72 44.5t-47 80t-17 121.5q0 65 21.5 112.5t57 78 t80 45.5t91.5 15q29 0 51 -4.5t38.5 -11t27 -13.5l16.5 -11zM439 692l-128 -136h-110l94 138h144v-2z" />
<glyph unicode="&#x108;" horiz-adv-x="604" d="M49 347q0 95 29 162.5t76.5 110t108 62.5t123.5 20q44 0 76.5 -8t55 -19t36.5 -22l22 -17l-47 -101q-8 7 -20 16t-29 17.5t-39 14.5t-49 6q-42 0 -79 -13.5t-64 -42.5t-43 -74.5t-16 -109.5q0 -66 13.5 -113t38 -77t60 -44t79.5 -14q31 0 55.5 5.5t43 14t31.5 17.5t21 16 l36 -95q-8 -8 -23 -20t-39.5 -23t-59.5 -19.5t-84 -8.5q-68 0 -125.5 19.5t-99 62t-65 111t-23.5 166.5zM411 742l-54 61h-2l-53 -61h-92l78 121h136l78 -121h-91z" />
<glyph unicode="&#x109;" horiz-adv-x="452" d="M387 361q-9 8 -30.5 19.5t-55.5 11.5q-28 0 -52 -8t-42 -25.5t-28 -44.5t-10 -66q0 -42 9 -71t24.5 -47t37 -26t47.5 -8q40 0 63.5 11t37.5 22l36 -89q-8 -7 -19.5 -16t-30 -17t-44.5 -13.5t-62 -5.5q-50 0 -92 14t-72 44.5t-47 80t-17 121.5q0 65 21.5 112.5t57 78 t80 45.5t91.5 15q29 0 51 -4.5t38.5 -11t27 -13.5l16.5 -11zM323 555l-59 75h-2l-60 -75h-89l81 142h137l81 -142h-89z" />
<glyph unicode="&#x10a;" horiz-adv-x="604" d="M49 347q0 95 29 162.5t76.5 110t108 62.5t123.5 20q44 0 76.5 -8t55 -19t36.5 -22l22 -17l-47 -101q-8 7 -20 16t-29 17.5t-39 14.5t-49 6q-42 0 -79 -13.5t-64 -42.5t-43 -74.5t-16 -109.5q0 -66 13.5 -113t38 -77t60 -44t79.5 -14q31 0 55.5 5.5t43 14t31.5 17.5t21 16 l36 -95q-8 -8 -23 -20t-39.5 -23t-59.5 -19.5t-84 -8.5q-68 0 -125.5 19.5t-99 62t-65 111t-23.5 166.5zM425 802q0 -30 -19.5 -47t-49.5 -17t-49.5 17t-19.5 47q0 31 19.5 48t49.5 17t49.5 -17t19.5 -48z" />
<glyph unicode="&#x10b;" horiz-adv-x="452" d="M387 361q-9 8 -30.5 19.5t-55.5 11.5q-28 0 -52 -8t-42 -25.5t-28 -44.5t-10 -66q0 -42 9 -71t24.5 -47t37 -26t47.5 -8q40 0 63.5 11t37.5 22l36 -89q-8 -7 -19.5 -16t-30 -17t-44.5 -13.5t-62 -5.5q-50 0 -92 14t-72 44.5t-47 80t-17 121.5q0 65 21.5 112.5t57 78 t80 45.5t91.5 15q29 0 51 -4.5t38.5 -11t27 -13.5l16.5 -11zM332 629q0 -31 -19.5 -49.5t-49.5 -18.5t-49 18.5t-19 49.5q0 30 19 48.5t49 18.5t49.5 -18.5t19.5 -48.5z" />
<glyph unicode="&#x10c;" horiz-adv-x="604" d="M49 347q0 95 29 162.5t76.5 110t108 62.5t123.5 20q44 0 76.5 -8t55 -19t36.5 -22l22 -17l-47 -101q-8 7 -20 16t-29 17.5t-39 14.5t-49 6q-42 0 -79 -13.5t-64 -42.5t-43 -74.5t-16 -109.5q0 -66 13.5 -113t38 -77t60 -44t79.5 -14q31 0 55.5 5.5t43 14t31.5 17.5t21 16 l36 -95q-8 -8 -23 -20t-39.5 -23t-59.5 -19.5t-84 -8.5q-68 0 -125.5 19.5t-99 62t-65 111t-23.5 166.5zM424 747h-136l-78 121h92l53 -61h2l54 61h91z" />
<glyph unicode="&#x10d;" horiz-adv-x="452" d="M387 361q-9 8 -30.5 19.5t-55.5 11.5q-28 0 -52 -8t-42 -25.5t-28 -44.5t-10 -66q0 -42 9 -71t24.5 -47t37 -26t47.5 -8q40 0 63.5 11t37.5 22l36 -89q-8 -7 -19.5 -16t-30 -17t-44.5 -13.5t-62 -5.5q-50 0 -92 14t-72 44.5t-47 80t-17 121.5q0 65 21.5 112.5t57 78 t80 45.5t91.5 15q29 0 51 -4.5t38.5 -11t27 -13.5l16.5 -11zM331 560h-137l-81 142h89l60 -73h2l59 73h89z" />
<glyph unicode="&#x10e;" horiz-adv-x="677" d="M80 0v690h165q98 0 170 -19t119 -59.5t70 -104t23 -152.5q0 -93 -27 -160.5t-78 -110.5t-123.5 -63.5t-162.5 -20.5h-156zM214 579v-468h22q61 0 108 13t79 42.5t48 76t16 112.5q0 62 -15.5 105t-45.5 69.5t-75.5 38t-105.5 11.5h-31zM375 747h-136l-78 121h92l53 -61h2 l54 61h91z" />
<glyph unicode="&#x10f;" horiz-adv-x="560" d="M41 242q0 64 18.5 112t49.5 80t71.5 48.5t84.5 16.5q30 0 50.5 -6.5t34.5 -14.5v227l126 11v-716h-115v55h-2q-4 -7 -13 -18t-24.5 -22t-38.5 -19t-56 -8q-41 0 -75.5 16t-59 47.5t-38 79.5t-13.5 111zM264 96q32 0 52.5 10.5t33.5 22.5v250q-11 8 -27 13t-39 5 q-51 0 -82.5 -36.5t-31.5 -112.5q0 -41 7 -70t19.5 -47t30 -26.5t37.5 -8.5zM664 641q0 -28 -11.5 -48t-28.5 -33.5t-37.5 -21.5t-38.5 -12l-10 39q21 6 38.5 17.5t22.5 34.5h-1q-26 0 -41 14t-15 39t16 38.5t38 13.5q30 0 49 -20.5t19 -60.5z" />
<glyph unicode="&#x110;" horiz-adv-x="693" d="M96 0v296h-70v104h70v290h165q98 0 170 -19t119 -59.5t70 -104t23 -152.5q0 -93 -27 -160.5t-78 -110.5t-123.5 -63.5t-162.5 -20.5h-156zM230 579v-179h136v-104h-136v-185h22q61 0 108 13t79 42.5t48 76t16 112.5q0 62 -15.5 105t-45.5 69.5t-75.5 38t-105.5 11.5h-31z " />
<glyph unicode="&#x111;" horiz-adv-x="540" d="M41 242q0 64 18.5 112t49.5 80t71.5 48.5t84.5 16.5q30 0 50.5 -6.5t34.5 -14.5v94h-155v61h155v72l126 11v-83h67v-61h-67v-572h-115v55h-2q-4 -7 -13 -18t-24.5 -22t-38.5 -19t-56 -8q-41 0 -75.5 16t-59 47.5t-38 79.5t-13.5 111zM264 96q32 0 52.5 10.5t33.5 22.5 v250q-11 8 -27 13t-39 5q-51 0 -82.5 -36.5t-31.5 -112.5q0 -41 7 -70t19.5 -47t30 -26.5t37.5 -8.5z" />
<glyph unicode="&#x112;" horiz-adv-x="542" d="M473 580h-259v-177h240v-110h-240v-183h292l-8 -110h-418v690h401zM397 748h-232v84h232v-84z" />
<glyph unicode="&#x113;" horiz-adv-x="479" d="M432 304q0 -33 -2.5 -55.5t-5.5 -39.5h-261q5 -62 38.5 -88.5t93.5 -26.5q24 0 43 4.5t33.5 11t24.5 13t15 10.5l29 -88l-17 -14.5t-31.5 -19t-51 -16.5t-73.5 -7q-50 0 -91.5 14.5t-71.5 45.5t-46.5 80.5t-16.5 118.5q0 65 17.5 112.5t48 78.5t71 46t85.5 15 q79 0 124 -49t45 -146zM251 401q-38 0 -62.5 -27t-26.5 -81h157q1 7 1 12.5v10.5q0 39 -18 62t-51 23zM371 575h-242v84h242v-84z" />
<glyph unicode="&#x114;" horiz-adv-x="542" d="M473 580h-259v-177h240v-110h-240v-183h292l-8 -110h-418v690h401zM410 859q-1 -25 -8.5 -47t-23 -38t-39.5 -25.5t-58 -9.5t-58 9.5t-39.5 25.5t-23.5 38t-9 47h78q1 -20 14 -33t38 -13q26 0 38.5 13t13.5 33h77v0z" />
<glyph unicode="&#x115;" horiz-adv-x="479" d="M432 304q0 -33 -2.5 -55.5t-5.5 -39.5h-261q5 -62 38.5 -88.5t93.5 -26.5q24 0 43 4.5t33.5 11t24.5 13t15 10.5l29 -88l-17 -14.5t-31.5 -19t-51 -16.5t-73.5 -7q-50 0 -91.5 14.5t-71.5 45.5t-46.5 80.5t-16.5 118.5q0 65 17.5 112.5t48 78.5t71 46t85.5 15 q79 0 124 -49t45 -146zM251 401q-38 0 -62.5 -27t-26.5 -81h157q1 7 1 12.5v10.5q0 39 -18 62t-51 23zM379 688q-1 -27 -8.5 -51.5t-23 -42.5t-39.5 -28.5t-58 -10.5t-58 10.5t-39.5 28.5t-23.5 42.5t-9 51.5h77q2 -53 53 -53q52 0 54 53h75v0z" />
<glyph unicode="&#x116;" horiz-adv-x="542" d="M473 580h-259v-177h240v-110h-240v-183h292l-8 -110h-418v690h401zM350 802q0 -30 -19.5 -47t-49.5 -17t-49.5 17t-19.5 47q0 31 19.5 48t49.5 17t49.5 -17t19.5 -48z" />
<glyph unicode="&#x117;" horiz-adv-x="479" d="M432 304q0 -33 -2.5 -55.5t-5.5 -39.5h-261q5 -62 38.5 -88.5t93.5 -26.5q24 0 43 4.5t33.5 11t24.5 13t15 10.5l29 -88l-17 -14.5t-31.5 -19t-51 -16.5t-73.5 -7q-50 0 -91.5 14.5t-71.5 45.5t-46.5 80.5t-16.5 118.5q0 65 17.5 112.5t48 78.5t71 46t85.5 15 q79 0 124 -49t45 -146zM251 401q-38 0 -62.5 -27t-26.5 -81h157q1 7 1 12.5v10.5q0 39 -18 62t-51 23zM319 629q0 -31 -19.5 -49.5t-49.5 -18.5t-49 18.5t-19 49.5q0 30 19 48.5t49 18.5t49.5 -18.5t19.5 -48.5z" />
<glyph unicode="&#x118;" horiz-adv-x="542" d="M469 -188q-10 -6 -32.5 -15t-58.5 -9q-51 0 -76.5 23.5t-25.5 67.5q0 31 12.5 56t29.5 45l19 20h-257v690h401l-8 -110h-259v-177h240v-110h-240v-183h292l-8 -110h-73l-4 -4q-8 -8 -16 -18.5t-13.5 -24t-5.5 -29.5q0 -35 34 -35q14 0 24 3t14 5z" />
<glyph unicode="&#x119;" horiz-adv-x="479" d="M410 -188q-10 -6 -32.5 -15t-58.5 -9q-51 0 -76.5 23.5t-25.5 67.5q0 31 12.5 56t29.5 45q4 4 7 8q-49 0 -90.5 14.5t-71.5 45.5t-46.5 80.5t-16.5 118.5q0 65 17.5 112.5t48 78.5t71 46t85.5 15q79 0 124 -49t45 -146q0 -33 -2.5 -55.5t-5.5 -39.5h-261 q5 -62 38.5 -88.5t93.5 -26.5q24 0 43 4.5t33.5 11t24.5 13t15 10.5l29 -88l-17 -14.5t-32 -19.5q-9 -4 -21 -8q-4 -3 -8 -7q-8 -8 -16 -18.5t-13.5 -24t-5.5 -29.5q0 -35 34 -35q14 0 24 3t14 5zM251 401q-38 0 -62.5 -27t-26.5 -81h157q1 7 1 12v11q0 39 -18 62t-51 23z " />
<glyph unicode="&#x11a;" horiz-adv-x="542" d="M473 580h-259v-177h240v-110h-240v-183h292l-8 -110h-418v690h401zM349 747h-136l-78 121h92l53 -61h2l54 61h91z" />
<glyph unicode="&#x11b;" horiz-adv-x="479" d="M432 304q0 -33 -2.5 -55.5t-5.5 -39.5h-261q5 -62 38.5 -88.5t93.5 -26.5q24 0 43 4.5t33.5 11t24.5 13t15 10.5l29 -88l-17 -14.5t-31.5 -19t-51 -16.5t-73.5 -7q-50 0 -91.5 14.5t-71.5 45.5t-46.5 80.5t-16.5 118.5q0 65 17.5 112.5t48 78.5t71 46t85.5 15 q79 0 124 -49t45 -146zM251 401q-38 0 -62.5 -27t-26.5 -81h157q1 7 1 12.5v10.5q0 39 -18 62t-51 23zM318 560h-137l-81 142h89l60 -73h2l59 73h89z" />
<glyph unicode="&#x11c;" horiz-adv-x="651" d="M588 55q-8 -8 -24.5 -19t-42.5 -22t-63 -18.5t-86 -7.5q-69 0 -128.5 19t-103 61.5t-68 111.5t-24.5 168q0 91 29.5 158t78.5 110.5t111.5 64.5t127.5 21q46 0 81 -8.5t59 -19.5t39 -22.5l23 -17.5l-47 -101q-7 6 -19 15.5t-30 18.5t-42.5 15.5t-55.5 6.5 q-44 0 -82.5 -14t-68 -43t-46.5 -75t-17 -109q0 -131 53.5 -189t148.5 -58q38 0 72 8v151h-120l1 108h244v-313zM423 742l-54 61h-2l-53 -61h-92l78 121h136l78 -121h-91z" />
<glyph unicode="&#x11d;" horiz-adv-x="505" d="M472 409h-59q20 -35 20 -77t-15 -73t-41.5 -52t-62 -31t-76.5 -10q-25 0 -47 3q-9 -5 -15.5 -14t-6.5 -21q0 -28 35 -28h105q79 0 123.5 -32t44.5 -101q0 -37 -17 -70.5t-51 -59t-85 -40.5t-118 -15q-97 0 -143 34t-46 94q0 24 8 42t19.5 31t25 22t24.5 15v2 q-29 23 -29 66q0 20 7.5 36t17 28t19.5 20t16 11v1q-37 20 -59 55t-22 87q0 43 15.5 74.5t41.5 52t61.5 30.5t76.5 10q40 0 75 -12h170zM192 4q-11 0 -21 0.5t-19 1.5q-11 -8 -19.5 -22t-8.5 -37q0 -36 24.5 -51.5t70.5 -15.5q72 0 108.5 22t36.5 55q0 25 -15 36t-53 11 h-104zM321 332q0 42 -24.5 60.5t-56.5 18.5q-33 0 -58.5 -18.5t-25.5 -60.5q0 -41 25 -59.5t57 -18.5q33 0 58 18t25 60zM304 555l-59 75h-2l-60 -75h-89l81 142h137l81 -142h-89z" />
<glyph unicode="&#x11e;" horiz-adv-x="651" d="M588 55q-8 -8 -24.5 -19t-42.5 -22t-63 -18.5t-86 -7.5q-69 0 -128.5 19t-103 61.5t-68 111.5t-24.5 168q0 91 29.5 158t78.5 110.5t111.5 64.5t127.5 21q46 0 81 -8.5t59 -19.5t39 -22.5l23 -17.5l-47 -101q-7 6 -19 15.5t-30 18.5t-42.5 15.5t-55.5 6.5 q-44 0 -82.5 -14t-68 -43t-46.5 -75t-17 -109q0 -131 53.5 -189t148.5 -58q38 0 72 8v151h-120l1 108h244v-313zM497 859q-1 -25 -8.5 -47t-23 -38t-39.5 -25.5t-58 -9.5t-58 9.5t-39.5 25.5t-23.5 38t-9 47h78q1 -20 14 -33t38 -13q26 0 38.5 13t13.5 33h77v0z" />
<glyph unicode="&#x11f;" horiz-adv-x="505" d="M472 409h-59q20 -35 20 -77t-15 -73t-41.5 -52t-62 -31t-76.5 -10q-25 0 -47 3q-9 -5 -15.5 -14t-6.5 -21q0 -28 35 -28h105q79 0 123.5 -32t44.5 -101q0 -37 -17 -70.5t-51 -59t-85 -40.5t-118 -15q-97 0 -143 34t-46 94q0 24 8 42t19.5 31t25 22t24.5 15v2 q-29 23 -29 66q0 20 7.5 36t17 28t19.5 20t16 11v1q-37 20 -59 55t-22 87q0 43 15.5 74.5t41.5 52t61.5 30.5t76.5 10q40 0 75 -12h170zM192 4q-11 0 -21 0.5t-19 1.5q-11 -8 -19.5 -22t-8.5 -37q0 -36 24.5 -51.5t70.5 -15.5q72 0 108.5 22t36.5 55q0 25 -15 36t-53 11 h-104zM321 332q0 42 -24.5 60.5t-56.5 18.5q-33 0 -58.5 -18.5t-25.5 -60.5q0 -41 25 -59.5t57 -18.5q33 0 58 18t25 60zM373 688q-1 -27 -8.5 -51.5t-23 -42.5t-39.5 -28.5t-58 -10.5t-58 10.5t-39.5 28.5t-23.5 42.5t-9 51.5h77q2 -53 53 -53q52 0 54 53h75v0z" />
<glyph unicode="&#x120;" horiz-adv-x="651" d="M588 55q-8 -8 -24.5 -19t-42.5 -22t-63 -18.5t-86 -7.5q-69 0 -128.5 19t-103 61.5t-68 111.5t-24.5 168q0 91 29.5 158t78.5 110.5t111.5 64.5t127.5 21q46 0 81 -8.5t59 -19.5t39 -22.5l23 -17.5l-47 -101q-7 6 -19 15.5t-30 18.5t-42.5 15.5t-55.5 6.5 q-44 0 -82.5 -14t-68 -43t-46.5 -75t-17 -109q0 -131 53.5 -189t148.5 -58q38 0 72 8v151h-120l1 108h244v-313zM437 802q0 -30 -19.5 -47t-49.5 -17t-49.5 17t-19.5 47q0 31 19.5 48t49.5 17t49.5 -17t19.5 -48z" />
<glyph unicode="&#x121;" horiz-adv-x="505" d="M472 409h-59q20 -35 20 -77t-15 -73t-41.5 -52t-62 -31t-76.5 -10q-25 0 -47 3q-9 -5 -15.5 -14t-6.5 -21q0 -28 35 -28h105q79 0 123.5 -32t44.5 -101q0 -37 -17 -70.5t-51 -59t-85 -40.5t-118 -15q-97 0 -143 34t-46 94q0 24 8 42t19.5 31t25 22t24.5 15v2 q-29 23 -29 66q0 20 7.5 36t17 28t19.5 20t16 11v1q-37 20 -59 55t-22 87q0 43 15.5 74.5t41.5 52t61.5 30.5t76.5 10q40 0 75 -12h170zM192 4q-11 0 -21 0.5t-19 1.5q-11 -8 -19.5 -22t-8.5 -37q0 -36 24.5 -51.5t70.5 -15.5q72 0 108.5 22t36.5 55q0 25 -15 36t-53 11 h-104zM321 332q0 42 -24.5 60.5t-56.5 18.5q-33 0 -58.5 -18.5t-25.5 -60.5q0 -41 25 -59.5t57 -18.5q33 0 58 18t25 60zM313 629q0 -31 -19.5 -49.5t-49.5 -18.5t-49 18.5t-19 49.5q0 30 19 48.5t49 18.5t49.5 -18.5t19.5 -48.5z" />
<glyph unicode="&#x122;" horiz-adv-x="651" d="M588 55q-8 -8 -24.5 -19t-42.5 -22t-63 -18.5t-86 -7.5q-69 0 -128.5 19t-103 61.5t-68 111.5t-24.5 168q0 91 29.5 158t78.5 110.5t111.5 64.5t127.5 21q46 0 81 -8.5t59 -19.5t39 -22.5l23 -17.5l-47 -101q-7 6 -19 15.5t-30 18.5t-42.5 15.5t-55.5 6.5 q-44 0 -82.5 -14t-68 -43t-46.5 -75t-17 -109q0 -131 53.5 -189t148.5 -58q38 0 72 8v151h-120l1 108h244v-313zM420 -123q0 -28 -11.5 -48t-28.5 -33.5t-37.5 -21.5t-38.5 -12l-10 39q21 6 38.5 17.5t22.5 34.5h-1q-26 0 -41 14t-15 39t16 38.5t38 13.5q30 0 49 -20.5 t19 -60.5z" />
<glyph unicode="&#x123;" horiz-adv-x="505" d="M472 409h-59q20 -35 20 -77t-15 -73t-41.5 -52t-62 -31t-76.5 -10q-25 0 -47 3q-9 -5 -15.5 -14t-6.5 -21q0 -28 35 -28h105q79 0 123.5 -32t44.5 -101q0 -37 -17 -70.5t-51 -59t-85 -40.5t-118 -15q-97 0 -143 34t-46 94q0 24 8 42t19.5 31t25 22t24.5 15v2 q-29 23 -29 66q0 20 7.5 36t17 28t19.5 20t16 11v1q-37 20 -59 55t-22 87q0 43 15.5 74.5t41.5 52t61.5 30.5t76.5 10q40 0 75 -12h170zM192 4q-11 0 -21 0.5t-19 1.5q-11 -8 -19.5 -22t-8.5 -37q0 -36 24.5 -51.5t70.5 -15.5q72 0 108.5 22t36.5 55q0 25 -15 36t-53 11 h-104zM321 332q0 42 -24.5 60.5t-56.5 18.5q-33 0 -58.5 -18.5t-25.5 -60.5q0 -41 25 -59.5t57 -18.5q33 0 58 18t25 60zM177 635q0 27 10.5 47t27 34.5t37.5 23t41 12.5l10 -38q-22 -6 -38.5 -18.5t-21.5 -33.5h1q25 0 40.5 -14t15.5 -39t-15.5 -38.5t-38.5 -13.5 q-32 0 -50.5 21t-18.5 57z" />
<glyph unicode="&#x124;" horiz-adv-x="703" d="M623 0h-134v293h-275v-293h-134v690h134v-287h275v287h134v-690zM406 742l-54 61h-2l-53 -61h-92l78 121h136l78 -121h-91z" />
<glyph unicode="&#x125;" horiz-adv-x="543" d="M357 0v288q0 54 -18.5 78.5t-59.5 24.5q-31 0 -53 -10.5t-36 -23.5v-357h-126v705l126 11v-276h2q7 8 18 18t27 19t38 15.5t51 6.5q77 0 117 -49.5t40 -140.5v-309h-126zM181 748l-54 61h-2l-53 -61h-92l78 121h136l78 -121h-91z" />
<glyph unicode="&#x126;" horiz-adv-x="711" d="M627 0h-134v293h-275v-293h-134v521h-63v61h63v108h134v-108h275v108h134v-108h65v-61h-65v-521zM493 403v118h-275v-118h275z" />
<glyph unicode="&#x127;" horiz-adv-x="543" d="M357 0v288q0 54 -18.5 78.5t-59.5 24.5q-31 0 -53 -10.5t-36 -23.5v-357h-126v572h-67v61h67v72l126 11v-83h156v-61h-156v-132h2q7 8 18 18t27 19t38 15.5t51 6.5q77 0 117 -49.5t40 -140.5v-309h-126z" />
<glyph unicode="&#x128;" horiz-adv-x="392" d="M129 593h-82v97h298v-97h-82v-496h83v-97h-300v97h83v496zM345 850q-2 -57 -21.5 -84t-62.5 -27q-21 0 -38 6t-32 13l-28.5 13t-27.5 6q-15 0 -21 -9t-7 -26h-60q1 112 84 112q21 0 38 -6t32 -13l28.5 -13t27.5 -6q26 0 28 34h60v0z" />
<glyph unicode="&#x129;" horiz-adv-x="254" d="M279 683q0 -57 -19 -90.5t-65 -33.5q-21 0 -38.5 7.5t-32 16l-28 16t-26.5 7.5q-16 0 -21.5 -11t-7.5 -30h-60q0 57 18.5 90t65.5 33q21 0 38 -7t32 -16t28.5 -16t26.5 -7q15 0 21.5 10.5t7.5 30.5h60v0zM190 0h-126v487h126v-487z" />
<glyph unicode="&#x12a;" horiz-adv-x="392" d="M129 593h-82v97h298v-97h-82v-496h83v-97h-300v97h83v496zM312 748h-232v84h232v-84z" />
<glyph unicode="&#x12b;" horiz-adv-x="254" d="M251 575h-242v84h242v-84zM190 0h-126v487h126v-487z" />
<glyph unicode="&#x12c;" horiz-adv-x="392" d="M129 593h-82v97h298v-97h-82v-496h83v-97h-300v97h83v496zM325 859q-1 -25 -8.5 -47t-23 -38t-39.5 -25.5t-58 -9.5t-58 9.5t-39.5 25.5t-23.5 38t-9 47h78q1 -20 14 -33t38 -13q26 0 38.5 13t13.5 33h77v0z" />
<glyph unicode="&#x12d;" horiz-adv-x="254" d="M259 688q-1 -27 -8.5 -51.5t-23 -42.5t-39.5 -28.5t-58 -10.5t-58 10.5t-39.5 28.5t-23.5 42.5t-9 51.5h77q2 -53 53 -53q52 0 54 53h75v0zM190 0h-126v487h126v-487z" />
<glyph unicode="&#x12e;" horiz-adv-x="392" d="M323 -188q-10 -6 -32.5 -15t-58.5 -9q-51 0 -76.5 23.5t-25.5 67.5q0 31 12.5 56t29.5 45l19 20h-145v97h83v496h-82v97h298v-97h-82v-496h83v-97h-67l-4 -4q-8 -8 -16 -18.5t-13.5 -24t-5.5 -29.5q0 -35 34 -35q14 0 24 3t14 5z" />
<glyph unicode="&#x12f;" horiz-adv-x="254" d="M193 -188q-10 -6 -32.5 -15t-58.5 -9q-51 0 -76.5 23.5t-25.5 67.5q0 31 12.5 56t29.5 45q11 13 22 22v485h126v-487h-41l-4 -4q-8 -8 -16 -18.5t-13.5 -24t-5.5 -29.5q0 -35 34 -35q14 0 24 3t14 5zM200 642q0 -33 -20.5 -52.5t-52.5 -19.5q-33 0 -53.5 19.5t-20.5 52.5 q0 34 20.5 53.5t53.5 19.5q32 0 52.5 -19.5t20.5 -53.5z" />
<glyph unicode="&#x130;" horiz-adv-x="392" d="M129 593h-82v97h298v-97h-82v-496h83v-97h-300v97h83v496zM265 802q0 -30 -19.5 -47t-49.5 -17t-49.5 17t-19.5 47q0 31 19.5 48t49.5 17t49.5 -17t19.5 -48z" />
<glyph unicode="&#x131;" horiz-adv-x="254" d="M190 0h-126v487h126v-487z" />
<glyph unicode="&#x132;" horiz-adv-x="760" d="M129 593h-82v97h298v-97h-82v-496h83v-97h-300v97h83v496zM684 186q0 -53 -13 -90.5t-37 -61t-58 -34.5t-76 -11q-41 0 -63 7.5t-30 12.5l9 105q6 -3 19.5 -8.5t34.5 -5.5q43 0 61 20t18 75v495h135v-504z" />
<glyph unicode="&#x133;" horiz-adv-x="520" d="M190 0h-126v487h126v-487zM200 642q0 -33 -20.5 -52.5t-52.5 -19.5q-33 0 -53.5 19.5t-20.5 52.5q0 34 20.5 53.5t53.5 19.5q32 0 52.5 -19.5t20.5 -53.5zM467 642q0 -33 -21 -52.5t-53 -19.5t-53 19.5t-21 52.5q0 34 21 53.5t53 19.5t53 -19.5t21 -53.5zM456 20 q0 -118 -57.5 -174.5t-174.5 -57.5l-8 105q30 2 51.5 9t35.5 22.5t20.5 40t6.5 62.5v460h126v-467z" />
<glyph unicode="&#x134;" horiz-adv-x="368" d="M292 186q0 -53 -13 -90.5t-37 -61t-58 -34.5t-76 -11q-41 0 -63 7.5t-30 12.5l9 105q6 -3 19.5 -8.5t34.5 -5.5q43 0 61 20t18 75v495h135v-504zM279 742l-54 61h-2l-53 -61h-92l78 121h136l78 -121h-91z" />
<glyph unicode="&#x135;" horiz-adv-x="254" d="M190 20q0 -118 -57.5 -174.5t-174.5 -57.5l-8 105q30 2 51.5 9t35.5 22.5t20.5 40t6.5 62.5v460h126v-467zM190 555l-59 75h-2l-60 -75h-89l81 142h137l81 -142h-89z" />
<glyph unicode="&#x136;" horiz-adv-x="625" d="M371 354l250 -354h-162l-199 293h-46v-293h-134v690h134v-287h50l194 287h149zM386 -123q0 -28 -11.5 -48t-28.5 -33.5t-37.5 -21.5t-38.5 -12l-10 39q21 6 38.5 17.5t22.5 34.5h-1q-26 0 -41 14t-15 39t16 38.5t38 13.5q30 0 49 -20.5t19 -60.5z" />
<glyph unicode="&#x137;" horiz-adv-x="503" d="M328 263l165 -263h-152l-116 196h-35v-196h-126v705l126 11v-418h33l118 189h140zM320 -123q0 -28 -11.5 -48t-28.5 -33.5t-37.5 -21.5t-38.5 -12l-10 39q21 6 38.5 17.5t22.5 34.5h-1q-26 0 -41 14t-15 39t16 38.5t38 13.5q30 0 49 -20.5t19 -60.5z" />
<glyph unicode="&#x138;" horiz-adv-x="502" d="M328 259l165 -259h-152l-116 192h-35v-192h-126v487h126v-193h33l118 193h140z" />
<glyph unicode="&#x139;" horiz-adv-x="504" d="M214 690v-580h274l-8 -110h-400v690h134zM318 861l-125 -120h-111l90 122h146v-2z" />
<glyph unicode="&#x13a;" horiz-adv-x="289" d="M188 157q0 -39 10 -52.5t33 -13.5q13 0 22.5 2.5t14.5 4.5l8 -88q-8 -5 -29 -12t-55 -7q-30 0 -54.5 7.5t-41 25t-25.5 46t-9 69.5v566l126 11v-559zM298 867l-125 -120h-111l90 122h146v-2z" />
<glyph unicode="&#x13b;" horiz-adv-x="504" d="M214 690v-580h274l-8 -110h-400v690h134zM348 -123q0 -28 -11.5 -48t-28.5 -33.5t-37.5 -21.5t-38.5 -12l-10 39q21 6 38.5 17.5t22.5 34.5h-1q-26 0 -41 14t-15 39t16 38.5t38 13.5q30 0 49 -20.5t19 -60.5z" />
<glyph unicode="&#x13c;" horiz-adv-x="289" d="M188 157q0 -39 10 -52.5t33 -13.5q13 0 22.5 2.5t14.5 4.5l8 -88q-8 -5 -29 -12t-55 -7q-30 0 -54.5 7.5t-41 25t-25.5 46t-9 69.5v566l126 11v-559zM234 -123q0 -28 -11.5 -48t-28.5 -33.5t-37.5 -21.5t-38.5 -12l-10 39q21 6 38.5 17.5t22.5 34.5h-1q-26 0 -41 14 t-15 39t16 38.5t38 13.5q30 0 49 -20.5t19 -60.5z" />
<glyph unicode="&#x13d;" horiz-adv-x="507" d="M214 690v-580h274l-8 -110h-400v690h134zM456 621q0 -28 -11.5 -48t-28.5 -33.5t-37.5 -21.5t-38.5 -12l-10 39q21 6 38.5 17.5t22.5 34.5h-1q-26 0 -41 14t-15 39t16 38.5t38 13.5q30 0 49 -20.5t19 -60.5z" />
<glyph unicode="&#x13e;" horiz-adv-x="309" d="M188 157q0 -39 10 -52.5t33 -13.5q13 0 22.5 2.5t14.5 4.5l8 -88q-8 -5 -29 -12t-55 -7q-30 0 -54.5 7.5t-41 25t-25.5 46t-9 69.5v566l126 11v-559zM375 641q0 -28 -11.5 -48t-28.5 -33.5t-37.5 -21.5t-38.5 -12l-10 39q21 6 38.5 17.5t22.5 34.5h-1q-26 0 -41 14 t-15 39t16 38.5t38 13.5q30 0 49 -20.5t19 -60.5z" />
<glyph unicode="&#x13f;" horiz-adv-x="505" d="M440 399q0 -31 -17 -48.5t-45 -17.5q-29 0 -46 17.5t-17 48.5t17 48.5t46 17.5q28 0 45 -17.5t17 -48.5zM214 690v-580h274l-8 -110h-400v690h134z" />
<glyph unicode="&#x140;" horiz-adv-x="381" d="M375 365q0 -31 -17 -48.5t-46 -17.5t-46 17.5t-17 48.5q0 32 17 49.5t46 17.5t46 -17.5t17 -49.5zM188 157q0 -39 10 -52.5t33 -13.5q13 0 22.5 2.5t14.5 4.5l8 -88q-8 -5 -29 -12t-55 -7q-30 0 -54.5 7.5t-41 25t-25.5 46t-9 69.5v566l126 11v-559z" />
<glyph unicode="&#x141;" horiz-adv-x="512" d="M222 690v-294l157 102v-84l-157 -102v-202h274l-8 -110h-400v225l-63 -41v84l63 41v381h134z" />
<glyph unicode="&#x142;" horiz-adv-x="313" d="M206 157q0 -39 10 -52.5t33 -13.5q13 0 22.5 2.5t14.5 4.5l8 -88q-8 -5 -29 -12t-55 -7q-30 0 -54.5 7.5t-41 25t-25.5 46t-9 69.5v121l-72 -50v79l72 50v366l126 11v-290l88 61v-79l-88 -61v-190z" />
<glyph unicode="&#x143;" horiz-adv-x="695" d="M615 0h-115l-284 431h-2v-431h-134v690h115l284 -428h2v428h134v-690zM514 861l-125 -120h-111l90 122h146v-2z" />
<glyph unicode="&#x144;" horiz-adv-x="543" d="M357 0v288q0 54 -18.5 78.5t-59.5 24.5q-31 0 -53 -10.5t-36 -23.5v-357h-126v487h116v-54h2q7 9 18.5 20.5t28.5 21.5t40.5 17t53.5 7q78 0 119 -49.5t41 -140.5v-309h-126zM460 692l-128 -136h-110l94 138h144v-2z" />
<glyph unicode="&#x145;" horiz-adv-x="695" d="M615 0h-115l-284 431h-2v-431h-134v690h115l284 -428h2v428h134v-690zM408 -123q0 -28 -11.5 -48t-28.5 -33.5t-37.5 -21.5t-38.5 -12l-10 39q21 6 38.5 17.5t22.5 34.5h-1q-26 0 -41 14t-15 39t16 38.5t38 13.5q30 0 49 -20.5t19 -60.5z" />
<glyph unicode="&#x146;" horiz-adv-x="543" d="M357 0v288q0 54 -18.5 78.5t-59.5 24.5q-31 0 -53 -10.5t-36 -23.5v-357h-126v487h116v-54h2q7 9 18.5 20.5t28.5 21.5t40.5 17t53.5 7q78 0 119 -49.5t41 -140.5v-309h-126zM341 -123q0 -28 -11.5 -48t-28.5 -33.5t-37.5 -21.5t-38.5 -12l-10 39q21 6 38.5 17.5 t22.5 34.5h-1q-26 0 -41 14t-15 39t16 38.5t38 13.5q30 0 49 -20.5t19 -60.5z" />
<glyph unicode="&#x147;" horiz-adv-x="695" d="M615 0h-115l-284 431h-2v-431h-134v690h115l284 -428h2v428h134v-690zM411 747h-136l-78 121h92l53 -61h2l54 61h91z" />
<glyph unicode="&#x148;" horiz-adv-x="543" d="M357 0v288q0 54 -18.5 78.5t-59.5 24.5q-31 0 -53 -10.5t-36 -23.5v-357h-126v487h116v-54h2q7 9 18.5 20.5t28.5 21.5t40.5 17t53.5 7q78 0 119 -49.5t41 -140.5v-309h-126zM352 560h-137l-81 142h89l60 -73h2l59 73h89z" />
<glyph unicode="&#x149;" horiz-adv-x="627" d="M441 0v288q0 54 -18.5 78.5t-59.5 24.5q-31 0 -53 -10.5t-36 -23.5v-357h-126v487h116v-54h2q7 9 18.5 20.5t28.5 21.5t40.5 17t53.5 7q78 0 119 -49.5t41 -140.5v-309h-126zM147 621q0 -28 -11.5 -48t-28.5 -33.5t-37.5 -21.5t-38.5 -12l-10 39q21 6 38.5 17.5 t22.5 34.5h-1q-26 0 -41 14t-15 39t16 38.5t38 13.5q30 0 49 -20.5t19 -60.5z" />
<glyph unicode="&#x14a;" horiz-adv-x="695" d="M373 -57q24 1 43 5t33.5 12.5t23.5 22.5t14 36l-271 412h-2v-431h-134v690h115l284 -428h2v428h134v-614q0 -125 -59 -181t-174 -57z" />
<glyph unicode="&#x14b;" horiz-adv-x="543" d="M323 499q78 0 119 -49.5t41 -140.5v-289q0 -118 -58 -174.5t-174 -57.5l-8 105q30 2 51.5 9t35.5 22.5t20.5 40t6.5 62.5v261q0 54 -18.5 78.5t-59.5 24.5q-31 0 -53 -10.5t-36 -23.5v-357h-126v487h116v-54h2q7 9 18.5 20.5t28.5 21.5t40.5 17t53.5 7z" />
<glyph unicode="&#x14c;" horiz-adv-x="724" d="M676 345q0 -88 -23 -155t-65 -112t-99.5 -67.5t-126.5 -22.5t-127 22.5t-99.5 67.5t-64.5 112t-23 155t23.5 155t65 112t99.5 67.5t127 22.5t126.5 -22.5t99 -67.5t64.5 -112t23 -155zM536 345q0 124 -46.5 184t-126.5 60q-82 0 -128 -59.5t-46 -184.5q0 -123 46 -183.5 t128 -60.5q81 0 127 60.5t46 183.5zM478 748h-232v84h232v-84z" />
<glyph unicode="&#x14d;" horiz-adv-x="527" d="M487 244q0 -65 -19 -113t-50.5 -79.5t-72.5 -47.5t-85 -16q-46 0 -86 15t-70 46.5t-47 80t-17 114.5q0 64 19 112t50.5 80t72.5 47.5t85 15.5q46 0 86.5 -15t70 -46t46.5 -79.5t17 -114.5zM358 244q0 40 -7.5 68.5t-20.5 45.5t-30 25t-36 8q-39 0 -67 -34t-28 -113 q0 -81 28 -114.5t67 -33.5q19 0 36.5 8t30 26t20 46t7.5 68zM384 575h-242v84h242v-84z" />
<glyph unicode="&#x14e;" horiz-adv-x="724" d="M676 345q0 -88 -23 -155t-65 -112t-99.5 -67.5t-126.5 -22.5t-127 22.5t-99.5 67.5t-64.5 112t-23 155t23.5 155t65 112t99.5 67.5t127 22.5t126.5 -22.5t99 -67.5t64.5 -112t23 -155zM536 345q0 124 -46.5 184t-126.5 60q-82 0 -128 -59.5t-46 -184.5q0 -123 46 -183.5 t128 -60.5q81 0 127 60.5t46 183.5zM491 859q-1 -25 -8.5 -47t-23 -38t-39.5 -25.5t-58 -9.5t-58 9.5t-39.5 25.5t-23.5 38t-9 47h78q1 -20 14 -33t38 -13q26 0 38.5 13t13.5 33h77v0z" />
<glyph unicode="&#x14f;" horiz-adv-x="527" d="M487 244q0 -65 -19 -113t-50.5 -79.5t-72.5 -47.5t-85 -16q-46 0 -86 15t-70 46.5t-47 80t-17 114.5q0 64 19 112t50.5 80t72.5 47.5t85 15.5q46 0 86.5 -15t70 -46t46.5 -79.5t17 -114.5zM358 244q0 40 -7.5 68.5t-20.5 45.5t-30 25t-36 8q-39 0 -67 -34t-28 -113 q0 -81 28 -114.5t67 -33.5q19 0 36.5 8t30 26t20 46t7.5 68zM392 688q-1 -27 -8.5 -51.5t-23 -42.5t-39.5 -28.5t-58 -10.5t-58 10.5t-39.5 28.5t-23.5 42.5t-9 51.5h77q2 -53 53 -53q52 0 54 53h75v0z" />
<glyph unicode="&#x150;" horiz-adv-x="724" d="M676 345q0 -88 -23 -155t-65 -112t-99.5 -67.5t-126.5 -22.5t-127 22.5t-99.5 67.5t-64.5 112t-23 155t23.5 155t65 112t99.5 67.5t127 22.5t126.5 -22.5t99 -67.5t64.5 -112t23 -155zM536 345q0 124 -46.5 184t-126.5 60q-82 0 -128 -59.5t-46 -184.5q0 -123 46 -183.5 t128 -60.5q81 0 127 60.5t46 183.5zM417 862l-95 -120h-83l73 122h105v-2zM570 862l-96 -120h-82l72 122h106v-2z" />
<glyph unicode="&#x151;" horiz-adv-x="527" d="M487 244q0 -65 -19 -113t-50.5 -79.5t-72.5 -47.5t-85 -16q-46 0 -86 15t-70 46.5t-47 80t-17 114.5q0 64 19 112t50.5 80t72.5 47.5t85 15.5q46 0 86.5 -15t70 -46t46.5 -79.5t17 -114.5zM358 244q0 40 -7.5 68.5t-20.5 45.5t-30 25t-36 8q-39 0 -67 -34t-28 -113 q0 -81 28 -114.5t67 -33.5q19 0 36.5 8t30 26t20 46t7.5 68zM323 692l-102 -136h-82l80 138h104v-2zM476 692l-102 -136h-83l81 138h104v-2z" />
<glyph unicode="&#x152;" horiz-adv-x="927" d="M858 580h-259v-177h240v-110h-240v-183h292l-8 -110h-403q-20 -4 -44.5 -6.5t-56.5 -2.5q-72 0 -132.5 21t-104.5 64t-69 109.5t-25 157.5v3q0 89 27 155q28 67 75 111t110 65.5t134 21.5q35 0 57.5 -3t41.5 -6h373zM445 107q11 1 20 3v471q-3 1 -6 1q-19 4 -55 4 q-47 0 -87 -14.5t-68.5 -44t-44.5 -75t-16 -106.5q0 -125 54 -183.5t149 -58.5q33 0 54 3z" />
<glyph unicode="&#x153;" horiz-adv-x="798" d="M751 304q0 -33 -2.5 -55.5t-5.5 -39.5h-260q5 -62 38 -88.5t93 -26.5q24 0 43.5 4.5t34 11t24 13t14.5 10.5l29 -88l-17 -14.5t-31 -19t-50 -16.5t-72 -7q-64 0 -105 25.5t-61 61.5h-2q-21 -37 -60 -62t-101 -25q-45 0 -85 15t-70 46.5t-47.5 80t-17.5 114.5t18 114.5 t48.5 79.5t71 46t85.5 15q56 0 95.5 -23t63.5 -61h2q23 38 63.5 61t97.5 23q75 0 120.5 -48t45.5 -147zM360 244q0 79 -28 113t-66 34q-39 0 -67 -34t-28 -113q0 -40 7.5 -68t20.5 -46t30 -26t37 -8q19 0 36.5 8t30 26t20 46t7.5 68zM570 401q-38 0 -62 -27t-26 -81h156 q1 7 1 12.5v10.5q0 39 -17.5 62t-51.5 23z" />
<glyph unicode="&#x154;" horiz-adv-x="601" d="M428 0l-147 252q-10 -1 -20.5 -1h-21.5h-25v-251h-134v690h164q146 0 215 -55t69 -160q0 -64 -29.5 -113t-89.5 -78l177 -284h-158zM388 474q0 54 -35 80t-109 26h-30v-223h25q76 0 112.5 30.5t36.5 86.5zM450 861l-125 -120h-111l90 122h146v-2z" />
<glyph unicode="&#x155;" horiz-adv-x="358" d="M334 382q-3 2 -12.5 4t-24.5 2q-42 0 -68 -15t-39 -35v-338h-126v487h116v-68h2q17 33 44.5 55t76.5 22q14 0 24.5 -1.5t15.5 -2.5zM379 692l-128 -136h-110l94 138h144v-2z" />
<glyph unicode="&#x156;" horiz-adv-x="601" d="M428 0l-147 252q-10 -1 -20.5 -1h-21.5h-25v-251h-134v690h164q146 0 215 -55t69 -160q0 -64 -29.5 -113t-89.5 -78l177 -284h-158zM388 474q0 54 -35 80t-109 26h-30v-223h25q76 0 112.5 30.5t36.5 86.5zM377 -123q0 -28 -11.5 -48t-28.5 -33.5t-37.5 -21.5t-38.5 -12 l-10 39q21 6 38.5 17.5t22.5 34.5h-1q-26 0 -41 14t-15 39t16 38.5t38 13.5q30 0 49 -20.5t19 -60.5z" />
<glyph unicode="&#x157;" horiz-adv-x="358" d="M334 382q-3 2 -12.5 4t-24.5 2q-42 0 -68 -15t-39 -35v-338h-126v487h116v-68h2q17 33 44.5 55t76.5 22q14 0 24.5 -1.5t15.5 -2.5zM191 -123q0 -28 -11.5 -48t-28.5 -33.5t-37.5 -21.5t-38.5 -12l-10 39q21 6 38.5 17.5t22.5 34.5h-1q-26 0 -41 14t-15 39t16 38.5 t38 13.5q30 0 49 -20.5t19 -60.5z" />
<glyph unicode="&#x158;" horiz-adv-x="601" d="M428 0l-147 252q-10 -1 -20.5 -1h-21.5h-25v-251h-134v690h164q146 0 215 -55t69 -160q0 -64 -29.5 -113t-89.5 -78l177 -284h-158zM388 474q0 54 -35 80t-109 26h-30v-223h25q76 0 112.5 30.5t36.5 86.5zM347 747h-136l-78 121h92l53 -61h2l54 61h91z" />
<glyph unicode="&#x159;" horiz-adv-x="358" d="M334 382q-3 2 -12.5 4t-24.5 2q-42 0 -68 -15t-39 -35v-338h-126v487h116v-68h2q17 33 44.5 55t76.5 22q14 0 24.5 -1.5t15.5 -2.5zM271 560h-137l-81 142h89l60 -73h2l59 73h89z" />
<glyph unicode="&#x15a;" horiz-adv-x="506" d="M398 542q-7 5 -17.5 13.5t-26 16t-35 13t-44.5 5.5q-48 0 -70.5 -18t-22.5 -44q0 -32 17 -52.5t59 -45.5l75 -46q35 -22 60.5 -43.5t42 -45.5t24.5 -51.5t8 -60.5q0 -36 -13 -71t-41.5 -62.5t-73 -44.5t-107.5 -17q-42 0 -74 8t-55 18.5t-38.5 22l-24.5 18.5l44 112 q9 -9 22.5 -20t32 -21t41.5 -17t50 -7q54 0 79 19t25 45q0 34 -16.5 56.5t-56.5 48.5l-75 50q-36 24 -61.5 45.5t-42 45.5t-24.5 51t-8 62q0 37 15 69t43.5 56t69 38t92.5 14q36 0 64 -6t48.5 -15t34.5 -18t22 -15zM433 861l-125 -120h-111l90 122h146v-2z" />
<glyph unicode="&#x15b;" horiz-adv-x="406" d="M323 363q-5 4 -14.5 10t-22 12t-29 10t-35.5 4q-32 0 -48.5 -10t-16.5 -24q0 -19 14.5 -30.5t48.5 -28.5l29 -14q28 -14 50.5 -28.5t38.5 -33t25 -41t9 -52.5q0 -68 -46.5 -108.5t-137.5 -40.5q-33 0 -58 5.5t-44 13t-32 16.5t-22 17l39 102q7 -7 18 -16t25.5 -16.5 t32 -13t37.5 -5.5q32 0 51.5 9.5t19.5 26.5q0 11 -4 19t-12.5 15t-22 14l-32.5 17l-29 15q-51 25 -80.5 59.5t-29.5 92.5q0 32 13 58t36.5 44t55 28t69.5 10q30 0 53 -5t39.5 -12t27.5 -14.5t17 -12.5zM385 692l-128 -136h-110l94 138h144v-2z" />
<glyph unicode="&#x15c;" horiz-adv-x="506" d="M398 542q-7 5 -17.5 13.5t-26 16t-35 13t-44.5 5.5q-48 0 -70.5 -18t-22.5 -44q0 -32 17 -52.5t59 -45.5l75 -46q35 -22 60.5 -43.5t42 -45.5t24.5 -51.5t8 -60.5q0 -36 -13 -71t-41.5 -62.5t-73 -44.5t-107.5 -17q-42 0 -74 8t-55 18.5t-38.5 22l-24.5 18.5l44 112 q9 -9 22.5 -20t32 -21t41.5 -17t50 -7q54 0 79 19t25 45q0 34 -16.5 56.5t-56.5 48.5l-75 50q-36 24 -61.5 45.5t-42 45.5t-24.5 51t-8 62q0 37 15 69t43.5 56t69 38t92.5 14q36 0 64 -6t48.5 -15t34.5 -18t22 -15zM317 742l-54 61h-2l-53 -61h-92l78 121h136l78 -121h-91z " />
<glyph unicode="&#x15d;" horiz-adv-x="406" d="M323 363q-5 4 -14.5 10t-22 12t-29 10t-35.5 4q-32 0 -48.5 -10t-16.5 -24q0 -19 14.5 -30.5t48.5 -28.5l29 -14q28 -14 50.5 -28.5t38.5 -33t25 -41t9 -52.5q0 -68 -46.5 -108.5t-137.5 -40.5q-33 0 -58 5.5t-44 13t-32 16.5t-22 17l39 102q7 -7 18 -16t25.5 -16.5 t32 -13t37.5 -5.5q32 0 51.5 9.5t19.5 26.5q0 11 -4 19t-12.5 15t-22 14l-32.5 17l-29 15q-51 25 -80.5 59.5t-29.5 92.5q0 32 13 58t36.5 44t55 28t69.5 10q30 0 53 -5t39.5 -12t27.5 -14.5t17 -12.5zM269 555l-59 75h-2l-60 -75h-89l81 142h137l81 -142h-89z" />
<glyph unicode="&#x15e;" horiz-adv-x="506" d="M343 -124q0 -42 -30.5 -64.5t-86.5 -22.5q-26 0 -43 5t-27 10v56q7 -5 20.5 -8t30.5 -3q43 0 43 29q0 17 -16.5 27t-58.5 10l-3 3l36 71q-27 2 -49 7q-32 8 -55 18.5t-38.5 22l-24.5 18.5l44 112q9 -9 22.5 -20t32 -21t41.5 -17t50 -7q54 0 79 19t25 45q0 34 -16.5 56.5 t-56.5 48.5l-75 50q-36 24 -61.5 45.5t-42 45.5t-24.5 51t-8 62q0 37 15 69t43.5 56t69 38t92.5 14q36 0 64 -6t48.5 -15t34.5 -18t22 -15l-42 -106q-7 5 -17.5 13.5t-26 16t-35 13t-44.5 5.5q-48 0 -70.5 -18t-22.5 -44q0 -32 17 -52.5t59 -45.5l75 -46q35 -22 60.5 -43.5 t42 -45.5t24.5 -51.5t8 -60.5q0 -36 -13 -71t-41.5 -62.5t-73.5 -44.5q-26 -10 -60 -14l-21 -42q43 -2 63.5 -22.5t20.5 -50.5z" />
<glyph unicode="&#x15f;" horiz-adv-x="406" d="M301 -124q0 -42 -30.5 -64.5t-86.5 -22.5q-26 0 -43 5t-27 10v56q7 -5 20.5 -8t30.5 -3q43 0 43 29q0 17 -16.5 27t-58.5 10l-3 3l36 71q-20 1 -36 5q-25 5 -44 12.5t-32 16.5t-22 17l39 102q7 -7 18 -16t25.5 -16.5t32 -13t37.5 -5.5q32 0 51.5 9.5t19.5 26.5 q0 11 -4 19t-12.5 15t-22 14l-32.5 17l-29 15q-51 25 -80.5 59.5t-29.5 92.5q0 32 13 58t36.5 44t55 28t69.5 10q30 0 53 -5t39.5 -12t27.5 -14.5t17 -12.5l-33 -92q-5 4 -14.5 10t-22 12t-29 10t-35.5 4q-32 0 -48.5 -10t-16.5 -24q0 -19 14.5 -30.5t48.5 -28.5l29 -14 q28 -14 50.5 -28.5t38.5 -33t25 -41t9 -52.5q0 -68 -47 -109q-32 -28 -86 -36l-22 -43q43 -2 63.5 -22.5t20.5 -50.5z" />
<glyph unicode="&#x160;" horiz-adv-x="506" d="M398 542q-7 5 -17.5 13.5t-26 16t-35 13t-44.5 5.5q-48 0 -70.5 -18t-22.5 -44q0 -32 17 -52.5t59 -45.5l75 -46q35 -22 60.5 -43.5t42 -45.5t24.5 -51.5t8 -60.5q0 -36 -13 -71t-41.5 -62.5t-73 -44.5t-107.5 -17q-42 0 -74 8t-55 18.5t-38.5 22l-24.5 18.5l44 112 q9 -9 22.5 -20t32 -21t41.5 -17t50 -7q54 0 79 19t25 45q0 34 -16.5 56.5t-56.5 48.5l-75 50q-36 24 -61.5 45.5t-42 45.5t-24.5 51t-8 62q0 37 15 69t43.5 56t69 38t92.5 14q36 0 64 -6t48.5 -15t34.5 -18t22 -15zM330 747h-136l-78 121h92l53 -61h2l54 61h91z" />
<glyph unicode="&#x161;" horiz-adv-x="406" d="M323 363q-5 4 -14.5 10t-22 12t-29 10t-35.5 4q-32 0 -48.5 -10t-16.5 -24q0 -19 14.5 -30.5t48.5 -28.5l29 -14q28 -14 50.5 -28.5t38.5 -33t25 -41t9 -52.5q0 -68 -46.5 -108.5t-137.5 -40.5q-33 0 -58 5.5t-44 13t-32 16.5t-22 17l39 102q7 -7 18 -16t25.5 -16.5 t32 -13t37.5 -5.5q32 0 51.5 9.5t19.5 26.5q0 11 -4 19t-12.5 15t-22 14l-32.5 17l-29 15q-51 25 -80.5 59.5t-29.5 92.5q0 32 13 58t36.5 44t55 28t69.5 10q30 0 53 -5t39.5 -12t27.5 -14.5t17 -12.5zM277 560h-137l-81 142h89l60 -73h2l59 73h89z" />
<glyph unicode="&#x162;" horiz-adv-x="579" d="M379 -124q0 -42 -30.5 -64.5t-86.5 -22.5q-26 0 -43 5t-27 10v56q7 -5 20.5 -8t30.5 -3q43 0 43 29q0 17 -16.5 27t-58.5 10l-3 3l42 82h-28v580h-202v110h544l-8 -110h-200v-580h-35l-26 -51q43 -2 63.5 -22.5t20.5 -50.5z" />
<glyph unicode="&#x163;" horiz-adv-x="364" d="M312 -124q0 -42 -30.5 -64.5t-86.5 -22.5q-26 0 -43 5t-27 10v56q7 -5 20.5 -8t30.5 -3q43 0 43 29q0 17 -16.5 27t-58.5 10l-3 3l41 80l-6 2q-29 10 -48.5 32.5t-29 58t-9.5 87.5v209h-66v86l66 12l14 136h112v-134h123l-11 -100h-112v-197q0 -54 15 -74t50 -20 q17 0 31 3.5t20 5.5l9 -93q-8 -4 -29.5 -13t-61.5 -9l-21 -41q43 -2 63.5 -22.5t20.5 -50.5z" />
<glyph unicode="&#x164;" horiz-adv-x="579" d="M556 580h-200v-580h-134v580h-202v110h544zM357 747h-136l-78 121h92l53 -61h2l54 61h91z" />
<glyph unicode="&#x165;" horiz-adv-x="364" d="M327 387h-112v-197q0 -54 15 -74t50 -20q17 0 31 3.5t20 5.5l9 -93q-8 -4 -29.5 -13t-63.5 -9q-41 0 -70.5 10t-49 32.5t-29 58t-9.5 87.5v209h-66v86l66 12l14 136h112v-134h123zM432 645q0 -28 -11.5 -48t-28.5 -33.5t-37.5 -21.5t-38.5 -12l-10 39q21 6 38.5 17.5 t22.5 34.5h-1q-26 0 -41 14t-15 39t16 38.5t38 13.5q30 0 49 -20.5t19 -60.5z" />
<glyph unicode="&#x166;" horiz-adv-x="579" d="M556 580h-200v-215h134v-71h-134v-294h-134v294h-134v71h134v215h-202v110h544z" />
<glyph unicode="&#x167;" horiz-adv-x="365" d="M328 387h-112v-82h93v-61h-93v-54q0 -54 15 -74t50 -20q17 0 31 3.5t20 5.5l9 -93q-8 -4 -29.5 -13t-63.5 -9q-41 0 -70.5 10t-49 32.5t-29 58t-9.5 87.5v66h-51v61h51v82h-66v86l66 12l14 136h112v-134h123z" />
<glyph unicode="&#x168;" horiz-adv-x="681" d="M608 289q0 -301 -272 -301q-137 0 -200 72.5t-63 228.5v401h134v-405q0 -97 32.5 -140.5t101.5 -43.5q72 0 105 43t33 141v405h129v-401zM489 850q-2 -57 -21.5 -84t-62.5 -27q-21 0 -38 6t-32 13l-28.5 13t-27.5 6q-15 0 -21 -9t-7 -26h-60q1 112 84 112q21 0 38 -6 t32 -13l28.5 -13t27.5 -6q26 0 28 34h60v0z" />
<glyph unicode="&#x169;" horiz-adv-x="538" d="M474 0h-115v55h-2q-7 -9 -18 -20.5t-27.5 -22t-39.5 -17.5t-54 -7q-78 0 -118 49t-40 141v309h126v-287q0 -56 17.5 -80t58.5 -24q31 0 51.5 10t34.5 23v358h126v-487zM416 683q0 -57 -19 -90.5t-65 -33.5q-21 0 -38.5 7.5t-32 16l-28 16t-26.5 7.5q-16 0 -21.5 -11 t-7.5 -30h-60q0 57 18.5 90t65.5 33q21 0 38 -7t32 -16t28.5 -16t26.5 -7q15 0 21.5 10.5t7.5 30.5h60v0z" />
<glyph unicode="&#x16a;" horiz-adv-x="681" d="M608 289q0 -301 -272 -301q-137 0 -200 72.5t-63 228.5v401h134v-405q0 -97 32.5 -140.5t101.5 -43.5q72 0 105 43t33 141v405h129v-401zM456 748h-232v84h232v-84z" />
<glyph unicode="&#x16b;" horiz-adv-x="538" d="M474 0h-115v55h-2q-7 -9 -18 -20.5t-27.5 -22t-39.5 -17.5t-54 -7q-78 0 -118 49t-40 141v309h126v-287q0 -56 17.5 -80t58.5 -24q31 0 51.5 10t34.5 23v358h126v-487zM388 575h-242v84h242v-84z" />
<glyph unicode="&#x16c;" horiz-adv-x="681" d="M608 289q0 -301 -272 -301q-137 0 -200 72.5t-63 228.5v401h134v-405q0 -97 32.5 -140.5t101.5 -43.5q72 0 105 43t33 141v405h129v-401zM469 859q-1 -25 -8.5 -47t-23 -38t-39.5 -25.5t-58 -9.5t-58 9.5t-39.5 25.5t-23.5 38t-9 47h78q1 -20 14 -33t38 -13q26 0 38.5 13 t13.5 33h77v0z" />
<glyph unicode="&#x16d;" horiz-adv-x="538" d="M474 0h-115v55h-2q-7 -9 -18 -20.5t-27.5 -22t-39.5 -17.5t-54 -7q-78 0 -118 49t-40 141v309h126v-287q0 -56 17.5 -80t58.5 -24q31 0 51.5 10t34.5 23v358h126v-487zM396 688q-1 -27 -8.5 -51.5t-23 -42.5t-39.5 -28.5t-58 -10.5t-58 10.5t-39.5 28.5t-23.5 42.5 t-9 51.5h77q2 -53 53 -53q52 0 54 53h75v0z" />
<glyph unicode="&#x16e;" horiz-adv-x="681" d="M608 289q0 -301 -272 -301q-137 0 -200 72.5t-63 228.5v401h134v-405q0 -97 32.5 -140.5t101.5 -43.5q72 0 105 43t33 141v405h129v-401zM435 812q0 -38 -27 -61.5t-68 -23.5t-68 23.5t-27 61.5q0 39 27 62t68 23t68 -23t27 -62zM375 812q0 16 -10.5 23t-24.5 7t-24.5 -7 t-10.5 -23q0 -15 10.5 -22t24.5 -7t24.5 7t10.5 22z" />
<glyph unicode="&#x16f;" horiz-adv-x="538" d="M474 0h-115v55h-2q-7 -9 -18 -20.5t-27.5 -22t-39.5 -17.5t-54 -7q-78 0 -118 49t-40 141v309h126v-287q0 -56 17.5 -80t58.5 -24q31 0 51.5 10t34.5 23v358h126v-487zM361 639q0 -41 -26 -65.5t-68 -24.5t-68 24.5t-26 65.5q0 42 26 66t68 24t68 -24t26 -66zM300 639 q0 17 -9.5 26t-23.5 9t-24 -9t-10 -26t10 -26t24 -9t23.5 9t9.5 26z" />
<glyph unicode="&#x170;" horiz-adv-x="681" d="M608 289q0 -301 -272 -301q-137 0 -200 72.5t-63 228.5v401h134v-405q0 -97 32.5 -140.5t101.5 -43.5q72 0 105 43t33 141v405h129v-401zM395 862l-95 -120h-83l73 122h105v-2zM548 862l-96 -120h-82l72 122h106v-2z" />
<glyph unicode="&#x171;" horiz-adv-x="538" d="M474 0h-115v55h-2q-7 -9 -18 -20.5t-27.5 -22t-39.5 -17.5t-54 -7q-78 0 -118 49t-40 141v309h126v-287q0 -56 17.5 -80t58.5 -24q31 0 51.5 10t34.5 23v358h126v-487zM327 692l-102 -136h-82l80 138h104v-2zM480 692l-102 -136h-83l81 138h104v-2z" />
<glyph unicode="&#x172;" horiz-adv-x="681" d="M445 -188q-10 -6 -32.5 -15t-58.5 -9q-51 0 -76.5 23.5t-25.5 67.5q0 31 12.5 56t29.5 45q4 5 8 9q-111 8 -166 71q-63 73 -63 229v401h134v-405q0 -97 32.5 -140.5t101.5 -43.5q72 0 105 43t33 141v405h129v-401q0 -268 -216 -297q-5 -7 -11 -14q-8 -11 -13.5 -24.5 t-5.5 -29.5q0 -35 34 -35q14 0 24 3t14 5z" />
<glyph unicode="&#x173;" horiz-adv-x="538" d="M485 -188q-10 -6 -32.5 -15t-58.5 -9q-51 0 -76.5 23.5t-25.5 67.5q0 31 12.5 56t29.5 45q12 14 25 25v50h-2q-7 -9 -18 -20.5t-27.5 -22t-39.5 -17.5t-54 -7q-78 0 -118 49t-40 141v309h126v-287q0 -56 17.5 -80t58.5 -24q31 0 51.5 10t34.5 23v358h126v-487h-33l-4 -4 q-8 -8 -16 -18.5t-13.5 -24t-5.5 -29.5q0 -35 34 -35q14 0 24 3t14 5z" />
<glyph unicode="&#x174;" horiz-adv-x="893" d="M692 0h-111l-134 467h-2l-133 -467h-111l-187 690h146l104 -477h2l123 477h127l121 -477h2l105 477h136zM504 742l-54 61h-2l-53 -61h-92l78 121h136l78 -121h-91z" />
<glyph unicode="&#x175;" horiz-adv-x="728" d="M552 0h-104l-78 227h-2l-88 -227h-104l-169 487h136l94 -325h2l83 203l-42 122h124l100 -325h2l91 325h124zM417 555l-59 75h-2l-60 -75h-89l81 142h137l81 -142h-89z" />
<glyph unicode="&#x176;" horiz-adv-x="577" d="M356 263v-263h-134v262l-221 428h151l140 -297h2l138 297h143zM348 742l-54 61h-2l-53 -61h-92l78 121h136l78 -121h-91z" />
<glyph unicode="&#x177;" horiz-adv-x="469" d="M298 6q-20 -59 -40 -99.5t-45 -65.5t-56 -36t-74 -11q-21 0 -33.5 3.5t-15.5 5.5v106q3 -2 14 -4.5t27 -2.5q48 0 71 22.5t35 62.5l5 18l-181 482h137l101 -325h2l91 325h125zM304 555l-59 75h-2l-60 -75h-89l81 142h137l81 -142h-89z" />
<glyph unicode="&#x178;" horiz-adv-x="577" d="M356 263v-263h-134v262l-221 428h151l140 -297h2l138 297h143zM255 799q0 -28 -18 -45t-47 -17t-47 17t-18 45q0 29 18 46t47 17t47 -17t18 -46zM461 799q0 -28 -18 -45t-47 -17t-47 17t-18 45q0 29 18 46t47 17t47 -17t18 -46z" />
<glyph unicode="&#x179;" horiz-adv-x="571" d="M517 617l-307 -505v-2h330l-8 -110h-498v77l313 503v2h-293v108h463v-73zM456 861l-125 -120h-111l90 122h146v-2z" />
<glyph unicode="&#x17a;" horiz-adv-x="443" d="M395 413l-194 -311v-2h210l-11 -100h-365v74l202 311v2h-189v100h347v-74zM399 692l-128 -136h-110l94 138h144v-2z" />
<glyph unicode="&#x17b;" horiz-adv-x="571" d="M517 617l-307 -505v-2h330l-8 -110h-498v77l313 503v2h-293v108h463v-73zM353 802q0 -30 -19.5 -47t-49.5 -17t-49.5 17t-19.5 47q0 31 19.5 48t49.5 17t49.5 -17t19.5 -48z" />
<glyph unicode="&#x17c;" horiz-adv-x="443" d="M395 413l-194 -311v-2h210l-11 -100h-365v74l202 311v2h-189v100h347v-74zM292 629q0 -31 -19.5 -49.5t-49.5 -18.5t-49 18.5t-19 49.5q0 30 19 48.5t49 18.5t49.5 -18.5t19.5 -48.5z" />
<glyph unicode="&#x17d;" horiz-adv-x="571" d="M517 617l-307 -505v-2h330l-8 -110h-498v77l313 503v2h-293v108h463v-73zM352 747h-136l-78 121h92l53 -61h2l54 61h91z" />
<glyph unicode="&#x17e;" horiz-adv-x="443" d="M395 413l-194 -311v-2h210l-11 -100h-365v74l202 311v2h-189v100h347v-74zM291 560h-137l-81 142h89l60 -73h2l59 73h89z" />
<glyph unicode="&#x18f;" horiz-adv-x="644" d="M594 339q0 -171 -75 -260.5t-215 -89.5q-116 0 -183.5 67t-67.5 201q0 38 2.5 65t5.5 51h392q-5 112 -52 163.5t-131 51.5q-36 0 -65.5 -7t-52 -16.5t-38 -20.5l-25.5 -18l-40 95q10 8 29.5 21.5t49.5 26.5t70.5 22.5t92.5 9.5q69 0 124.5 -21.5t95.5 -66t61.5 -112.5 t21.5 -162zM312 97q66 0 101 44t40 129h-266v-24q0 -71 31 -110t94 -39z" />
<glyph unicode="&#x192;" horiz-adv-x="364" d="M388 546q-5 2 -17 5.5t-29 3.5q-30 0 -51 -14.5t-28 -58.5l-19 -132h102l-13 -101h-104l-28 -191q-9 -60 -26.5 -101.5t-46.5 -68t-71.5 -38.5t-101.5 -12l-5 103q30 1 52.5 7t38 19t24.5 35.5t14 57.5l26 189h-77l12 86l77 15l19 137q6 45 24 77.5t44 54t59.5 32 t70.5 10.5q27 0 47.5 -5t25.5 -8z" />
<glyph unicode="&#x1b5;" horiz-adv-x="570" d="M517 617l-140 -230h106v-70h-149l-124 -205v-2h330l-8 -110h-498v77l149 240h-105v70h149l120 193v2h-293v108h463v-73z" />
<glyph unicode="&#x1b6;" horiz-adv-x="442" d="M395 413l-85 -136h66v-57h-102l-73 -118v-2h210l-11 -100h-365v74l95 146h-64v57h101l70 108v2h-189v100h347v-74z" />
<glyph unicode="&#x1fa;" horiz-adv-x="621" d="M403 725q0 -37 -27 -59l-4 -2l244 -664h-145l-60 186h-213l-60 -186h-134l242 658l-12 8q-27 22 -27 59q0 36 27 57.5t71 21.5t71 -21.5t27 -57.5zM306 518h-2l-76 -236h154zM397 857l-186 -54v44l186 78v-68zM341 725q0 16 -11 23.5t-25 7.5t-25 -7.5t-11 -23.5 q0 -17 11 -24.5t25 -7.5t25 7.5t11 24.5z" />
<glyph unicode="&#x1fb;" horiz-adv-x="463" d="M37 134q0 38 17.5 66t47.5 46t70.5 27t87.5 9h20v17q0 95 -82 95q-23 0 -41 -5t-32.5 -12.5t-25 -15.5t-16.5 -14l-39 80q9 9 24 21.5t37 23.5t51.5 19t67.5 8q86 0 132 -49t46 -155v-164q0 -42 2.5 -75t5.5 -56h-116q-1 11 -2 25.5t-1 28.5h-2q-6 -11 -15.5 -23 t-23 -21.5t-32.5 -15.5t-45 -6q-60 0 -98 40t-38 106zM209 86q27 0 43.5 9.5t27.5 20.5v90l-25 -1q-49 -3 -74 -16.5t-25 -42.5q0 -26 15 -43t38 -17zM259 623q0 16 -10.5 23.5t-24.5 7.5t-24.5 -7.5t-10.5 -23.5q0 -17 10.5 -24.5t24.5 -7.5t24.5 7.5t10.5 24.5zM317 623 q0 -35 -25.5 -56t-67.5 -21t-68 21t-26 56q0 34 26 55t68 21t67.5 -21t25.5 -55zM310 752l-172 -51v43l172 77v-69z" />
<glyph unicode="&#x1fc;" horiz-adv-x="778" d="M710 580h-301l61 -177h221v-110h-183l63 -183h172l-8 -110h-264l-60 186h-213l-60 -186h-134l254 690h460zM306 518h-2l-76 -236h154zM641 861l-125 -120h-111l90 122h146v-2z" />
<glyph unicode="&#x1fd;" horiz-adv-x="717" d="M671 303q0 -34 -2.5 -56.5t-5.5 -39.5h-261q6 -60 39 -86.5t93 -26.5q24 0 43 4.5t33.5 11t24.5 13t15 10.5l29 -88l-17 -14.5t-31.5 -19t-51 -16.5t-73.5 -7q-54 0 -98.5 17t-75.5 55q-8 -12 -21 -24.5t-31.5 -23t-43 -17.5t-55.5 -7q-69 0 -106.5 40.5t-37.5 105.5 q0 38 17.5 66.5t47.5 47t70.5 28t87.5 9.5h20v14q0 95 -82 95q-23 0 -41 -5t-32.5 -12.5t-25 -15.5t-16.5 -14l-39 80q9 9 24 21.5t37 23.5t51.5 19t67.5 8q51 0 82.5 -19t48.5 -50h2q57 69 148 69q77 0 121.5 -49t44.5 -147zM490 401q-38 0 -62.5 -27t-26.5 -83h157 q1 6 1 12v11q0 42 -18 64.5t-51 22.5zM212 86q32 0 53 14t32 26q-11 34 -16 82l-26 -1q-99 -5 -99 -60q0 -26 15 -43.5t41 -17.5zM531 692l-128 -136h-110l94 138h144v-2z" />
<glyph unicode="&#x1fe;" horiz-adv-x="724" d="M589 611q42 -45 64.5 -111.5t22.5 -154.5t-23 -155t-65 -112t-99.5 -67.5t-126.5 -22.5q-100 0 -173 46l-48 -70h-86l80 115q-42 45 -64.5 111.5t-22.5 154.5t23.5 155t65 112t99.5 67.5t127 22.5q49 0 92.5 -11.5t79.5 -34.5l48 70h86zM536 345q0 47 -7 84t-20 66 l-250 -360q41 -34 104 -34q81 0 127 60.5t46 183.5zM189 345q0 -92 26 -150l250 360q-41 34 -102 34q-82 0 -128 -59.5t-46 -184.5zM534 861l-125 -120h-111l90 122h146v-2z" />
<glyph unicode="&#x1ff;" horiz-adv-x="527" d="M439 692l-128 -136h-110l94 138h144v-2zM487 244q0 -65 -19 -113t-50.5 -79.5t-72.5 -47.5t-85 -16q-64 0 -112 27l-34 -51h-74l60 90q-29 32 -44.5 78.5t-15.5 111.5q0 64 19 112t50.5 80t72.5 47.5t85 15.5q62 0 112 -27l34 51h74l-60 -89q29 -32 44.5 -79t15.5 -111z M365 244q0 47 -11 80l-144 -216q11 -9 25 -13t29 -4q42 0 71.5 35.5t29.5 117.5zM162 244q0 -48 11 -81l144 216q-23 17 -53 17q-42 0 -72 -35.5t-30 -116.5z" />
<glyph unicode="&#x218;" horiz-adv-x="506" d="M398 542q-7 5 -17.5 13.5t-26 16t-35 13t-44.5 5.5q-48 0 -70.5 -18t-22.5 -44q0 -32 17 -52.5t59 -45.5l75 -46q35 -22 60.5 -43.5t42 -45.5t24.5 -51.5t8 -60.5q0 -36 -13 -71t-41.5 -62.5t-73 -44.5t-107.5 -17q-42 0 -74 8t-55 18.5t-38.5 22l-24.5 18.5l44 112 q9 -9 22.5 -20t32 -21t41.5 -17t50 -7q54 0 79 19t25 45q0 34 -16.5 56.5t-56.5 48.5l-75 50q-36 24 -61.5 45.5t-42 45.5t-24.5 51t-8 62q0 37 15 69t43.5 56t69 38t92.5 14q36 0 64 -6t48.5 -15t34.5 -18t22 -15zM313 -123q0 -28 -11.5 -48t-28.5 -33.5t-37.5 -21.5 t-38.5 -12l-10 39q21 6 38.5 17.5t22.5 34.5h-1q-26 0 -41 14t-15 39t16 38.5t38 13.5q30 0 49 -20.5t19 -60.5z" />
<glyph unicode="&#x219;" horiz-adv-x="406" d="M323 363q-5 4 -14.5 10t-22 12t-29 10t-35.5 4q-32 0 -48.5 -10t-16.5 -24q0 -19 14.5 -30.5t48.5 -28.5l29 -14q28 -14 50.5 -28.5t38.5 -33t25 -41t9 -52.5q0 -68 -46.5 -108.5t-137.5 -40.5q-33 0 -58 5.5t-44 13t-32 16.5t-22 17l39 102q7 -7 18 -16t25.5 -16.5 t32 -13t37.5 -5.5q32 0 51.5 9.5t19.5 26.5q0 11 -4 19t-12.5 15t-22 14l-32.5 17l-29 15q-51 25 -80.5 59.5t-29.5 92.5q0 32 13 58t36.5 44t55 28t69.5 10q30 0 53 -5t39.5 -12t27.5 -14.5t17 -12.5zM264 -123q0 -28 -11.5 -48t-28.5 -33.5t-37.5 -21.5t-38.5 -12l-10 39 q21 6 38.5 17.5t22.5 34.5h-1q-26 0 -41 14t-15 39t16 38.5t38 13.5q30 0 49 -20.5t19 -60.5z" />
<glyph unicode="&#x21a;" horiz-adv-x="579" d="M556 580h-200v-580h-134v580h-202v110h544zM355 -123q0 -28 -11.5 -48t-28.5 -33.5t-37.5 -21.5t-38.5 -12l-10 39q21 6 38.5 17.5t22.5 34.5h-1q-26 0 -41 14t-15 39t16 38.5t38 13.5q30 0 49 -20.5t19 -60.5z" />
<glyph unicode="&#x21b;" horiz-adv-x="364" d="M327 387h-112v-197q0 -54 15 -74t50 -20q17 0 31 3.5t20 5.5l9 -93q-8 -4 -29.5 -13t-63.5 -9q-41 0 -70.5 10t-49 32.5t-29 58t-9.5 87.5v209h-66v86l66 12l14 136h112v-134h123zM277 -123q0 -28 -11.5 -48t-28.5 -33.5t-37.5 -21.5t-38.5 -12l-10 39q21 6 38.5 17.5 t22.5 34.5h-1q-26 0 -41 14t-15 39t16 38.5t38 13.5q30 0 49 -20.5t19 -60.5z" />
<glyph unicode="&#x237;" horiz-adv-x="254" d="M190 20q0 -118 -57.5 -174.5t-174.5 -57.5l-8 105q30 2 51.5 9t35.5 22.5t20.5 40t6.5 62.5v460h126v-467z" />
<glyph unicode="&#x259;" horiz-adv-x="478" d="M437 241q0 -62 -15.5 -109t-44 -79t-68 -48.5t-88.5 -16.5q-87 0 -130.5 50.5t-43.5 138.5q0 32 1.5 57t5.5 46h260q-5 59 -38 86.5t-91 27.5q-45 0 -75 -14t-44 -25l-29 87l25 17t36.5 19t50 15t65.5 6q49 0 90.5 -14.5t70.5 -45.5t45.5 -80t16.5 -118zM230 86 q36 0 60 27.5t26 81.5h-156q-1 -8 -1 -13v-10q0 -42 18 -64t53 -22z" />
<glyph unicode="&#x2bb;" horiz-adv-x="231" d="M39.0117 532.002q0 40.9971 12.499 69.9951q12.499 28.999 31.998 48.4971q19.499 19.499 44.4971 31.498q24.998 12 49.9971 17.999l15.999 -44.9971q-14.999 -5 -28.498 -12.499q-13.499 -7.5 -23.999 -17.999q-10.499 -10.499 -17.499 -25.998 q-6.99902 -15.499 -8.99902 -37.498q30.998 0 49.4971 -17.999t18.499 -48.9971q0 -29.998 -19.499 -46.4971t-45.4971 -16.499q-32.998 0 -55.9971 23.999q-22.998 23.998 -22.998 76.9951z" />
<glyph unicode="&#x2bc;" horiz-adv-x="231" d="M196 596q0 -41 -12.5 -70t-32 -48.5t-44.5 -31.5t-50 -18l-16 45q15 5 28.5 12.5t24 18t17.5 26t9 37.5q-31 0 -49.5 18t-18.5 49q0 30 19.5 46.5t45.5 16.5q33 0 56 -24t23 -77z" />
<glyph unicode="&#x2c6;" horiz-adv-x="295" d="M208 555l-59 75h-2l-60 -75h-89l81 142h137l81 -142h-89z" />
<glyph unicode="&#x2c7;" horiz-adv-x="295" d="M216 560h-137l-81 142h89l60 -73h2l59 73h89z" />
<glyph unicode="&#x2d8;" horiz-adv-x="302" d="M280 688q-1 -27 -8.5 -51.5t-23 -42.5t-39.5 -28.5t-58 -10.5t-58 10.5t-39.5 28.5t-23.5 42.5t-9 51.5h77q2 -53 53 -53q52 0 54 53h75v0z" />
<glyph unicode="&#x2d9;" horiz-adv-x="126" d="M132 629q0 -31 -19.5 -49.5t-49.5 -18.5t-49 18.5t-19 49.5q0 30 19 48.5t49 18.5t49.5 -18.5t19.5 -48.5z" />
<glyph unicode="&#x2da;" horiz-adv-x="236" d="M212 639q0 -41 -26 -65.5t-68 -24.5t-68 24.5t-26 65.5q0 42 26 66t68 24t68 -24t26 -66zM151 639q0 17 -9.5 26t-23.5 9t-24 -9t-10 -26t10 -26t24 -9t23.5 9t9.5 26z" />
<glyph unicode="&#x2db;" horiz-adv-x="227" d="M210 -188q-10 -6 -32.5 -15t-58.5 -9q-51 0 -76.5 23.5t-25.5 67.5q0 31 12.5 56t29.5 44.5t33.5 32t24.5 17.5l61 -20q-7 -5 -15.5 -13t-16.5 -18.5t-13.5 -24t-5.5 -29.5q0 -35 34 -35q14 0 24 3t14 5z" />
<glyph unicode="&#x2dc;" horiz-adv-x="352" d="M325 683q0 -57 -19 -90.5t-65 -33.5q-21 0 -38.5 7.5t-32 16l-28 16t-26.5 7.5q-16 0 -21.5 -11t-7.5 -30h-60q0 57 18.5 90t65.5 33q21 0 38 -7t32 -16t28.5 -16t26.5 -7q15 0 21.5 10.5t7.5 30.5h60v0z" />
<glyph unicode="&#x2dd;" horiz-adv-x="273" d="M163 692l-102 -136h-82l80 138h104v-2zM316 692l-102 -136h-83l81 138h104v-2z" />
<glyph unicode="&#x394;" horiz-adv-x="598" d="M562 0h-526v99l206 591h114l206 -591v-99zM292 534h-2l-126 -423h259z" />
<glyph unicode="&#x3a9;" horiz-adv-x="743" d="M683 380q0 -66 -16 -113t-38 -79.5t-45.5 -52t-38.5 -30.5v-2h143v-103h-280v105q24 16 49 37.5t45.5 51.5t33.5 72t13 99q0 58 -13 100t-37 69.5t-56.5 40.5t-71.5 13t-71.5 -13t-56 -40.5t-36.5 -69.5t-13 -100q0 -57 13 -99t33 -72t44.5 -51.5t48.5 -37.5v-105h-279 v103h143v2q-15 11 -38.5 31t-45.5 53t-37.5 79.5t-15.5 111.5q0 75 23 134.5t64.5 101t98.5 64t125 22.5q69 0 126 -22t98.5 -63.5t64.5 -101.5t23 -135z" />
<glyph unicode="&#x3bc;" horiz-adv-x="587" d="M227 -12q-25 0 -42 4q2 -52 9.5 -98.5t21.5 -93.5h-121q-11 48 -16.5 117.5t-5.5 146.5v423h126v-291q0 -54 19 -77t58 -23q32 0 52.5 11t30.5 20v360h126v-350q0 -30 9 -40.5t26 -10.5q11 0 17 1.5t11 3.5l5 -89q-5 -2 -24 -7.5t-50 -5.5q-42 0 -69 13t-40 45 q-8 -9 -19 -19.5t-28.5 -19.5t-41 -14.5t-54.5 -5.5z" />
<glyph unicode="&#x3c0;" horiz-adv-x="632" d="M593 385h-101v-211q0 -48 16.5 -64t45.5 -16q12 0 19.5 1t12.5 3l1 -101q-5 -2 -20.5 -5.5t-38.5 -3.5q-80 0 -121 38.5t-41 130.5v229l-105 1q-2 -60 -6.5 -112t-12 -99t-17 -90.5t-20.5 -85.5h-132l23.5 85.5t20.5 90t15.5 97.5t8.5 110q-40 -4 -63.5 -9.5t-40.5 -13.5 l-19 94q12 6 28 11.5t40 10.5t57.5 8t80.5 3h371z" />
<glyph unicode="&#x1e80;" horiz-adv-x="893" d="M692 0h-111l-134 467h-2l-133 -467h-111l-187 690h146l104 -477h2l123 477h127l121 -477h2l105 477h136zM402 741l-124 120v2h144l92 -122h-112z" />
<glyph unicode="&#x1e81;" horiz-adv-x="728" d="M552 0h-104l-78 227h-2l-88 -227h-104l-169 487h136l94 -325h2l83 203l-42 122h124l100 -325h2l91 325h124zM309 556l-127 136v2h143l94 -138h-110z" />
<glyph unicode="&#x1e82;" horiz-adv-x="893" d="M692 0h-111l-134 467h-2l-133 -467h-111l-187 690h146l104 -477h2l123 477h127l121 -477h2l105 477h136zM620 861l-125 -120h-111l90 122h146v-2z" />
<glyph unicode="&#x1e83;" horiz-adv-x="728" d="M552 0h-104l-78 227h-2l-88 -227h-104l-169 487h136l94 -325h2l83 203l-42 122h124l100 -325h2l91 325h124zM533 692l-128 -136h-110l94 138h144v-2z" />
<glyph unicode="&#x1e84;" horiz-adv-x="893" d="M692 0h-111l-134 467h-2l-133 -467h-111l-187 690h146l104 -477h2l123 477h127l121 -477h2l105 477h136zM411 799q0 -28 -18 -45t-47 -17t-47 17t-18 45q0 29 18 46t47 17t47 -17t18 -46zM617 799q0 -28 -18 -45t-47 -17t-47 17t-18 45q0 29 18 46t47 17t47 -17t18 -46z " />
<glyph unicode="&#x1e85;" horiz-adv-x="728" d="M552 0h-104l-78 227h-2l-88 -227h-104l-169 487h136l94 -325h2l83 203l-42 122h124l100 -325h2l91 325h124zM328 625q0 -28 -17.5 -46.5t-46.5 -18.5t-47 18.5t-18 46.5q0 29 18 47.5t47 18.5t46.5 -18.5t17.5 -47.5zM515 625q0 -28 -18 -46.5t-47 -18.5t-47 18.5 t-18 46.5q0 29 18 47.5t47 18.5t47 -18.5t18 -47.5z" />
<glyph unicode="&#x1e8a;" horiz-adv-x="591" d="M368 355l212 -355h-154l-132 233h-2l-134 -233h-146l211 347l-203 343h154l124 -221h2l127 221h145zM368 802q0 -30 -19.5 -47t-49.5 -17t-49.5 17t-19.5 47q0 31 19.5 48t49.5 17t49.5 -17t19.5 -48z" />
<glyph unicode="&#x1e8b;" horiz-adv-x="464" d="M296 254l156 -254h-146l-78 146h-2l-79 -146h-135l155 245l-146 242h143l70 -136h2l74 136h133zM304 629q0 -31 -19.5 -49.5t-49.5 -18.5t-49 18.5t-19 49.5q0 30 19 48.5t49 18.5t49.5 -18.5t19.5 -48.5z" />
<glyph unicode="&#x1e9e;" horiz-adv-x="730" d="M634 588q-11 -9 -27 -23.5t-30.5 -33.5t-24.5 -42.5t-10 -50.5q0 -22 11.5 -41.5t28.5 -38.5l36.5 -39t36.5 -43t28.5 -50.5t11.5 -61.5q0 -38 -14 -70t-40.5 -55.5t-65 -37t-86.5 -13.5q-55 0 -88.5 10.5t-50.5 20.5l30 114q14 -10 37.5 -20.5t63.5 -10.5q42 0 62 15 t20 38q0 32 -23.5 58t-51.5 53.5t-51.5 62t-23.5 84.5q0 30 8 56t20 47.5t25 37.5t23 27v2q-9 2 -29 5.5t-49 3.5q-49 0 -87.5 -12.5t-64.5 -40.5t-40 -73t-14 -109v-357h-134v357q0 96 26.5 161.5t73 106.5t109.5 59t136 18q42 0 77 -5.5t62.5 -13t47.5 -15.5t31 -14v-66z " />
<glyph unicode="&#x1ef2;" horiz-adv-x="577" d="M356 263v-263h-134v262l-221 428h151l140 -297h2l138 297h143zM246 741l-124 120v2h144l92 -122h-112z" />
<glyph unicode="&#x1ef3;" horiz-adv-x="469" d="M298 6q-20 -59 -40 -99.5t-45 -65.5t-56 -36t-74 -11q-21 0 -33.5 3.5t-15.5 5.5v106q3 -2 14 -4.5t27 -2.5q48 0 71 22.5t35 62.5l5 18l-181 482h137l101 -325h2l91 325h125zM196 556l-127 136v2h143l94 -138h-110z" />
<glyph unicode="&#x2000;" horiz-adv-x="462" />
<glyph unicode="&#x2001;" horiz-adv-x="925" />
<glyph unicode="&#x2002;" horiz-adv-x="462" />
<glyph unicode="&#x2003;" horiz-adv-x="925" />
<glyph unicode="&#x2004;" horiz-adv-x="308" />
<glyph unicode="&#x2005;" horiz-adv-x="231" />
<glyph unicode="&#x2006;" horiz-adv-x="154" />
<glyph unicode="&#x2007;" />
<glyph unicode="&#x2008;" horiz-adv-x="235" />
<glyph unicode="&#x2009;" horiz-adv-x="185" />
<glyph unicode="&#x200a;" horiz-adv-x="51" />
<glyph unicode="&#x200b;" horiz-adv-x="0" />
<glyph unicode="&#x2010;" horiz-adv-x="393" d="M336 257h-279v100h279v-100z" />
<glyph unicode="&#x2011;" horiz-adv-x="393" d="M336 257h-279v100h279v-100z" />
<glyph unicode="&#x2012;" horiz-adv-x="393" d="M336 257h-279v100h279v-100z" />
<glyph unicode="&#x2013;" horiz-adv-x="540" d="M483 259h-426v98h426v-98z" />
<glyph unicode="&#x2014;" horiz-adv-x="782" d="M724 261h-666v96h666v-96z" />
<glyph unicode="&#x2018;" horiz-adv-x="231" d="M39.0117 532.002q0 40.9971 12.499 69.9951q12.499 28.999 31.998 48.4971q19.499 19.499 44.4971 31.498q24.998 12 49.9971 17.999l15.999 -44.9971q-14.999 -5 -28.498 -12.499q-13.499 -7.5 -23.999 -17.999q-10.499 -10.499 -17.499 -25.998 q-6.99902 -15.499 -8.99902 -37.498q30.998 0 49.4971 -17.999t18.499 -48.9971q0 -29.998 -19.499 -46.4971t-45.4971 -16.499q-32.998 0 -55.9971 23.999q-22.998 23.998 -22.998 76.9951z" />
<glyph unicode="&#x2019;" horiz-adv-x="231" d="M196 596q0 -41 -12.5 -70t-32 -48.5t-44.5 -31.5t-50 -18l-16 45q15 5 28.5 12.5t24 18t17.5 26t9 37.5q-31 0 -49.5 18t-18.5 49q0 30 19.5 46.5t45.5 16.5q33 0 56 -24t23 -77z" />
<glyph unicode="&#x201a;" horiz-adv-x="228" d="M186 29q0 -41 -12.5 -70t-32 -48.5t-44.5 -31.5t-50 -18l-16 45q15 5 28.5 12.5t24 18t17.5 26t9 37.5q-31 0 -49.5 18t-18.5 49q0 30 19.5 46.5t45.5 16.5q33 0 56 -24t23 -77z" />
<glyph unicode="&#x201c;" horiz-adv-x="418" d="M226.012 532.002q0 40.9971 12.499 69.9951q12.499 28.999 31.998 48.4971q19.499 19.499 44.4971 31.498q24.998 12 49.9971 17.999l15.999 -44.9971q-14.999 -5 -28.498 -12.499q-13.499 -7.5 -23.999 -17.999q-10.499 -10.499 -17.499 -25.998 q-6.99902 -15.499 -8.99902 -37.498q30.998 0 49.4971 -17.999t18.499 -48.9971q0 -29.998 -19.499 -46.4971t-45.4971 -16.499q-32.998 0 -55.9971 23.999q-22.998 23.998 -22.998 76.9951zM39.0117 532.002q0 40.9971 12.499 69.9951q12.499 28.999 31.998 48.4971 q19.499 19.499 44.4971 31.498q24.998 12 49.9971 17.999l15.999 -44.9971q-14.999 -5 -28.498 -12.499q-13.499 -7.5 -23.999 -17.999q-10.499 -10.499 -17.499 -25.998q-6.99902 -15.499 -8.99902 -37.498q30.998 0 49.4971 -17.999t18.499 -48.9971 q0 -29.998 -19.499 -46.4971t-45.4971 -16.499q-32.998 0 -55.9971 23.999q-22.998 23.998 -22.998 76.9951z" />
<glyph unicode="&#x201d;" horiz-adv-x="417" d="M382 596q0 -41 -12.5 -70t-32 -48.5t-44.5 -31.5t-50 -18l-16 45q15 5 28.5 12.5t24 18t17.5 26t9 37.5q-31 0 -49.5 18t-18.5 49q0 30 19.5 46.5t45.5 16.5q33 0 56 -24t23 -77zM196 596q0 -41 -12.5 -70t-32 -48.5t-44.5 -31.5t-50 -18l-16 45q15 5 28.5 12.5t24 18 t17.5 26t9 37.5q-31 0 -49.5 18t-18.5 49q0 30 19.5 46.5t45.5 16.5q33 0 56 -24t23 -77z" />
<glyph unicode="&#x201e;" horiz-adv-x="415" d="M373 29q0 -41 -12.5 -70t-32 -48.5t-44.5 -31.5t-50 -18l-16 45q15 5 28.5 12.5t24 18t17.5 26t9 37.5q-31 0 -49.5 18t-18.5 49q0 30 19.5 46.5t45.5 16.5q33 0 56 -24t23 -77zM186 29q0 -41 -12.5 -70t-32 -48.5t-44.5 -31.5t-50 -18l-16 45q15 5 28.5 12.5t24 18 t17.5 26t9 37.5q-31 0 -49.5 18t-18.5 49q0 30 19.5 46.5t45.5 16.5q33 0 56 -24t23 -77z" />
<glyph unicode="&#x2020;" horiz-adv-x="433" d="M394 469h-127v-232h-101v232h-127v82h127v139h101v-139h127v-82z" />
<glyph unicode="&#x2021;" horiz-adv-x="455" d="M405 469h-127v-232h127v-82h-127v-155h-101v155h-127v82h127v232h-127v82h127v139h101v-139h127v-82z" />
<glyph unicode="&#x2022;" horiz-adv-x="390" d="M340 317q0 -32 -11 -58t-30.5 -44t-46.5 -27.5t-58 -9.5q-62 0 -102.5 37t-40.5 102q0 66 40.5 104t102.5 38q31 0 58 -10t46.5 -28.5t30.5 -44.5t11 -59z" />
<glyph unicode="&#x2026;" horiz-adv-x="790" d="M183 60q0 -33 -19 -52t-51 -19t-51.5 19t-19.5 52t19.5 52.5t51.5 19.5t51 -19.5t19 -52.5zM466 60q0 -33 -19.5 -52t-51.5 -19t-51 19t-19 52t19 52.5t51 19.5t51.5 -19.5t19.5 -52.5zM748 60q0 -33 -19 -52t-51 -19t-51.5 19t-19.5 52t19.5 52.5t51.5 19.5t51 -19.5 t19 -52.5z" />
<glyph unicode="&#x202f;" horiz-adv-x="185" />
<glyph unicode="&#x2030;" horiz-adv-x="1088" d="M333 493q0 -43 -11.5 -75t-31.5 -53t-46.5 -31.5t-55.5 -10.5t-55 10.5t-46 31.5t-31.5 53t-11.5 75t11.5 74.5t31.5 52.5t46 31.5t55 10.5t55.5 -10.5t46.5 -32t31.5 -53t11.5 -73.5zM240 493q0 46 -14 69.5t-38 23.5t-38 -23.5t-14 -69.5q0 -47 14 -70.5t38 -23.5 t38 23.5t14 70.5zM206 0h-114l461 650h114zM715 158q0 -43 -11.5 -75t-31 -53t-46 -31.5t-55.5 -10.5t-55 10.5t-46 31.5t-31.5 53t-11.5 75q0 42 11.5 74t31.5 53t46 31.5t55 10.5t55.5 -10.5t46 -31.5t31 -53t11.5 -74zM623 158q0 46 -14 69.5t-38 23.5t-37.5 -23.5 t-13.5 -69.5q0 -48 13.5 -71t37.5 -23t38 23t14 71zM1052 158q0 -43 -12 -75t-32 -53t-46 -31.5t-55 -10.5t-55.5 10.5t-46 31.5t-31 53t-11.5 75q0 42 11.5 74t31 53t46 31.5t55.5 10.5t55 -10.5t46 -31.5t32 -53t12 -74zM958 158q0 46 -13.5 69.5t-37.5 23.5t-38 -23.5 t-14 -69.5q0 -48 14 -71t38 -23t37.5 23t13.5 71z" />
<glyph unicode="&#x2039;" horiz-adv-x="298" d="M163 88l-131 199l131 200h101l-109 -200l109 -199h-101z" />
<glyph unicode="&#x203a;" horiz-adv-x="299" d="M136 488l131 -199l-131 -200h-101l109 200l-109 199h101z" />
<glyph unicode="&#x2044;" horiz-adv-x="556" d="M98 0h-110l463 650h110z" />
<glyph unicode="&#x205f;" horiz-adv-x="231" />
<glyph unicode="&#x20ac;" horiz-adv-x="537" d="M434 225h-197q14 -71 48.5 -100t87.5 -29q41 0 62 9t33 18l20 -100q-17 -13 -46 -23.5t-85 -10.5q-50 0 -91.5 12.5t-73.5 40t-53 72.5t-30 111h-68v70h62v30v29h-62v71h70q12 63 37.5 108t60.5 73.5t77.5 41.5t88.5 13q47 0 74 -10.5t41 -21.5l-28 -100q-9 7 -28 16 t-53 9q-51 0 -88 -31t-54 -98h195v-71h-204q-1 -8 -1 -14.5v-14.5v-30h205v-70z" />
<glyph unicode="&#x2122;" horiz-adv-x="978" d="M395 607h-118v-336h-99v336h-120v83h343zM900 271h-94v217h-2l-87 -217h-71l-87 217h-1v-217h-95v419h107l112 -282h2l114 282h102v-419z" />
<glyph unicode="&#x2126;" horiz-adv-x="743" d="M683 380q0 -66 -16 -113t-38 -79.5t-45.5 -52t-38.5 -30.5v-2h143v-103h-280v105q24 16 49 37.5t45.5 51.5t33.5 72t13 99q0 58 -13 100t-37 69.5t-56.5 40.5t-71.5 13t-71.5 -13t-56 -40.5t-36.5 -69.5t-13 -100q0 -57 13 -99t33 -72t44.5 -51.5t48.5 -37.5v-105h-279 v103h143v2q-15 11 -38.5 31t-45.5 53t-37.5 79.5t-15.5 111.5q0 75 23 134.5t64.5 101t98.5 64t125 22.5q69 0 126 -22t98.5 -63.5t64.5 -101.5t23 -135z" />
<glyph unicode="&#x2202;" horiz-adv-x="561" d="M508 373q0 -90 -19.5 -161.5t-55.5 -121t-87 -76t-113 -26.5q-45 0 -81 14.5t-61 41t-38 64t-13 83.5q0 60 19 105t50.5 74t72 43.5t82.5 14.5q43 0 71 -12t45 -28q-4 115 -45 168.5t-126 53.5q-36 0 -61.5 -6t-40.5 -14l-18 106q17 8 49.5 17t86.5 9q142 0 212.5 -88.5 t70.5 -260.5zM248 94q53 0 86.5 49t42.5 149q-14 16 -35.5 28t-57.5 12q-54 0 -88 -33t-34 -99q0 -49 20.5 -77.5t65.5 -28.5z" />
<glyph unicode="&#x2206;" horiz-adv-x="598" d="M562 0h-526v99l206 591h114l206 -591v-99zM292 534h-2l-126 -423h259z" />
<glyph unicode="&#x220f;" horiz-adv-x="676" d="M638 603h-93v-753h-126v753h-163v-753h-127v753h-91v107h600v-107z" />
<glyph unicode="&#x2211;" horiz-adv-x="518" d="M457 602h-256l215 -310l-223 -327h285v-115h-436v89l232 341l-233 334v96h416v-108z" />
<glyph unicode="&#x2212;" d="M456 264h-413v98h413v-98z" />
<glyph unicode="&#x2219;" horiz-adv-x="390" d="M340 317q0 -32 -11 -58t-30.5 -44t-46.5 -27.5t-58 -9.5q-62 0 -102.5 37t-40.5 102q0 66 40.5 104t102.5 38q31 0 58 -10t46.5 -28.5t30.5 -44.5t11 -59z" />
<glyph unicode="&#x221a;" horiz-adv-x="619" d="M382 -150h-124l-148 381l-100 -33v98l186 61l120 -342h2l169 695h130z" />
<glyph unicode="&#x221e;" horiz-adv-x="741" d="M693 310q0 -38 -12.5 -67.5t-33.5 -50t-49.5 -31.5t-61.5 -11q-29 0 -54 8t-45.5 21t-37 28t-29.5 30q-12 -15 -28.5 -30.5t-37 -28t-45 -20.5t-53.5 -8q-33 0 -61.5 11t-50 31.5t-34 50t-12.5 67.5t12.5 67.5t34 50t50 31.5t61.5 11q29 0 53.5 -8t45 -20.5t37 -27.5 t28.5 -30q13 15 29.5 30t37 27.5t45.5 20.5t54 8q33 0 61.5 -11t49.5 -31.5t33.5 -50t12.5 -67.5zM145 310q0 -32 18.5 -51t49.5 -19q19 0 35.5 7t30.5 17.5t25.5 23l20.5 22.5l-20.5 22.5t-25.5 23t-30.5 17.5t-35.5 7q-31 -1 -49.5 -19.5t-18.5 -50.5zM597 310 q0 32 -18.5 51t-50.5 19q-20 0 -36 -7t-29.5 -17.5t-25 -23l-20.5 -22.5l20.5 -22.5t25 -23t29.5 -17.5t36 -7q32 1 50.5 19.5t18.5 50.5z" />
<glyph unicode="&#x222b;" horiz-adv-x="332" d="M287 614q-5 2 -11 3t-17 1q-25 0 -43.5 -16t-18.5 -57q0 -70 9 -137t19.5 -133t19.5 -133t9 -137q0 -43 -13 -74.5t-35.5 -52t-54 -30.5t-67.5 -10q-20 0 -33.5 2.5t-18.5 4.5l13 101q5 -2 11 -3t17 -1q25 0 43.5 16t18.5 57q0 70 -9 137t-19.5 133t-19.5 133t-9 137 q0 42 13 73.5t35.5 52.5t54 31t67.5 10q20 0 33.5 -2.5t18.5 -4.5z" />
<glyph unicode="&#x2245;" d="M469 514q-8 -24 -19 -45.5t-27.5 -37t-39.5 -25t-53 -9.5q-29 0 -51 11t-41.5 23.5l-37 23.5t-36.5 11q-16 0 -27 -6t-19 -15t-13.5 -20l-10.5 -21l-63 40q7 24 18.5 45t28 37t39.5 25t53 9q28 0 50.5 -10.5t42 -23.5t37 -23.5t36.5 -10.5q16 0 27 5.5t19 14.5t13.5 20 l10.5 21l63 -39v0zM456 79h-413v93h413v-93zM456 251h-413v93h413v-93z" />
<glyph unicode="&#x2248;" d="M469 248q-8 -24 -19 -45.5t-27.5 -37t-39.5 -25t-53 -9.5q-29 0 -51 11t-41.5 23.5l-37 23.5t-36.5 11q-16 0 -27 -6t-19 -15t-13.5 -20l-10.5 -21l-63 40q7 24 18.5 45.5t28 37t39.5 25t53 9.5q28 0 50.5 -11t42 -23.5l37 -23.5t36.5 -11q16 0 27 5.5t19 14.5t13.5 20 t10.5 22zM469 442q-8 -24 -19 -45.5t-27.5 -37t-39.5 -25t-53 -9.5q-29 0 -51 11t-41.5 23.5l-37 23.5t-36.5 11q-16 0 -27 -6t-19 -15t-13.5 -20l-10.5 -21l-63 40q7 24 18.5 45.5t28 37t39.5 25t53 9.5q28 0 50.5 -11t42 -23.5l37 -23.5t36.5 -11q16 0 27 5.5t19 14.5 t13.5 20t10.5 22z" />
<glyph unicode="&#x2260;" d="M456 352h-154l-47 -79h201v-93h-256l-62 -104h-57l61 104h-99v93h154l47 79h-201v93h257l61 103h58l-61 -103h98v-93z" />
<glyph unicode="&#x2264;" d="M448 451l-270 -98v-2l270 -97v-97l-413 162v67l413 162v-97zM448 27h-413v95h413v-95z" />
<glyph unicode="&#x2265;" d="M465 319l-413 -162v97l271 97v2l-271 98v97l413 -162v-67zM465 27h-413v95h413v-95z" />
<glyph unicode="&#x22c5;" horiz-adv-x="243" d="M197 306q0 -35 -20.5 -55.5t-55.5 -20.5q-34 0 -54.5 20.5t-20.5 55.5t20.5 56t54.5 21q35 0 55.5 -21t20.5 -56z" />
<glyph unicode="&#x25ca;" horiz-adv-x="636" d="M389 -150h-142l-212 430l212 430h142l212 -430zM319 596h-2l-145 -316l145 -317h2l145 317z" />
<glyph unicode="&#xe000;" horiz-adv-x="485" d="M0 485h485v-485h-485v485z" />
<glyph unicode="&#xfb01;" horiz-adv-x="608" d="M330 387h-109v-387h-126v387h-66v86l66 12v42q0 97 46.5 145.5t133.5 48.5q35 0 55 -7t27 -11l-20 -100l-18 7t-30 5q-34 0 -51 -18.5t-17 -65.5v-44h121zM544 0h-126v487h126v-487zM554 642q0 -33 -20.5 -52.5t-52.5 -19.5q-33 0 -53.5 19.5t-20.5 52.5q0 34 20.5 53.5 t53.5 19.5q32 0 52.5 -19.5t20.5 -53.5z" />
<glyph unicode="&#xfb02;" horiz-adv-x="643" d="M330 387h-109v-387h-126v387h-66v86l66 12v42q0 97 46.5 145.5t133.5 48.5q35 0 55 -7t27 -11l-20 -100l-18 7t-30 5q-34 0 -51 -18.5t-17 -65.5v-44h121zM542 157q0 -39 10 -52.5t33 -13.5q13 0 22.5 2.5t14.5 4.5l8 -88q-8 -5 -29 -12t-55 -7q-30 0 -54.5 7.5t-41 25 t-25.5 46t-9 69.5v566l126 11v-559z" />
<glyph horiz-adv-x="267" d="M266 861l-125 -120h-111l90 122h146v-2z" />
<glyph horiz-adv-x="320" d="M289 859q-1 -25 -8.5 -47t-23 -38t-39.5 -25.5t-58 -9.5t-58 9.5t-39.5 25.5t-23.5 38t-9 47h78q1 -20 14 -33t38 -13q26 0 38.5 13t13.5 33h77v0z" />
<glyph horiz-adv-x="334" d="M235 747h-136l-78 121h92l53 -61h2l54 61h91z" />
<glyph horiz-adv-x="334" d="M222 742l-54 61h-2l-53 -61h-92l78 121h136l78 -121h-91z" />
<glyph horiz-adv-x="400" d="M162 799q0 -28 -18 -45t-47 -17t-47 17t-18 45q0 29 18 46t47 17t47 -17t18 -46zM368 799q0 -28 -18 -45t-47 -17t-47 17t-18 45q0 29 18 46t47 17t47 -17t18 -46z" />
<glyph horiz-adv-x="169" d="M153 802q0 -30 -19.5 -47t-49.5 -17t-49.5 17t-19.5 47q0 31 19.5 48t49.5 17t49.5 -17t19.5 -48z" />
<glyph horiz-adv-x="267" d="M140 741l-124 120v2h144l92 -122h-112z" />
<glyph horiz-adv-x="340" d="M182 862l-95 -120h-83l73 122h105v-2zM335 862l-96 -120h-82l72 122h106v-2z" />
<glyph horiz-adv-x="303" d="M268 748h-232v84h232v-84z" />
<glyph horiz-adv-x="251" d="M220 812q0 -38 -27 -61.5t-68 -23.5t-68 23.5t-27 61.5q0 39 27 62t68 23t68 -23t27 -62zM160 812q0 16 -10.5 23t-24.5 7t-24.5 -7t-10.5 -23q0 -15 10.5 -22t24.5 -7t24.5 7t10.5 22z" />
<glyph horiz-adv-x="257" d="M165 725q0 16 -11 23.5t-25 7.5t-25 -7.5t-11 -23.5q0 -17 11 -24.5t25 -7.5t25 7.5t11 24.5zM227 725q0 -37 -27 -58.5t-71 -21.5t-71 21.5t-27 58.5q0 36 27 57.5t71 21.5t71 -21.5t27 -57.5zM221 857l-186 -54v44l186 78v-68z" />
<glyph horiz-adv-x="365" d="M331 850q-2 -57 -21.5 -84t-62.5 -27q-21 0 -38 6t-32 13l-28.5 13t-27.5 6q-15 0 -21 -9t-7 -26h-60q1 112 84 112q21 0 38 -6t32 -13l28.5 -13t27.5 -6q26 0 28 34h60v0z" />
<glyph horiz-adv-x="254" d="M190 0h-126v487h126v-487zM200 642q0 -33 -20.5 -52.5t-52.5 -19.5q-33 0 -53.5 19.5t-20.5 52.5q0 34 20.5 53.5t53.5 19.5q32 0 52.5 -19.5t20.5 -53.5z" />
<glyph horiz-adv-x="169" d="M171 -123q0 -28 -11.5 -48t-28.5 -33.5t-37.5 -21.5t-38.5 -12l-10 39q21 6 38.5 17.5t22.5 34.5h-1q-26 0 -41 14t-15 39t16 38.5t38 13.5q30 0 49 -20.5t19 -60.5z" />
<glyph horiz-adv-x="169" d="M-3 635q0 27 10.5 47t27 34.5t37.5 23t41 12.5l10 -38q-22 -6 -38.5 -18.5t-21.5 -33.5h1q25 0 40.5 -14t15.5 -39t-15.5 -38.5t-38.5 -13.5q-32 0 -50.5 21t-18.5 57z" />
<glyph horiz-adv-x="236" d="M153 623q0 16 -10.5 23.5t-24.5 7.5t-24.5 -7.5t-10.5 -23.5q0 -17 10.5 -24.5t24.5 -7.5t24.5 7.5t10.5 24.5zM211 623q0 -35 -25.5 -56t-67.5 -21t-68 21t-26 56q0 34 26 55t68 21t67.5 -21t25.5 -55zM204 752l-172 -51v43l172 77v-69z" />
</font>
</defs>
</svg>
